<svg xmlns="http://www.w3.org/2000/svg" xmlns:xlink="http://www.w3.org/1999/xlink" xmlns:lucid="lucid" width="1415" height="923"><g transform="translate(-294 -177)" lucid:page-tab-id="0_0"><path d="M698.7 342.5v10.1m.03 10.1l.03 20.2m.02 10.1l.04 20.2m.02 10.1l.04 20.2m.02 10.12l.03 20.2m.02 10.1l.04 20.2m0 10.1l.05 20.2m.02 10.1l.04 20.2m.02 10.1l.04 20.22m.02 10.1l.04 20.2m.02 10.1l.04 20.2m.02 10.1l.03 20.2m.02 10.1l.04 20.2m0 10.12l.05 20.2m.02 10.1l.03 20.2m.02 10.1l.04 20.2m.02 10.1l.04 20.2m.02 10.1l.04 20.22m.02 10.1l.03 20.2m.02 10.1l.04 20.2m0 10.1l.05 20.2m.02 10.1l.03 20.2m.02 10.1l.04 20.22m.02 10.1l.02 10.1" stroke="#333" fill="none"/><path d="M699.2 342.5h-1v-.5h1z" stroke="#333" stroke-width=".05" fill="#333"/><path d="M700 1039.5v.5" stroke="#333" fill="none"/><path d="M679.76 468a8 8 0 0 1 8-8h24a8 8 0 0 1 8 8v304a8 8 0 0 1-8 8h-24a8 8 0 0 1-8-8z" stroke="#f2f2f2" fill="#ced4db"/><path d="M1466.2 342.5v9.96m0 9.96v19.9m0 9.97v19.9m0 9.97v19.9m0 9.97v19.92m0 9.96v19.9m0 9.97v19.9m0 9.97v19.9m0 9.97v19.92m0 9.96v19.9m0 9.97v19.9m0 9.97v19.9m0 9.97v19.92m0 9.96v19.9m0 9.97v19.9m0 9.97v19.9m0 9.97v19.92m0 9.96v19.9m0 9.97v19.9m0 9.97v19.9m0 9.97v19.92m0 9.96v19.9m0 9.97v19.9m0 9.97v19.9m0 9.97v9.96" stroke="#333" fill="none"/><path d="M1466.7 342.5h-1v-.5h1z" stroke="#333" stroke-width=".05" fill="#333"/><path d="M1466.2 1059.5v.5" stroke="#333" fill="none"/><path d="M1446.2 477.4a8 8 0 0 1 8-8h24a8 8 0 0 1 8 8V992a8 8 0 0 1-8 8h-24a8 8 0 0 1-8-8z" stroke="#f2f2f2" fill="#ced4db"/><path d="M603.65 228a8 8 0 0 1 8-8h174.08a8 8 0 0 1 8 8v106a8 8 0 0 1-8 8H611.64a8 8 0 0 1-8-8z" stroke="#000" stroke-opacity="0" fill="#ffaf28"/><use xlink:href="#a" transform="matrix(1,0,0,1,611.6496896262572,228) translate(39.179012345679006 56.55555555555555)"/><use xlink:href="#b" transform="matrix(1,0,0,1,611.6496896262572,228) translate(89.40123456790124 56.55555555555555)"/><use xlink:href="#c" transform="matrix(1,0,0,1,611.6496896262572,228) translate(125.94444444444446 56.55555555555555)"/><path d="M1371.15 228a8 8 0 0 1 8-8h174.08a8 8 0 0 1 8 8v106a8 8 0 0 1-8 8h-174.08a8 8 0 0 1-8-8z" stroke="#000" stroke-opacity="0" fill="#ffcc78"/><use xlink:href="#d" transform="matrix(1,0,0,1,1379.1512509618954,228.00000000000034) translate(51.00617283950617 56.55555555555555)"/><path d="M403.4 277.42c0 10.9-8.84 19.75-19.75 19.75-10.9 0-19.75-8.85-19.75-19.75s8.84-19.75 19.75-19.75c10.9 0 19.75 8.84 19.75 19.75z" stroke="#333" fill="#fff"/><path d="M383.65 297.17v47.3a27.6 27.6 0 0 0 4.28 14.75l35.72 56.45m-40-63.2l-40 63.2m0-98.75h80" stroke="#333" fill="none"/><path d="M343.65 265.67a8 8 0 0 1 8-8h64a8 8 0 0 1 8 8v164a8 8 0 0 1-8 8h-64a8 8 0 0 1-8-8z" fill="none"/><use xlink:href="#e" transform="matrix(1,0,0,1,263.6496896262572,415.6655519423589) translate(101.28395061728395 14.555555555555555)"/><path d="M383.65 353.9v9.94m0 9.93v19.87m0 9.94v19.87m0 9.94v19.86m0 9.94v19.87m0 9.94v19.88m0 9.94v19.87m0 9.92v19.88m0 9.93v19.88m0 9.94v19.87m0 9.95v19.87m0 9.94v19.87m0 9.94v19.87m0 9.94v19.87m0 9.93v19.88m0 9.93v19.87m0 9.93v19.88m0 9.93v19.88m0 9.94v19.87m0 9.93v19.87m0 9.94V960m0 9.95v19.87m0 9.93v19.88m0 9.93v9.94M383.65 1039.5v.5" stroke="#333" fill="none"/><path d="M662.88 495.17v1h-55.72v-1zm-257.94 1v-1h54.22v1zm-17.38 0v-1h7.5v1z" stroke="#333" stroke-width=".05" fill="#333"/><path d="M387.57 496.17h-.5v-1h.5z" stroke="#333" stroke-width=".05" fill="#333"/><path d="M677.64 495.67l-14.26 4.63v-9.27z" fill="#333"/><path d="M679.26 495.67L662.88 501v-10.66zm-15.38 3.94l12.14-3.93-12.14-3.95z" stroke="#333" stroke-width=".05" fill="#333"/><use xlink:href="#f" transform="matrix(1,0,0,1,459.15910953936384,484.99888824066437) translate(0.0049999999999954525 14.222222222222223)"/><use xlink:href="#g" transform="matrix(1,0,0,1,459.15910953936384,484.99888824066437) translate(62.22722222222222 14.222222222222223)"/><use xlink:href="#h" transform="matrix(1,0,0,1,459.15910953936384,484.99888824066437) translate(112.44944444444445 14.222222222222223)"/><use xlink:href="#i" transform="matrix(1,0,0,1,395.0617787038414,484.9988852756922) translate(0.004999999999999893 14.222222222222223)"/><path d="M741.67 684.57h-20.9v-1h20.9zm283.33 0H751.67v-1H1025zm404.3 0h-288.35v-1h288.35z" stroke="#333" stroke-width=".05" fill="#333"/><path d="M720.77 684.57h-.5v-1h.5z" fill="#333"/><path d="M720.8 684.6h-.56v-1.06h.56zm-.5-1v.94h.45v-.95z" stroke="#333" stroke-width=".05" fill="#333"/><path d="M1444.07 684.07l-14.27 4.63v-9.27z" fill="#333"/><path d="M1445.7 684.07l-16.4 5.32v-10.66zm-15.4 3.94l12.15-3.93-12.15-3.95z" stroke="#333" stroke-width=".05" fill="#333"/><use xlink:href="#j" transform="matrix(1,0,0,1,1024.9998632462252,673.2672309960675) translate(0.005000000000002558 14.4)"/><use xlink:href="#k" transform="matrix(1,0,0,1,1024.9998632462252,673.2672309960675) translate(71.95500000000001 14.4)"/><use xlink:href="#l" transform="matrix(1,0,0,1,741.6667601720674,673.2672385950367) translate(0.004999999999999893 14.4)"/><path d="M1429.3 512.83v1h-263.45v-1zm-681.63 1v-1h252.43v1zm-26.9 0v-1h16.9v1z" stroke="#3a414a" stroke-width=".05" fill="#3a414a"/><path d="M720.77 513.83h-.5v-1h.5z" fill="#3a414a"/><path d="M720.8 513.86h-.56v-1.05h.56zm-.5-1v.95h.45v-.94z" stroke="#3a414a" stroke-width=".05" fill="#3a414a"/><path d="M1444.07 513.33l-14.27 4.64v-9.27z" fill="#3a414a"/><path d="M1445.7 513.33l-16.4 5.33V508zm-15.4 3.95l12.15-3.95-12.15-3.94z" stroke="#3a414a" stroke-width=".05" fill="#3a414a"/><use xlink:href="#m" transform="matrix(1,0,0,1,1000.0998185762082,502.53339922699973) translate(0.0049999999999954525 14.4)"/><use xlink:href="#n" transform="matrix(1,0,0,1,1000.0998185762082,502.53339922699973) translate(71.855 14.4)"/><use xlink:href="#o" transform="matrix(1,0,0,1,1000.0998185762082,502.53339922699973) translate(91.855 14.4)"/><use xlink:href="#p" transform="matrix(1,0,0,1,737.6667650989044,502.53339912631014) translate(0.004999999999999893 14.4)"/><path d="M1487.2 493.6h27.5a12 12 0 0 1 12 12v31.58a12 12 0 0 1-12 12h-11.63" stroke="#3a414a" fill="none"/><path d="M1487.2 494.1h-.5v-1h.5z" stroke="#3a414a" stroke-width=".05" fill="#3a414a"/><path d="M1488.3 549.18l14.27-4.63v9.27z" stroke="#3a414a" fill="#3a414a"/><use xlink:href="#q" transform="matrix(1,0,0,1,1534.6887839765627,510.5880649148747) translate(0.0049999999999954525 14.4)"/><use xlink:href="#r" transform="matrix(1,0,0,1,1534.6887839765627,510.5880649148747) translate(81.905 14.4)"/><use xlink:href="#s" transform="matrix(1,0,0,1,1534.6887839765627,510.5880649148747) translate(97.405 14.4)"/><path d="M1045.15 547.35l.15.35-.15.35-.35.15-.36-.15-.14-.35.14-.36.36-.14zm2 0l.15.35-.15.35-.35.15-.35-.15-.15-.35.15-.36.35-.14zm2 0l.15.35-.14.35-.36.15-.35-.15-.15-.35.15-.36.35-.14zm2 0l.15.35-.14.35-.36.15-.35-.15-.15-.35.15-.36.35-.14zm2 0l.15.35-.14.35-.36.15-.35-.15-.14-.35.15-.36.36-.14zm2 0l.16.35-.14.35-.35.15-.35-.15-.14-.35.15-.36.36-.14zm2 0l.16.35-.14.35-.35.15-.35-.15-.14-.35.15-.36.36-.14zm2 0l.16.35-.14.35-.35.15-.34-.15-.15-.35.16-.36.35-.14zm2.02 0l.14.35-.13.35-.36.15-.34-.15-.15-.35.16-.36.35-.14zm2 0l.14.35-.13.35-.36.15-.34-.15-.14-.35.14-.36.36-.14zm2 0l.15.35-.15.35-.35.15-.36-.15-.14-.35.14-.36.36-.14zm2 0l.15.35-.15.35-.35.15-.36-.15-.14-.35.14-.36.36-.14zm2 0l.15.35-.15.35-.35.15-.35-.15-.15-.35.15-.36.35-.14zm2 0l.15.35-.14.35-.36.15-.35-.15-.15-.35.15-.36.35-.14zm2 0l.15.35-.14.35-.36.15-.35-.15-.14-.35.14-.36.36-.14zm2 0l.16.35-.15.35-.35.15-.36-.15-.14-.35.14-.36.36-.14zm2 0l.16.35-.15.35-.35.15-.36-.15-.14-.35.14-.36.36-.14zm2 0l.16.35-.15.35-.35.15-.35-.15-.15-.35.15-.36.35-.14zm2.02 0l.13.35-.14.35-.37.15-.35-.15-.15-.35.15-.36.35-.14zm2 0l.13.35-.14.35-.37.15-.35-.15-.15-.35.15-.36.35-.14zm2 0l.14.35-.15.35-.36.15-.36-.15-.14-.35.14-.36.36-.14zm2 0l.14.35-.15.35-.36.15-.36-.15-.14-.35.14-.36.36-.14zm2 0l.14.35-.15.35-.36.15-.35-.15-.16-.35.15-.36.34-.14zm2 0l.14.35-.14.35-.36.15-.35-.15-.16-.35.15-.36.34-.14zm2 0l.14.35-.14.35-.36.15-.35-.15-.16-.35.15-.36.34-.14zm2 0l.15.35-.15.35-.35.15-.36-.15-.15-.35.14-.36.35-.14zm2 0l.15.35-.15.35-.35.15-.36-.15-.15-.35.14-.36.35-.14zm2 0l.15.35-.15.35-.35.15-.35-.15-.15-.35.15-.36.35-.14zm2 0l.15.35-.14.35-.35.15-.35-.15-.15-.35.15-.36.35-.14zm2 0l.15.35-.14.35-.35.15-.35-.15-.15-.35.15-.36.35-.14zm2 0l.16.35-.15.35-.34.15-.36-.15-.14-.35.14-.36.36-.14zm2 0l.16.35-.15.35-.34.15-.36-.15-.14-.35.14-.36.36-.14zm2 0l.16.35-.15.35-.34.15-.35-.15-.14-.35.15-.36.36-.14zm2 0l.16.35-.14.35-.36.15-.35-.15-.14-.35.15-.36.36-.14zm2.02 0l.14.35-.14.35-.36.15-.35-.15-.14-.35.15-.36.36-.14zm2 0l.15.35-.15.35-.35.15-.36-.15-.13-.35.14-.36.37-.14zm2 0l.15.35-.15.35-.35.15-.36-.15-.13-.35.14-.36.37-.14zm2 0l.15.35-.15.35-.35.15-.35-.15-.15-.35.15-.36.35-.14zm2 0l.15.35-.14.35-.36.15-.35-.15-.15-.35.15-.36.35-.14zm2 0l.15.35-.14.35-.36.15-.35-.15-.15-.35.15-.36.35-.14zm2 0l.15.35-.14.35-.36.15-.35-.15-.14-.35.14-.36.36-.14zm2 0l.16.35-.15.35-.35.15-.36-.15-.14-.35.14-.36.36-.14zm2 0l.16.35-.15.35-.35.15-.35-.15-.15-.35.15-.36.35-.14zm2 0l.16.35-.15.35-.35.15-.35-.15-.15-.35.15-.36.35-.14zm2.02 0l.14.35-.14.35-.36.15-.35-.15-.15-.35.15-.36.35-.14zm2 0l.14.35-.14.35-.36.15-.35-.15-.14-.35.13-.36.36-.14zm2 0l.15.35-.16.35-.35.15-.37-.15-.14-.35.13-.36.36-.14zm2 0l.15.35-.16.35-.35.15-.36-.15-.15-.35.14-.36.35-.14zm2 0l.15.35-.16.35-.35.15-.36-.15-.15-.35.14-.36.35-.14zm2 0l.15.35-.15.35-.36.15-.36-.15-.15-.35.14-.36.35-.14zm2 0l.15.35-.15.35-.36.15-.36-.15-.14-.35.14-.36.36-.14zm2 0l.16.35-.15.35-.35.15-.36-.15-.14-.35.14-.36.36-.14zm2 0l.16.35-.15.35-.35.15-.36-.15-.14-.35.14-.36.36-.14zm2 0l.16.35-.15.35-.35.15-.35-.15-.15-.35.15-.36.35-.14zm2.02 0l.14.35-.14.35-.36.15-.35-.15-.15-.35.15-.36.35-.14zm2 0l.14.35-.14.35-.36.15-.35-.15-.14-.35.15-.36.36-.14zm2 0l.15.35-.14.35-.35.15-.35-.15-.14-.35.15-.36.36-.14zm2 0l.15.35-.14.35-.35.15-.35-.15-.14-.35.15-.36.36-.14zm2 0l.15.35-.14.35-.35.15-.34-.15-.15-.35.16-.36.35-.14zm2 0l.15.35-.13.35-.36.15-.34-.15-.15-.35.16-.36.35-.14zm2 0l.15.35-.13.35-.36.15-.34-.15-.14-.35.14-.36.36-.14zm2 0l.16.35-.15.35-.35.15-.36-.15-.14-.35.14-.36.36-.14zm2 0l.16.35-.15.35-.35.15-.36-.15-.14-.35.14-.36.36-.14zm2 0l.16.35-.15.35-.35.15-.35-.15-.15-.35.15-.36.35-.14zm2.02 0l.14.35-.14.35-.36.15-.35-.15-.15-.35.15-.36.35-.14zm2 0l.14.35-.14.35-.36.15-.35-.15-.15-.35.15-.36.35-.14zm2 0l.15.35-.15.35-.35.15-.36-.15-.14-.35.14-.36.36-.14zm2 0l.15.35-.15.35-.35.15-.36-.15-.14-.35.14-.36.36-.14zm2 0l.15.35-.15.35-.35.15-.35-.15-.15-.35.15-.36.35-.14zm2 0l.15.35-.14.35-.37.15-.35-.15-.15-.35.15-.36.35-.14zm2 0l.15.35-.14.35-.37.15-.35-.15-.15-.35.15-.36.35-.14zm2 0l.16.35-.15.35-.36.15-.36-.15-.14-.35.14-.36.36-.14zm2 0l.16.35-.15.35-.36.15-.36-.15-.14-.35.14-.36.36-.14zm2 0l.16.35-.15.35-.36.15-.35-.15-.16-.35.15-.36.34-.14zm2.02 0l.14.35-.14.35-.36.15-.35-.15-.16-.35.15-.36.34-.14zm2 0l.14.35-.14.35-.36.15-.35-.15-.16-.35.15-.36.34-.14zm2 0l.15.35-.15.35-.35.15-.36-.15-.15-.35.14-.36.35-.14zm2 0l.15.35-.15.35-.35.15-.36-.15-.15-.35.14-.36.35-.14zm2 0l.15.35-.15.35-.35.15-.35-.15-.15-.35.15-.36.35-.14zm2 0l.15.35-.14.35-.35.15-.35-.15-.15-.35.15-.36.35-.14zm2 0l.15.35-.14.35-.35.15-.35-.15-.15-.35.15-.36.35-.14zm2 0l.16.35-.15.35-.34.15-.36-.15-.14-.35.14-.36.36-.14zm2 0l.16.35-.15.35-.34.15-.36-.15-.14-.35.14-.36.36-.14zm2 0l.16.35-.15.35-.34.15-.35-.15-.14-.35.15-.36.36-.14zm2.02 0l.14.35-.14.35-.36.15-.35-.15-.14-.35.15-.36.36-.14zm2 0l.14.35-.14.35-.36.15-.35-.15-.14-.35.15-.36.36-.14zm2 0l.15.35-.15.35-.35.15-.36-.15-.13-.35.14-.36.37-.14zm2 0l.15.35-.15.35-.35.15-.36-.15-.13-.35.14-.36.37-.14zm2 0l.15.35-.15.35-.35.15-.35-.15-.15-.35.15-.36.35-.14zm2 0l.15.35-.14.35-.36.15-.35-.15-.15-.35.15-.36.35-.14zm2 0l.15.35-.14.35-.36.15-.35-.15-.15-.35.15-.36.35-.14zm2 0l.15.35-.14.35-.36.15-.35-.15-.14-.35.14-.36.36-.14zm2 0l.16.35-.15.35-.35.15-.36-.15-.14-.35.14-.36.36-.14zm2 0l.16.35-.15.35-.35.15-.35-.15-.15-.35.15-.36.35-.14zm2.02 0l.14.35-.14.35-.36.15-.35-.15-.15-.35.15-.36.35-.14zm2 0l.14.35-.14.35-.36.15-.35-.15-.15-.35.15-.36.35-.14zm2 0l.14.35-.14.35-.36.15-.35-.15-.15-.35.15-.36.35-.14zm2 0l.15.35-.16.35-.35.15-.37-.15-.14-.35.13-.36.36-.14zm2 0l.15.35-.16.35-.35.15-.36-.15-.15-.35.14-.36.35-.14zm2 0l.15.35-.15.35-.36.15-.36-.15-.15-.35.14-.36.35-.14zm2 0l.15.35-.15.35-.36.15-.36-.15-.15-.35.14-.36.35-.14zm2 0l.15.35-.15.35-.36.15-.36-.15-.15-.35.14-.36.35-.14zm2 0l.16.35-.15.35-.35.15-.36-.15-.14-.35.14-.36.36-.14zm2 0l.16.35-.15.35-.35.15-.36-.15-.14-.35.14-.36.36-.14zm2 0l.16.35-.15.35-.35.15-.35-.15-.15-.35.15-.36.35-.14zm2.02 0l.14.35-.14.35-.36.15-.35-.15-.15-.35.15-.36.35-.14zm2 0l.15.35-.14.35-.35.15-.35-.15-.14-.35.15-.36.36-.14zm2 0l.15.35-.14.35-.35.15-.35-.15-.14-.35.15-.36.36-.14zm2 0l.15.35-.14.35-.35.15-.35-.15-.14-.35.15-.36.36-.14zm2 0l.15.35-.14.35-.35.15-.34-.15-.15-.35.16-.36.35-.14zm2 0l.15.35-.13.35-.36.15-.34-.15-.15-.35.16-.36.35-.14zm2 0l.16.35-.15.35-.35.15-.36-.15-.14-.35.14-.36.36-.14zm2 0l.16.35-.15.35-.35.15-.36-.15-.14-.35.14-.36.36-.14zm2 0l.16.35-.15.35-.35.15-.36-.15-.14-.35.14-.36.36-.14zm2 0l.16.35-.15.35-.35.15-.35-.15-.15-.35.15-.36.35-.14zm2.02 0l.14.35-.14.35-.36.15-.35-.15-.15-.35.15-.36.35-.14zm2 0l.14.35-.14.35-.36.15-.35-.15-.15-.35.15-.36.35-.14zm2 0l.15.35-.15.35-.35.15-.36-.15-.14-.35.14-.36.36-.14zm2 0l.15.35-.15.35-.35.15-.36-.15-.14-.35.14-.36.36-.14zm2 0l.15.35-.15.35-.35.15-.35-.15-.15-.35.15-.36.35-.14zm2 0l.15.35-.14.35-.37.15-.35-.15-.15-.35.15-.36.35-.14zm2 0l.15.35-.14.35-.37.15-.35-.15-.15-.35.15-.36.35-.14zm2 0l.16.35-.15.35-.36.15-.36-.15-.14-.35.14-.36.36-.14zm2 0l.16.35-.15.35-.36.15-.36-.15-.14-.35.14-.36.36-.14zm2 0l.16.35-.15.35-.36.15-.35-.15-.16-.35.15-.36.34-.14zm2.02 0l.14.35-.14.35-.36.15-.35-.15-.16-.35.15-.36.34-.14zm2 0l.14.35-.14.35-.36.15-.35-.15-.16-.35.15-.36.34-.14zm2 0l.15.35-.15.35-.35.15-.36-.15-.15-.35.14-.36.35-.14zm2 0l.15.35-.15.35-.35.15-.36-.15-.15-.35.14-.36.35-.14zm2 0l.15.35-.15.35-.35.15-.35-.15-.15-.35.15-.36.35-.14zm2 0l.15.35-.14.35-.35.15-.35-.15-.15-.35.15-.36.35-.14zm2 0l.15.35-.14.35-.35.15-.35-.15-.15-.35.15-.36.35-.14zm2 0l.16.35-.15.35-.34.15-.36-.15-.14-.35.14-.36.36-.14zm2 0l.16.35-.15.35-.34.15-.36-.15-.14-.35.14-.36.36-.14zm2 0l.16.35-.15.35-.34.15-.35-.15-.14-.35.15-.36.36-.14zm2 0l.16.35-.14.35-.36.15-.35-.15-.14-.35.15-.36.36-.14zm2.02 0l.14.35-.14.35-.36.15-.35-.15-.14-.35.15-.36.36-.14zm2 0l.14.35-.14.35-.36.15-.35-.15-.13-.35.14-.36.37-.14zm2 0l.15.35-.15.35-.35.15-.36-.15-.13-.35.14-.36.37-.14zm2 0l.15.35-.15.35-.35.15-.35-.15-.15-.35.15-.36.35-.14zm2 0l.15.35-.14.35-.36.15-.35-.15-.15-.35.15-.36.35-.14zm2 0l.15.35-.14.35-.36.15-.35-.15-.15-.35.15-.36.35-.14zm2 0l.15.35-.14.35-.36.15-.35-.15-.14-.35.14-.36.36-.14zm2 0l.16.35-.15.35-.35.15-.36-.15-.14-.35.14-.36.36-.14zm2 0l.16.35-.15.35-.35.15-.35-.15-.15-.35.15-.36.35-.14zm2 0l.16.35-.14.35-.36.15-.35-.15-.15-.35.15-.36.35-.14zm2.02 0l.14.35-.14.35-.36.15-.35-.15-.15-.35.15-.36.35-.14zm2 0l.14.35-.14.35-.36.15-.35-.15-.14-.35.13-.36.36-.14zm2 0l.15.35-.16.35-.35.15-.37-.15-.14-.35.13-.36.36-.14zm2 0l.15.35-.16.35-.35.15-.37-.15-.14-.35.13-.36.36-.14zm2 0l.15.35-.16.35-.35.15-.36-.15-.15-.35.14-.36.35-.14zm2 0l.15.35-.15.35-.36.15-.36-.15-.15-.35.14-.36.35-.14zm2 0l.15.35-.15.35-.36.15-.36-.15-.14-.35.14-.36.36-.14zm2 0l.16.35-.15.35-.35.15-.36-.15-.14-.35.14-.36.36-.14zm2 0l.16.35-.15.35-.35.15-.36-.15-.14-.35.14-.36.36-.14zm2 0l.16.35-.15.35-.35.15-.35-.15-.15-.35.15-.36.35-.14zm2.02 0l.14.35-.14.35-.36.15-.35-.15-.15-.35.15-.36.35-.14zm2 0l.14.35-.14.35-.36.15-.35-.15-.14-.35.15-.36.36-.14zm2 0l.15.35-.14.35-.35.15-.35-.15-.14-.35.15-.36.36-.14zm2 0l.15.35-.14.35-.35.15-.34-.15-.15-.35.16-.36.35-.14zm2 0l.15.35-.14.35-.35.15-.34-.15-.15-.35.16-.36.35-.14zm2 0l.15.35-.13.35-.36.15-.34-.15-.15-.35.16-.36.35-.14zm2 0l.15.35-.13.35-.36.15-.34-.15-.15-.35.16-.36.35-.14zm2 0l.16.35-.15.35-.35.15-.36-.15-.14-.35.14-.36.36-.14zm2 0l.16.35-.15.35-.35.15-.35-.15-.15-.35.15-.36.35-.14zm2 0l.16.35-.15.35-.35.15-.35-.15-.15-.35.15-.36.35-.14zm2.02 0l.14.35-.14.35-.36.15-.35-.15-.15-.35.15-.36.35-.14zm2 0l.14.35-.14.35-.36.15-.35-.15-.15-.35.15-.36.35-.14zm2 0l.15.35-.15.35-.35.15-.36-.15-.14-.35.14-.36.36-.14zm2 0l.15.35-.15.35-.35.15-.36-.15-.14-.35.14-.36.36-.14zm2 0l.15.35-.15.35-.35.15-.35-.15-.15-.35.15-.36.35-.14zm2 0l.15.35-.14.35-.37.15-.35-.15-.15-.35.15-.36.35-.14zm2 0l.15.35-.14.35-.37.15-.35-.15-.15-.35.15-.36.35-.14zm2 0l.16.35-.15.35-.36.15-.36-.15-.14-.35.14-.36.36-.14zm2 0l.16.35-.15.35-.36.15-.36-.15-.14-.35.14-.36.36-.14zm2 0l.16.35-.15.35-.36.15-.35-.15-.16-.35.15-.36.34-.14zm2 0l.16.35-.15.35-.36.15-.35-.15-.16-.35.15-.36.34-.14zm2.02 0l.14.35-.14.35-.36.15-.35-.15-.16-.35.15-.36.34-.14zm2 0l.15.35-.15.35-.35.15-.36-.15-.15-.35.14-.36.35-.14zm2 0l.15.35-.15.35-.35.15-.36-.15-.15-.35.14-.36.35-.14zm2 0l.15.35-.15.35-.35.15-.35-.15-.15-.35.15-.36.35-.14zm2 0l.15.35-.14.35-.35.15-.35-.15-.15-.35.15-.36.35-.14zm2 0l.15.35-.14.35-.35.15-.35-.15-.15-.35.15-.36.35-.14zm2 0l.16.35-.15.35-.34.15-.36-.15-.14-.35.14-.36.36-.14zm2 0l.16.35-.15.35-.34.15-.36-.15-.14-.35.14-.36.36-.14zm2 0l.16.35-.15.35-.34.15-.35-.15-.14-.35.15-.36.36-.14zm2.02 0l.14.35-.14.35-.36.15-.35-.15-.14-.35.15-.36.36-.14zm2 0l.14.35-.14.35-.36.15-.35-.15-.14-.35.15-.36.36-.14zm2 0l.14.35-.14.35-.36.15-.35-.15-.13-.35.14-.36.37-.14zm2 0l.15.35-.15.35-.35.15-.36-.15-.13-.35.14-.36.37-.14zm2 0l.15.35-.15.35-.35.15-.35-.15-.15-.35.15-.36.35-.14zm2 0l.15.35-.14.35-.36.15-.35-.15-.15-.35.15-.36.35-.14zm2 0l.15.35-.14.35-.36.15-.35-.15-.15-.35.15-.36.35-.14zm2 0l.15.35-.14.35-.36.15-.35-.15-.14-.35.14-.36.36-.14zm2 0l.16.35-.15.35-.35.15-.36-.15-.14-.35.14-.36.36-.14zm2 0l.16.35-.15.35-.35.15-.35-.15-.15-.35.15-.36.35-.14zm2.02 0l.14.35-.14.35-.36.15-.35-.15-.15-.35.15-.36.35-.14zm2 0l.14.35-.14.35-.36.15-.35-.15-.15-.35.15-.36.35-.14zm2 0l.14.35-.14.35-.36.15-.35-.15-.14-.35.13-.36.36-.14zm2 0l.15.35-.16.35-.35.15-.37-.15-.14-.35.13-.36.36-.14zm2 0l.15.35-.16.35-.35.15-.37-.15-.14-.35.13-.36.36-.14zm-1045.15 0l.13.35-.14.35-.37.15-.35-.15-.15-.35.15-.36.35-.14zm2 0l.14.35-.15.35-.36.15-.36-.15-.14-.35.14-.36.36-.14zm2 0l.14.35-.15.35-.36.15-.36-.15-.14-.35.14-.36.36-.14zm2 0l.14.35-.15.35-.36.15-.35-.15-.16-.35.15-.36.34-.14zm2 0l.14.35-.14.35-.36.15-.35-.15-.16-.35.15-.36.34-.14zm2 0l.15.35-.15.35-.35.15-.36-.15-.15-.35.14-.36.35-.14zm2 0l.15.35-.15.35-.35.15-.36-.15-.15-.35.14-.36.35-.14zm2 0l.15.35-.15.35-.35.15-.35-.15-.15-.35.15-.36.35-.14zm12.02 0l.15.35-.15.35-.35.15-.36-.15v-.7l.37-.15zm2 0l.15.35-.15.35-.35.15-.36-.15-.13-.35.14-.36.37-.14zm2 0l.15.35-.15.35-.35.15-.35-.15-.15-.35.15-.36.35-.14zm2 0l.15.35-.14.35-.36.15-.35-.15-.15-.35.15-.36.35-.14zm2 0l.16.35-.15.35-.35.15-.36-.15-.14-.35.14-.36.36-.14zm2 0l.16.35-.15.35-.35.15-.35-.15-.15-.35.15-.36.35-.14zm2 0l.16.35-.15.35-.35.15-.35-.15-.15-.35.15-.36.35-.14zm2.02 0l.14.35-.14.35-.36.15-.35-.15-.15-.35.15-.36.35-.14zm2 0l.14.35-.14.35-.36.15-.35-.15-.15-.35.15-.36.35-.14zm2 0l.15.35-.16.35-.35.15-.37-.15-.14-.35.13-.36.36-.14zm2 0l.15.35-.16.35-.35.15-.36-.15-.15-.35.14-.36.35-.14zm2 0l.15.35-.15.35-.36.15-.36-.15-.15-.35.14-.36.35-.14zm2 0l.16.35-.15.35-.35.15-.36-.15-.14-.35.14-.36.36-.14zm2 0l.16.35-.15.35-.35.15-.36-.15-.14-.35.14-.36.36-.14zm2 0l.16.35-.15.35-.35.15-.35-.15-.15-.35.15-.36.35-.14zm2.02 0l.14.35-.14.35-.36.15-.35-.15-.15-.35.15-.36.35-.14zm2 0l.15.35-.14.35-.35.15-.35-.15-.14-.35.15-.36.36-.14zm2 0l.15.35-.14.35-.35.15-.35-.15-.14-.35.15-.36.36-.14zm2 0l.15.35-.14.35-.35.15-.34-.15-.15-.35.16-.36.35-.14zm2 0l.15.35-.13.35-.36.15-.34-.15-.15-.35.16-.36.35-.14zm2 0l.16.35-.15.35-.36.15-.34-.15-.14-.35.14-.36.36-.14zm2 0l.16.35-.15.35-.35.15-.36-.15-.14-.35.14-.36.36-.14zm2 0l.16.35-.15.35-.35.15-.35-.15-.15-.35.15-.36.35-.14zm2.02 0l.14.35-.14.35-.36.15-.35-.15-.15-.35.15-.36.35-.14zm2 0l.14.35-.14.35-.36.15-.35-.15-.14-.35.14-.36.36-.14zm2 0l.15.35-.15.35-.35.15-.36-.15-.14-.35.14-.36.36-.14zm2 0l.15.35-.15.35-.35.15-.35-.15-.15-.35.15-.36.35-.14zm2 0l.15.35-.14.35-.37.15-.35-.15-.15-.35.15-.36.35-.14zm2 0l.15.35-.14.35-.37.15-.35-.15-.14-.35.14-.36.36-.14zm2 0l.16.35-.15.35-.36.15-.36-.15-.14-.35.14-.36.36-.14zm2 0l.16.35-.15.35-.36.15-.35-.15-.16-.35.15-.36.34-.14zm2.02 0l.14.35-.14.35-.36.15-.35-.15-.16-.35.15-.36.34-.14zm2 0l.14.35-.14.35-.36.15-.35-.15-.16-.35.15-.36.34-.14zm2 0l.15.35-.15.35-.35.15-.36-.15-.15-.35.14-.36.35-.14zm2 0l.15.35-.15.35-.35.15-.35-.15-.15-.35.15-.36.35-.14zm2 0l.15.35-.14.35-.35.15-.35-.15-.15-.35.15-.36.35-.14zm2 0l.15.35-.14.35-.35.15-.35-.15-.15-.35.15-.36.35-.14zm2 0l.16.35-.15.35-.34.15-.36-.15-.14-.35.14-.36.36-.14zm2 0l.16.35-.15.35-.34.15-.35-.15-.14-.35.15-.36.36-.14zm2.02 0l.14.35-.14.35-.36.15-.35-.15-.14-.35.15-.36.36-.14zm2 0l.15.35-.15.35-.35.15-.36-.15-.13-.35.14-.36.37-.14zm2 0l.15.35-.15.35-.35.15-.36-.15-.13-.35.14-.36.37-.14zm2 0l.15.35-.15.35-.35.15-.35-.15-.15-.35.15-.36.35-.14zm2 0l.15.35-.14.35-.36.15-.35-.15-.15-.35.15-.36.35-.14zm2 0l.15.35-.14.35-.36.15-.35-.15-.15-.35.15-.36.35-.14zm2 0l.16.35-.15.35-.35.15-.36-.15-.14-.35.14-.36.36-.14zm2 0l.16.35-.15.35-.35.15-.35-.15-.15-.35.15-.36.35-.14zm2 0l.16.35-.14.35-.36.15-.35-.15-.15-.35.15-.36.35-.14zm2.02 0l.14.35-.14.35-.36.15-.35-.15-.15-.35.15-.36.35-.14zm2 0l.15.35-.16.35-.35.15-.37-.15-.14-.35.13-.36.36-.14zm2 0l.15.35-.16.35-.35.15-.36-.15-.15-.35.14-.36.35-.14zm2 0l.15.35-.16.35-.35.15-.36-.15-.15-.35.14-.36.35-.14zm2 0l.15.35-.15.35-.36.15-.36-.15-.15-.35.14-.36.35-.14zm2 0l.16.35-.15.35-.35.15-.36-.15-.14-.35.14-.36.36-.14zm2 0l.16.35-.15.35-.35.15-.35-.15-.15-.35.15-.36.35-.14zm2 0l.16.35-.15.35-.35.15-.35-.15-.15-.35.15-.36.35-.14zm2.02 0l.14.35-.14.35-.36.15-.35-.15-.15-.35.15-.36.35-.14zm2 0l.15.35-.14.35-.35.15-.35-.15-.14-.35.15-.36.36-.14zm2 0l.15.35-.14.35-.35.15-.34-.15-.15-.35.16-.36.35-.14zm2 0l.15.35-.13.35-.36.15-.34-.15-.15-.35.16-.36.35-.14zm2 0l.15.35-.13.35-.36.15-.34-.15-.15-.35.16-.36.35-.14zm2 0l.16.35-.15.35-.35.15-.36-.15-.14-.35.14-.36.36-.14zm2 0l.16.35-.15.35-.35.15-.36-.15-.14-.35.14-.36.36-.14zm2.02 0l.14.35-.14.35-.36.15-.35-.15-.15-.35.15-.36.35-.14zm2 0l.14.35-.14.35-.36.15-.35-.15-.15-.35.15-.36.35-.14zm2 0l.15.35-.15.35-.35.15-.36-.15-.14-.35.14-.36.36-.14zm2 0l.15.35-.15.35-.35.15-.36-.15-.14-.35.14-.36.36-.14zm2 0l.15.35-.14.35-.37.15-.35-.15-.15-.35.15-.36.35-.14zm2 0l.15.35-.14.35-.37.15-.35-.15-.15-.35.15-.36.35-.14zm2 0l.16.35-.15.35-.36.15-.36-.15-.14-.35.14-.36.36-.14zm2 0l.16.35-.15.35-.36.15-.36-.15-.14-.35.14-.36.36-.14zm2 0l.16.35-.14.35-.36.15-.35-.15-.16-.35.15-.36.34-.14zm2.02 0l.14.35-.14.35-.36.15-.35-.15-.16-.35.15-.36.34-.14zm2 0l.15.35-.15.35-.35.15-.36-.15-.15-.35.14-.36.35-.14zm2 0l.15.35-.15.35-.35.15-.36-.15-.15-.35.14-.36.35-.14zm2 0l.15.35-.14.35-.35.15-.35-.15-.15-.35.15-.36.35-.14zm2 0l.15.35-.14.35-.35.15-.35-.15-.15-.35.15-.36.35-.14zm2 0l.16.35-.15.35-.34.15-.36-.15-.14-.35.14-.36.36-.14zm2 0l.16.35-.15.35-.34.15-.36-.15-.14-.35.14-.36.36-.14zm2 0l.16.35-.14.35-.36.15-.35-.15-.14-.35.15-.36.36-.14zm2.02 0l.14.35-.14.35-.36.15-.35-.15-.14-.35.15-.36.36-.14zm2 0l.15.35-.15.35-.35.15-.36-.15-.13-.35.14-.36.37-.14zm2 0l.15.35-.15.35-.35.15-.36-.15-.13-.35.14-.36.37-.14zm2 0l.15.35-.15.35-.35.15-.35-.15-.15-.35.15-.36.35-.14zm2 0l.15.35-.14.35-.36.15-.35-.15-.15-.35.15-.36.35-.14zm2 0l.16.35-.15.35-.35.15-.36-.15-.14-.35.14-.36.36-.14zm2 0l.16.35-.15.35-.35.15-.36-.15-.14-.35.14-.36.36-.14zm2 0l.16.35-.15.35-.35.15-.35-.15-.15-.35.15-.36.35-.14zm2.02 0l.14.35-.14.35-.36.15-.35-.15-.15-.35.15-.36.35-.14zm2 0l.15.35-.16.35-.35.15-.37-.15-.14-.35.13-.36.36-.14zm2 0l.15.35-.16.35-.35.15-.37-.15-.14-.35.13-.36.36-.14zm2 0l.15.35-.16.35-.35.15-.36-.15-.15-.35.14-.36.35-.14zm2 0l.15.35-.15.35-.36.15-.36-.15-.15-.35.14-.36.35-.14zm2 0l.16.35-.15.35-.35.15-.36-.15-.14-.35.14-.36.36-.14zm2 0l.16.35-.15.35-.35.15-.36-.15-.14-.35.14-.36.36-.14zm2 0l.16.35-.15.35-.35.15-.35-.15-.15-.35.15-.36.35-.14zm2.02 0l.14.35-.14.35-.36.15-.35-.15-.15-.35.15-.36.35-.14zm2 0l.14.35-.14.35-.36.15-.35-.15-.15-.35.15-.36.35-.14zm2 0l.15.35-.14.35-.35.15-.35-.15-.14-.35.15-.36.36-.14zm2 0l.15.35-.14.35-.35.15-.34-.15-.15-.35.16-.36.35-.14zm2 0l.15.35-.13.35-.36.15-.34-.15-.15-.35.16-.36.35-.14zm2 0l.16.35-.15.35-.35.15-.36-.15-.14-.35.14-.36.36-.14zm2 0l.16.35-.15.35-.35.15-.36-.15-.14-.35.14-.36.36-.14zm2 0l.16.35-.15.35-.35.15-.35-.15-.15-.35.15-.36.35-.14zm2.02 0l.14.35-.14.35-.36.15-.35-.15-.15-.35.15-.36.35-.14zm2 0l.15.35-.15.35-.35.15-.36-.15-.14-.35.14-.36.36-.14zm2 0l.15.35-.15.35-.35.15-.36-.15-.14-.35.14-.36.36-.14zm2 0l.15.35-.15.35-.35.15-.35-.15-.15-.35.15-.36.35-.14zm2 0l.15.35-.14.35-.37.15-.35-.15-.15-.35.15-.36.35-.14zm2 0l.16.35-.15.35-.37.15-.35-.15-.14-.35.14-.36.36-.14zm2 0l.16.35-.15.35-.36.15-.36-.15-.14-.35.14-.36.36-.14zm2 0l.16.35-.15.35-.36.15-.35-.15-.16-.35.15-.36.34-.14zm2.02 0l.14.35-.14.35-.36.15-.35-.15-.16-.35.15-.36.34-.14zm2 0l.14.35-.14.35-.36.15-.35-.15-.15-.35.14-.36.35-.14zm2 0l.15.35-.15.35-.35.15-.36-.15-.15-.35.14-.36.35-.14zm2 0l.15.35-.15.35-.35.15-.35-.15-.15-.35.15-.36.35-.14zm2 0l.15.35-.14.35-.35.15-.35-.15-.15-.35.15-.36.35-.14zm2 0l.15.35-.14.35-.35.15-.35-.15-.14-.35.14-.36.36-.14zm2 0l.16.35-.15.35-.34.15-.36-.15-.14-.35.14-.36.36-.14zm2 0l.16.35-.15.35-.34.15-.35-.15-.14-.35.15-.36.36-.14zm2.02 0l.14.35-.14.35-.36.15-.35-.15-.14-.35.15-.36.36-.14zm2 0l.14.35-.14.35-.36.15-.35-.15-.13-.35.14-.36.37-.14zm2 0l.15.35-.15.35-.35.15-.36-.15-.13-.35.14-.36.37-.14zm2 0l.15.35-.15.35-.35.15-.35-.15-.15-.35.15-.36.35-.14zm2 0l.15.35-.14.35-.36.15-.35-.15-.15-.35.15-.36.35-.14zm2 0l.15.35-.14.35-.36.15-.35-.15-.14-.35.14-.36.36-.14zm2 0l.16.35-.15.35-.35.15-.36-.15-.14-.35.14-.36.36-.14zm2 0l.16.35-.15.35-.35.15-.35-.15-.15-.35.15-.36.35-.14zm2.02 0l.14.35-.14.35-.36.15-.35-.15-.15-.35.15-.36.35-.14zm2 0l.14.35-.14.35-.36.15-.35-.15-.14-.35.13-.36.36-.14zm2 0l.15.35-.16.35-.35.15-.37-.15-.14-.35.13-.36.36-.14zm2 0l.15.35-.16.35-.35.15-.36-.15-.15-.35.14-.36.35-.14zm2 0l.15.35-.15.35-.36.15-.36-.15-.15-.35.14-.36.35-.14zm2 0l.15.35-.15.35-.36.15-.36-.15-.15-.35.14-.36.35-.14zm2 0l.16.35-.15.35-.35.15-.36-.15-.14-.35.14-.36.36-.14zm2 0l.16.35-.15.35-.35.15-.35-.15-.15-.35.15-.36.35-.14zm2 0l.16.35-.14.35-.36.15-.35-.15-.15-.35.15-.36.35-.14zm2.02 0l.14.35-.14.35-.36.15-.35-.15-.15-.35.15-.36.35-.14zm2 0l.15.35-.14.35-.35.15-.35-.15-.14-.35.15-.36.36-.14zm2 0l.15.35-.14.35-.35.15-.34-.15-.15-.35.16-.36.35-.14zm2 0l.15.35-.13.35-.36.15-.34-.15-.15-.35.16-.36.35-.14zm2 0l.15.35-.13.35-.36.15-.34-.15-.15-.35.16-.36.35-.14zm2 0l.16.35-.15.35-.35.15-.36-.15-.14-.35.14-.36.36-.14zm2 0l.16.35-.15.35-.35.15-.35-.15-.15-.35.15-.36.35-.14zm2 0l.16.35-.14.35-.36.15-.35-.15-.15-.35.15-.36.35-.14zm2.02 0l.14.35-.14.35-.36.15-.35-.15-.15-.35.15-.36.35-.14zm2 0l.15.35-.15.35-.35.15-.36-.15-.14-.35.14-.36.36-.14zm2 0l.15.35-.15.35-.35.15-.35-.15-.15-.35.15-.36.35-.14zm2 0l.15.35-.14.35-.37.15-.35-.15-.15-.35.15-.36.35-.14zm2 0l.15.35-.14.35-.37.15-.35-.15-.15-.35.15-.36.35-.14zm2 0l.16.35-.15.35-.36.15-.36-.15-.14-.35.14-.36.36-.14zm2 0l.16.35-.15.35-.36.15-.36-.15-.14-.35.14-.36.36-.14zm2 0l.16.35-.15.35-.36.15-.35-.15-.16-.35.15-.36.34-.14zm2.02 0l.14.35-.14.35-.36.15-.35-.15-.16-.35.15-.36.34-.14zm2 0l.15.35-.15.35-.35.15-.36-.15-.15-.35.14-.36.35-.14zm2 0l.15.35-.15.35-.35.15-.36-.15-.15-.35.14-.36.35-.14zm2 0l.15.35-.15.35-.35.15-.35-.15-.15-.35.15-.36.35-.14zm2 0l.15.35-.14.35-.35.15-.35-.15-.15-.35.15-.36.35-.14zm2 0l.16.35-.15.35-.34.15-.36-.15-.14-.35.14-.36.36-.14zm2 0l.16.35-.15.35-.34.15-.36-.15-.14-.35.14-.36.36-.14zm2.02 0l.14.35-.14.35-.36.15-.35-.15-.14-.35.15-.36.36-.14zm2 0l.14.35-.14.35-.36.15-.35-.15-.14-.35.15-.36.36-.14zm2 0l.15.35-.15.35-.35.15-.36-.15-.13-.35.14-.36.37-.14zm2 0l.15.35-.15.35-.35.15-.36-.15-.13-.35.14-.36.37-.14zm2 0l.15.35-.14.35-.36.15-.35-.15-.15-.35.15-.36.35-.14zm2 0l.15.35-.14.35-.36.15-.35-.15-.15-.35.15-.36.35-.14zm2 0l.16.35-.15.35-.35.15-.36-.15-.14-.35.14-.36.36-.14zm2 0l.16.35-.15.35-.35.15-.36-.15-.14-.35.14-.36.36-.14zm2 0l.16.35-.15.35-.35.15-.35-.15-.15-.35.15-.36.35-.14zm2.02 0l.14.35-.14.35-.36.15-.35-.15-.15-.35.15-.36.35-.14zm2 0l.15.35-.16.35-.35.15-.37-.15-.14-.35.13-.36.36-.14zm2 0l.15.35-.16.35-.35.15-.37-.15-.14-.35.13-.36.36-.14zm2 0l.15.35-.16.35-.35.15-.36-.15-.15-.35.14-.36.35-.14zm2 0l.15.35-.15.35-.36.15-.36-.15-.15-.35.14-.36.35-.14zm2 0l.16.35-.15.35-.35.15-.36-.15-.14-.35.14-.36.36-.14zm2 0l.16.35-.15.35-.35.15-.36-.15-.14-.35.14-.36.36-.14zm2 0l.16.35-.15.35-.35.15-.35-.15-.15-.35.15-.36.35-.14zm2.02 0l.14.35-.14.35-.36.15-.35-.15-.15-.35.15-.36.35-.14zm2 0l.15.35-.14.35-.35.15-.35-.15-.14-.35.15-.36.36-.14zm2 0l.15.35-.14.35-.35.15-.35-.15-.14-.35.15-.36.36-.14zm-369.15.7l-.15-.35.15-.36z" fill="#3a414a"/><path d="M1445.7 548.2h-.52v-1h.5z" fill="#3a414a"/><path d="M1445.7 548.22h-.55v-1.05h.56zm-.5-1v.95h.46v-.95z" stroke="#3a414a" stroke-width=".05" fill="#3a414a"/><path d="M399.53 552.33l-14.26-4.63 14.26-4.64z" fill="#3a414a"/><path d="M400.03 553.02l-16.38-5.32 16.38-5.33zm-13.14-5.32l12.13 3.94v-7.9z" stroke="#3a414a" stroke-width=".05" fill="#3a414a"/><path d="M1429.66 553.27l.14.36-.14.35-.36.15-.35-.15-.14-.35.15-.36.36-.14zm-2 0l.14.36-.14.35-.36.15-.35-.15-.15-.35.15-.36.35-.14zm-2 0l.14.36-.15.35-.35.15-.35-.15-.15-.35.15-.36.35-.14zm-2 0l.14.36-.15.35-.35.15-.36-.15-.14-.35.14-.36.36-.14zm-2 0l.13.36-.15.35-.36.15-.36-.15-.14-.35.14-.36.36-.14zm-2 0l.13.36-.15.35-.36.15-.36-.15-.15-.35.14-.36.35-.14zm-2.02 0l.15.36-.16.35-.35.15-.36-.15-.15-.35.14-.36.35-.14zm-2 0l.15.36-.16.35-.35.15-.37-.15-.14-.35.13-.36.36-.14zm-2 0l.14.36-.14.35-.36.15-.35-.15-.14-.35.13-.36.36-.14zm-2 0l.14.36-.14.35-.36.15-.35-.15-.15-.35.15-.36.35-.14zm-2 0l.14.36-.15.35-.35.15-.35-.15-.15-.35.15-.36.35-.14zm-2 0l.14.36-.15.35-.35.15-.36-.15-.14-.35.14-.36.36-.14zm-2 0l.13.36-.14.35-.36.15-.35-.15-.14-.35.14-.36.36-.14zm-2 0l.13.36-.14.35-.36.15-.35-.15-.15-.35.15-.36.35-.14zm-2.02 0l.15.36-.15.35-.35.15-.35-.15-.15-.35.15-.36.35-.14zm-2 0l.15.36-.15.35-.35.15-.36-.15-.13-.35.14-.36.37-.14zm-2 0l.15.36-.15.35-.35.15-.36-.15-.13-.35.14-.36.37-.14zm-2 0l.14.36-.14.35-.36.15-.35-.15-.14-.35.15-.36.36-.14zm-2 0l.14.36-.15.35-.34.15-.35-.15-.14-.35.15-.36.36-.14zm-2 0l.14.36-.15.35-.34.15-.36-.15-.14-.35.14-.36.36-.14zm-2 0l.14.36-.15.35-.34.15-.36-.15-.14-.35.14-.36.36-.14zm-2 0l.13.36-.14.35-.35.15-.35-.15-.15-.35.15-.36.35-.14zm-2.02 0l.15.36-.15.35-.35.15-.35-.15-.15-.35.15-.36.35-.14zm-2 0l.15.36-.15.35-.35.15-.36-.15-.15-.35.14-.36.35-.14zm-2 0l.15.36-.15.35-.35.15-.36-.15-.15-.35.14-.36.35-.14zm-2 0l.14.36-.14.35-.36.15-.35-.15-.16-.35.15-.36.34-.14zm-2 0l.14.36-.15.35-.36.15-.35-.15-.16-.35.15-.36.34-.14zm-2 0l.14.36-.15.35-.36.15-.36-.15-.14-.35.14-.36.36-.14zm-2 0l.14.36-.15.35-.36.15-.36-.15-.14-.35.14-.36.36-.14zm-2 0l.13.36-.14.35-.37.15-.35-.15-.15-.35.15-.36.35-.14zm-2.02 0l.15.36-.15.35-.35.15-.35-.15-.15-.35.15-.36.35-.14zm-2 0l.15.36-.15.35-.35.15-.36-.15-.14-.35.14-.36.36-.14zm-2 0l.15.36-.15.35-.35.15-.36-.15-.14-.35.14-.36.36-.14zm-2 0l.14.36-.14.35-.36.15-.35-.15-.15-.35.15-.36.35-.14zm-2 0l.14.36-.14.35-.36.15-.35-.15-.15-.35.15-.36.35-.14zm-2 0l.14.36-.15.35-.35.15-.36-.15-.14-.35.14-.36.36-.14zm-2 0l.14.36-.15.35-.35.15-.36-.15-.14-.35.14-.36.36-.14zm-2 0l.13.36-.13.35-.36.15-.34-.15-.15-.35.16-.36.35-.14zm-2 0l.13.36-.13.35-.36.15-.34-.15-.15-.35.16-.36.35-.14zm-2.02 0l.15.36-.14.35-.35.15-.35-.15-.14-.35.15-.36.36-.14zm-2 0l.15.36-.14.35-.35.15-.35-.15-.14-.35.15-.36.36-.14zm-2 0l.14.36-.14.35-.36.15-.35-.15-.15-.35.15-.36.35-.14zm-2 0l.14.36-.14.35-.36.15-.35-.15-.15-.35.15-.36.35-.14zm-2 0l.14.36-.15.35-.35.15-.36-.15-.14-.35.14-.36.36-.14zm-2 0l.14.36-.15.35-.35.15-.36-.15-.14-.35.14-.36.36-.14zm-2 0l.13.36-.15.35-.36.15-.36-.15-.15-.35.14-.36.35-.14zm-2 0l.13.36-.15.35-.36.15-.36-.15-.15-.35.14-.36.35-.14zm-2.02 0l.15.36-.16.35-.35.15-.37-.15-.14-.35.13-.36.36-.14zm-2 0l.15.36-.16.35-.35.15-.37-.15-.14-.35.13-.36.36-.14zm-2 0l.14.36-.14.35-.36.15-.35-.15-.15-.35.15-.36.35-.14zm-2 0l.14.36-.14.35-.36.15-.35-.15-.15-.35.15-.36.35-.14zm-2 0l.14.36-.15.35-.35.15-.36-.15-.14-.35.14-.36.36-.14zm-2 0l.14.36-.15.35-.35.15-.36-.15-.14-.35.14-.36.36-.14zm-2 0l.13.36-.14.35-.36.15-.35-.15-.15-.35.15-.36.35-.14zm-2 0l.13.36-.14.35-.36.15-.35-.15-.15-.35.15-.36.35-.14zm-2.02 0l.15.36-.15.35-.35.15-.35-.15-.15-.35.15-.36.35-.14zm-2 0l.15.36-.15.35-.35.15-.36-.15-.13-.35.14-.36.37-.14zm-2 0l.14.36-.14.35-.36.15-.35-.15-.14-.35.15-.36.36-.14zm-2 0l.14.36-.14.35-.36.15-.35-.15-.14-.35.15-.36.36-.14zm-2 0l.14.36-.15.35-.34.15-.35-.15-.14-.35.15-.36.36-.14zm-2 0l.14.36-.15.35-.34.15-.36-.15-.14-.35.14-.36.36-.14zm-2 0l.13.36-.14.35-.35.15-.35-.15-.15-.35.15-.36.35-.14zm-2 0l.13.36-.14.35-.35.15-.35-.15-.15-.35.15-.36.35-.14zm-2.02 0l.15.36-.15.35-.35.15-.35-.15-.15-.35.15-.36.35-.14zm-2 0l.15.36-.15.35-.35.15-.36-.15-.15-.35.14-.36.35-.14zm-2 0l.14.36-.14.35-.36.15-.35-.15-.16-.35.15-.36.34-.14zm-2 0l.14.36-.15.35-.36.15-.35-.15-.16-.35.15-.36.34-.14zm-2 0l.14.36-.15.35-.36.15-.35-.15-.16-.35.15-.36.34-.14zm-2 0l.14.36-.15.35-.36.15-.36-.15-.14-.35.14-.36.36-.14zm-2 0l.13.36-.14.35-.37.15-.35-.15-.15-.35.15-.36.35-.14zm-2 0l.13.36-.14.35-.37.15-.35-.15-.15-.35.15-.36.35-.14zm-2.02 0l.15.36-.15.35-.35.15-.35-.15-.15-.35.15-.36.35-.14zm-2 0l.15.36-.15.35-.35.15-.36-.15-.14-.35.14-.36.36-.14zm-2 0l.14.36-.14.35-.36.15-.35-.15-.14-.35.14-.36.36-.14zm-2 0l.14.36-.14.35-.36.15-.35-.15-.15-.35.15-.36.35-.14zm-2 0l.14.36-.15.35-.35.15-.35-.15-.15-.35.15-.36.35-.14zm-2 0l.14.36-.15.35-.35.15-.36-.15-.14-.35.14-.36.36-.14zm-2 0l.13.36-.13.35-.36.15-.34-.15-.14-.35.14-.36.36-.14zm-2 0l.13.36-.13.35-.36.15-.34-.15-.15-.35.16-.36.35-.14zm-2.02 0l.15.36-.14.35-.35.15-.34-.15-.15-.35.16-.36.35-.14zm-2 0l.15.36-.14.35-.35.15-.35-.15-.14-.35.15-.36.36-.14zm-2 0l.14.36-.14.35-.36.15-.35-.15-.14-.35.15-.36.36-.14zm-2 0l.14.36-.14.35-.36.15-.35-.15-.15-.35.15-.36.35-.14zm-2 0l.14.36-.15.35-.35.15-.35-.15-.15-.35.15-.36.35-.14zm-2 0l.14.36-.15.35-.35.15-.36-.15-.14-.35.14-.36.36-.14zm-2 0l.13.36-.15.35-.36.15-.36-.15-.14-.35.14-.36.36-.14zm-2 0l.13.36-.15.35-.36.15-.36-.15-.15-.35.14-.36.35-.14zm-2.02 0l.15.36-.16.35-.35.15-.36-.15-.15-.35.14-.36.35-.14zm-2 0l.15.36-.16.35-.35.15-.37-.15-.14-.35.13-.36.36-.14zm-2 0l.14.36-.14.35-.36.15-.35-.15-.14-.35.13-.36.36-.14zm-2 0l.14.36-.14.35-.36.15-.35-.15-.15-.35.15-.36.35-.14zm-2 0l.14.36-.15.35-.35.15-.35-.15-.15-.35.15-.36.35-.14zm-2 0l.14.36-.15.35-.35.15-.36-.15-.14-.35.14-.36.36-.14zm-2 0l.13.36-.14.35-.36.15-.35-.15-.14-.35.14-.36.36-.14zm-2 0l.13.36-.14.35-.36.15-.35-.15-.15-.35.15-.36.35-.14zm-2.02 0l.15.36-.15.35-.35.15-.35-.15-.15-.35.15-.36.35-.14zm-2 0l.15.36-.15.35-.35.15-.36-.15-.13-.35.14-.36.37-.14zm-2 0l.14.36-.14.35-.36.15-.35-.15-.13-.35.14-.36.37-.14zm-2 0l.14.36-.14.35-.36.15-.35-.15-.14-.35.15-.36.36-.14zm-2 0l.14.36-.15.35-.34.15-.35-.15-.14-.35.15-.36.36-.14zm-2 0l.14.36-.15.35-.34.15-.36-.15-.14-.35.14-.36.36-.14zm-2 0l.13.36-.14.35-.35.15-.35-.15-.14-.35.14-.36.36-.14zm-2 0l.13.36-.14.35-.35.15-.35-.15-.15-.35.15-.36.35-.14zm-2.02 0l.15.36-.15.35-.35.15-.35-.15-.15-.35.15-.36.35-.14zm-2 0l.15.36-.15.35-.35.15-.36-.15-.15-.35.14-.36.35-.14zm-2 0l.14.36-.14.35-.36.15-.35-.15-.15-.35.14-.36.35-.14zm-2 0l.14.36-.14.35-.36.15-.35-.15-.16-.35.15-.36.34-.14zm-2 0l.14.36-.15.35-.36.15-.35-.15-.16-.35.15-.36.34-.14zm-2 0l.14.36-.15.35-.36.15-.36-.15-.14-.35.14-.36.36-.14zm-2 0l.14.36-.15.35-.36.15-.36-.15-.14-.35.14-.36.36-.14zm-2 0l.13.36-.14.35-.37.15-.35-.15-.15-.35.15-.36.35-.14zm-2.02 0l.15.36-.15.35-.35.15-.35-.15-.15-.35.15-.36.35-.14zm-2 0l.15.36-.15.35-.35.15-.36-.15-.14-.35.14-.36.36-.14zm-2 0l.15.36-.15.35-.35.15-.36-.15-.14-.35.14-.36.36-.14zm-2 0l.14.36-.14.35-.36.15-.35-.15-.15-.35.15-.36.35-.14zm-2 0l.14.36-.15.35-.35.15-.35-.15-.15-.35.15-.36.35-.14zm-2 0l.14.36-.15.35-.35.15-.36-.15-.14-.35.14-.36.36-.14zm-2 0l.14.36-.15.35-.35.15-.36-.15-.14-.35.14-.36.36-.14zm-2 0l.13.36-.13.35-.36.15-.34-.15-.15-.35.16-.36.35-.14zm-2.02 0l.15.36-.14.35-.35.15-.34-.15-.15-.35.16-.36.35-.14zm-2 0l.15.36-.14.35-.35.15-.35-.15-.14-.35.15-.36.36-.14zm-2 0l.15.36-.14.35-.35.15-.35-.15-.14-.35.15-.36.36-.14zm-2 0l.14.36-.14.35-.36.15-.35-.15-.15-.35.15-.36.35-.14zm-2 0l.14.36-.14.35-.36.15-.35-.15-.15-.35.15-.36.35-.14zm-2 0l.14.36-.15.35-.35.15-.36-.15-.14-.35.14-.36.36-.14zm-2 0l.14.36-.15.35-.35.15-.36-.15-.14-.35.14-.36.36-.14zm-2 0l.13.36-.15.35-.36.15-.36-.15-.15-.35.14-.36.35-.14zm-2 0l.13.36-.15.35-.36.15-.36-.15-.15-.35.14-.36.35-.14zm-2.02 0l.15.36-.16.35-.35.15-.37-.15-.14-.35.13-.36.36-.14zm-2 0l.15.36-.16.35-.35.15-.37-.15-.14-.35.13-.36.36-.14zm-2 0l.14.36-.14.35-.36.15-.35-.15-.15-.35.15-.36.35-.14zm-2 0l.14.36-.14.35-.36.15-.35-.15-.15-.35.15-.36.35-.14zm-2 0l.14.36-.15.35-.35.15-.36-.15-.14-.35.14-.36.36-.14zm-2 0l.14.36-.15.35-.35.15-.36-.15-.14-.35.14-.36.36-.14zm-2 0l.13.36-.14.35-.36.15-.35-.15-.15-.35.15-.36.35-.14zm-2 0l.13.36-.14.35-.36.15-.35-.15-.15-.35.15-.36.35-.14zm-2.02 0l.15.36-.15.35-.35.15-.36-.15-.13-.35.14-.36.37-.14zm-2 0l.15.36-.15.35-.35.15-.36-.15-.13-.35.14-.36.37-.14zm-2 0l.14.36-.14.35-.36.15-.35-.15-.14-.35.15-.36.36-.14zm-2 0l.14.36-.14.35-.36.15-.35-.15-.14-.35.15-.36.36-.14zm-2 0l.14.36-.15.35-.34.15-.36-.15-.14-.35.14-.36.36-.14zm-2 0l.14.36-.15.35-.34.15-.36-.15-.14-.35.14-.36.36-.14zm-2 0l.13.36-.14.35-.35.15-.35-.15-.15-.35.15-.36.35-.14zm-2 0l.13.36-.14.35-.35.15-.35-.15-.15-.35.15-.36.35-.14zm-2.02 0l.15.36-.15.35-.35.15-.35-.15-.15-.35.15-.36.35-.14zm-2 0l.15.36-.15.35-.35.15-.36-.15-.15-.35.14-.36.35-.14zm-2 0l.14.36-.14.35-.36.15-.35-.15-.16-.35.15-.36.34-.14zm-2 0l.14.36-.14.35-.36.15-.35-.15-.16-.35.15-.36.34-.14zm-2 0l.14.36-.15.35-.36.15-.35-.15-.16-.35.15-.36.34-.14zm-2 0l.14.36-.15.35-.36.15-.36-.15-.14-.35.14-.36.36-.14zm-2 0l.13.36-.14.35-.37.15-.35-.15-.15-.35.15-.36.35-.14zm-2 0l.13.36-.14.35-.37.15-.35-.15-.15-.35.15-.36.35-.14zm-2.02 0l.15.36-.15.35-.35.15-.35-.15-.15-.35.15-.36.35-.14zm-2 0l.15.36-.15.35-.35.15-.36-.15-.14-.35.14-.36.36-.14zm-2 0l.14.36-.14.35-.36.15-.35-.15-.15-.35.15-.36.35-.14zm-2 0l.14.36-.14.35-.36.15-.35-.15-.15-.35.15-.36.35-.14zm-2 0l.14.36-.15.35-.35.15-.35-.15-.15-.35.15-.36.35-.14zm-2 0l.14.36-.15.35-.35.15-.36-.15-.14-.35.14-.36.36-.14zm-2 0l.13.36-.13.35-.36.15-.34-.15-.15-.35.16-.36.35-.14zm-2 0l.13.36-.13.35-.36.15-.34-.15-.15-.35.16-.36.35-.14zm-2.02 0l.15.36-.14.35-.35.15-.34-.15-.15-.35.16-.36.35-.14zm-2 0l.15.36-.14.35-.35.15-.35-.15-.14-.35.15-.36.36-.14zm-2 0l.14.36-.14.35-.36.15-.35-.15-.14-.35.15-.36.36-.14zm-2 0l.14.36-.14.35-.36.15-.35-.15-.15-.35.15-.36.35-.14zm-2 0l.14.36-.15.35-.35.15-.35-.15-.15-.35.15-.36.35-.14zm-2 0l.14.36-.15.35-.35.15-.36-.15-.14-.35.14-.36.36-.14zm-2 0l.13.36-.15.35-.36.15-.36-.15-.14-.35.14-.36.36-.14zm-2 0l.13.36-.15.35-.36.15-.36-.15-.15-.35.14-.36.35-.14zm-2.02 0l.15.36-.16.35-.35.15-.36-.15-.15-.35.14-.36.35-.14zm-2 0l.15.36-.16.35-.35.15-.37-.15-.14-.35.13-.36.36-.14zm-2 0l.14.36-.14.35-.36.15-.35-.15-.14-.35.13-.36.36-.14zm-2 0l.14.36-.14.35-.36.15-.35-.15-.15-.35.15-.36.35-.14zm-2 0l.14.36-.15.35-.35.15-.35-.15-.15-.35.15-.36.35-.14zm-2 0l.14.36-.15.35-.35.15-.36-.15-.14-.35.14-.36.36-.14zm-2 0l.13.36-.14.35-.36.15-.35-.15-.14-.35.14-.36.36-.14zm-2 0l.13.36-.14.35-.36.15-.35-.15-.15-.35.15-.36.35-.14zm-2.02 0l.15.36-.15.35-.35.15-.35-.15-.15-.35.15-.36.35-.14zm-2 0l.15.36-.15.35-.35.15-.36-.15-.13-.35.14-.36.37-.14zm-2 0l.14.36-.14.35-.36.15-.35-.15-.13-.35.14-.36.37-.14zm-2 0l.14.36-.14.35-.36.15-.35-.15-.14-.35.15-.36.36-.14zm-2 0l.14.36-.15.35-.34.15-.35-.15-.14-.35.15-.36.36-.14zm-2 0l.14.36-.15.35-.34.15-.36-.15-.14-.35.14-.36.36-.14zm-2 0l.13.36-.14.35-.35.15-.35-.15-.14-.35.14-.36.36-.14zm-2 0l.13.36-.14.35-.35.15-.35-.15-.15-.35.15-.36.35-.14zm-2.02 0l.15.36-.15.35-.35.15-.35-.15-.15-.35.15-.36.35-.14zm-2 0l.15.36-.15.35-.35.15-.36-.15-.15-.35.14-.36.35-.14zm-2 0l.14.36-.14.35-.36.15-.35-.15-.15-.35.14-.36.35-.14zm-2 0l.14.36-.14.35-.36.15-.35-.15-.16-.35.15-.36.34-.14zm-2 0l.14.36-.15.35-.36.15-.35-.15-.16-.35.15-.36.34-.14zm-2 0l.14.36-.15.35-.36.15-.36-.15-.14-.35.14-.36.36-.14zm-2 0l.13.36-.14.35-.37.15-.35-.15-.14-.35.14-.36.36-.14zm-2 0l.13.36-.14.35-.37.15-.35-.15-.15-.35.15-.36.35-.14zm-2.02 0l.15.36-.15.35-.35.15-.35-.15-.15-.35.15-.36.35-.14zm-260.3 0l.16.36-.14.35-.36.15-.35-.15-.16-.35.15-.36.34-.14zm-2 0l.16.36-.15.35-.36.15-.35-.15-.16-.35.15-.36.34-.14zm-2 0l.16.36-.15.35-.36.15-.36-.15-.14-.35.14-.36.36-.14zm-2 0l.16.36-.15.35-.36.15-.36-.15-.14-.35.14-.36.36-.14zm-2 0l.15.36-.14.35-.37.15-.35-.15-.15-.35.15-.36.35-.14zm-2 0l.15.36-.14.35-.37.15-.35-.15-.15-.35.15-.36.35-.14zm-2 0l.15.36-.15.35-.35.15-.35-.15-.15-.35.15-.36.35-.14zm-2 0l.15.36-.15.35-.35.15-.36-.15-.14-.35.14-.36.36-.14zm-2 0l.15.36-.15.35-.35.15-.36-.15-.14-.35.14-.36.36-.14zm-2 0l.14.36-.14.35-.36.15-.35-.15-.15-.35.15-.36.35-.14zm-2 0l.14.36-.14.35-.36.15-.35-.15-.15-.35.15-.36.35-.14zm-2 0l.14.36-.15.35-.35.15-.35-.15-.15-.35.15-.36.35-.14zm-2 0l.14.36-.15.35-.35.15-.36-.15-.14-.35.14-.36.36-.14zm-2 0l.14.36-.15.35-.35.15-.36-.15-.14-.35.14-.36.36-.14zm-2 0l.13.36-.13.35-.36.15-.34-.15-.15-.35.16-.36.35-.14zm-2 0l.13.36-.13.35-.36.15-.34-.15-.15-.35.16-.36.35-.14zm-2.02 0l.15.36-.14.35-.35.15-.34-.15-.15-.35.16-.36.35-.14zm-2 0l.15.36-.14.35-.35.15-.35-.15-.14-.35.15-.36.36-.14zm-2 0l.15.36-.14.35-.35.15-.35-.15-.14-.35.15-.36.36-.14zm-2 0l.14.36-.14.35-.36.15-.35-.15-.15-.35.15-.36.35-.14zm-2 0l.14.36-.14.35-.36.15-.35-.15-.15-.35.15-.36.35-.14zm-2 0l.14.36-.15.35-.35.15-.35-.15-.15-.35.15-.36.35-.14zm-2 0l.14.36-.15.35-.35.15-.36-.15-.14-.35.14-.36.36-.14zm-2 0l.14.36-.15.35-.35.15-.36-.15-.14-.35.14-.36.36-.14zm-2 0l.13.36-.15.35-.36.15-.36-.15-.15-.35.14-.36.35-.14zm-2 0l.13.36-.15.35-.36.15-.36-.15-.15-.35.14-.36.35-.14zm-2.02 0l.15.36-.16.35-.35.15-.36-.15-.15-.35.14-.36.35-.14zm-2 0l.15.36-.16.35-.35.15-.37-.15-.14-.35.13-.36.36-.14zm-2 0l.15.36-.16.35-.35.15-.37-.15-.14-.35.13-.36.36-.14zm-2 0l.14.36-.14.35-.36.15-.35-.15-.14-.35.13-.36.36-.14zm-2 0l.14.36-.14.35-.36.15-.35-.15-.15-.35.15-.36.35-.14zm-2 0l.14.36-.15.35-.35.15-.35-.15-.15-.35.15-.36.35-.14zm-2 0l.14.36-.15.35-.35.15-.36-.15-.14-.35.14-.36.36-.14zm-2 0l.14.36-.15.35-.35.15-.36-.15-.14-.35.14-.36.36-.14zm-2 0l.13.36-.14.35-.36.15-.35-.15-.14-.35.14-.36.36-.14zm-2 0l.13.36-.14.35-.36.15-.35-.15-.15-.35.15-.36.35-.14zm-2.02 0l.15.36-.15.35-.35.15-.35-.15-.15-.35.15-.36.35-.14zm-2 0l.15.36-.15.35-.35.15-.36-.15-.13-.35.14-.36.37-.14zm-2 0l.15.36-.15.35-.35.15-.36-.15-.13-.35.14-.36.37-.14zm-2 0l.14.36-.14.35-.36.15-.35-.15-.13-.35.14-.36.37-.14zm-2 0l.14.36-.14.35-.36.15-.35-.15-.14-.35.15-.36.36-.14zm-2 0l.14.36-.14.35-.36.15-.35-.15-.14-.35.15-.36.36-.14zm-2 0l.14.36-.15.35-.34.15-.35-.15-.14-.35.15-.36.36-.14zm-2 0l.14.36-.15.35-.34.15-.36-.15-.14-.35.14-.36.36-.14zm-2 0l.13.36-.14.35-.34.15-.36-.15-.14-.35.14-.36.36-.14zm-2 0l.13.36-.14.35-.35.15-.35-.15-.15-.35.15-.36.35-.14zm-2.02 0l.15.36-.15.35-.35.15-.35-.15-.15-.35.15-.36.35-.14zm-2 0l.15.36-.15.35-.35.15-.35-.15-.15-.35.15-.36.35-.14zm-2 0l.15.36-.15.35-.35.15-.36-.15-.15-.35.14-.36.35-.14zm-2 0l.15.36-.15.35-.35.15-.36-.15-.15-.35.14-.36.35-.14zm-2 0l.14.36-.14.35-.36.15-.35-.15-.16-.35.15-.36.34-.14zm-2 0l.14.36-.15.35-.36.15-.35-.15-.16-.35.15-.36.34-.14zm-2 0l.14.36-.15.35-.36.15-.35-.15-.16-.35.15-.36.34-.14zm-2 0l.14.36-.15.35-.36.15-.36-.15-.14-.35.14-.36.36-.14zm-2 0l.14.36-.15.35-.36.15-.36-.15-.14-.35.14-.36.36-.14zm-2 0l.13.36-.14.35-.37.15-.35-.15-.15-.35.15-.36.35-.14zm-2 0l.13.36-.14.35-.37.15-.35-.15-.15-.35.15-.36.35-.14zm-2.02 0l.15.36-.15.35-.35.15-.35-.15-.15-.35.15-.36.35-.14zm-2 0l.15.36-.15.35-.35.15-.36-.15-.14-.35.14-.36.36-.14zm-2 0l.15.36-.15.35-.35.15-.36-.15-.14-.35.14-.36.36-.14zm-2 0l.14.36-.14.35-.36.15-.35-.15-.15-.35.15-.36.35-.14zm-2 0l.14.36-.14.35-.36.15-.35-.15-.15-.35.15-.36.35-.14zm-2 0l.14.36-.15.35-.35.15-.35-.15-.15-.35.15-.36.35-.14zm-2 0l.14.36-.15.35-.35.15-.35-.15-.15-.35.15-.36.35-.14zm-2 0l.14.36-.15.35-.35.15-.36-.15-.14-.35.14-.36.36-.14zm-2 0l.13.36-.13.35-.36.15-.34-.15-.15-.35.16-.36.35-.14zm-2 0l.13.36-.13.35-.36.15-.34-.15-.15-.35.16-.36.35-.14zm-2.02 0l.15.36-.14.35-.35.15-.34-.15-.15-.35.16-.36.35-.14zm-2 0l.15.36-.14.35-.35.15-.35-.15-.14-.35.15-.36.36-.14zm-2 0l.15.36-.14.35-.35.15-.35-.15-.14-.35.15-.36.36-.14zm-2 0l.14.36-.14.35-.36.15-.35-.15-.15-.35.15-.36.35-.14zm-2 0l.14.36-.14.35-.36.15-.35-.15-.15-.35.15-.36.35-.14zm-2 0l.14.36-.15.35-.35.15-.35-.15-.15-.35.15-.36.35-.14zm-2 0l.14.36-.15.35-.35.15-.36-.15-.14-.35.14-.36.36-.14zm-2 0l.14.36-.15.35-.35.15-.36-.15-.14-.35.14-.36.36-.14zm-2 0l.13.36-.15.35-.36.15-.36-.15-.14-.35.14-.36.36-.14zm-2 0l.13.36-.15.35-.36.15-.36-.15-.15-.35.14-.36.35-.14zm-2.02 0l.15.36-.16.35-.35.15-.36-.15-.15-.35.14-.36.35-.14zm-2 0l.15.36-.16.35-.35.15-.37-.15-.14-.35.13-.36.36-.14zm-2 0l.15.36-.16.35-.35.15-.37-.15-.14-.35.13-.36.36-.14zm-2 0l.14.36-.14.35-.36.15-.35-.15-.14-.35.13-.36.36-.14zm-2 0l.14.36-.14.35-.36.15-.35-.15-.15-.35.15-.36.35-.14zm-2 0l.14.36-.15.35-.35.15-.35-.15-.15-.35.15-.36.35-.14zm-2 0l.14.36-.15.35-.35.15-.36-.15-.14-.35.14-.36.36-.14zm-2 0l.14.36-.15.35-.35.15-.36-.15-.14-.35.14-.36.36-.14zm-2 0l.13.36-.14.35-.36.15-.35-.15-.14-.35.14-.36.36-.14zm-2 0l.13.36-.14.35-.36.15-.35-.15-.15-.35.15-.36.35-.14zm-2 0l.13.36-.14.35-.36.15-.35-.15-.15-.35.15-.36.35-.14zm-2.02 0l.15.36-.15.35-.35.15-.35-.15-.15-.35.15-.36.35-.14zm-2 0l.15.36-.15.35-.35.15-.36-.15-.13-.35.14-.36.37-.14zm-2 0l.14.36-.14.35-.36.15-.35-.15-.13-.35.14-.36.37-.14zm-2 0l.14.36-.14.35-.36.15-.35-.15-.14-.35.15-.36.36-.14zm-2 0l.14.36-.14.35-.36.15-.35-.15-.14-.35.15-.36.36-.14zm-2 0l.14.36-.15.35-.34.15-.35-.15-.14-.35.15-.36.36-.14zm-2 0l.14.36-.15.35-.34.15-.36-.15-.14-.35.14-.36.36-.14zm-2 0l.13.36-.14.35-.35.15-.35-.15-.14-.35.14-.36.36-.14zm-2 0l.13.36-.14.35-.35.15-.35-.15-.15-.35.15-.36.35-.14zm-2 0l.13.36-.14.35-.35.15-.35-.15-.15-.35.15-.36.35-.14zm-2.02 0l.15.36-.15.35-.35.15-.35-.15-.15-.35.15-.36.35-.14zm-2 0l.15.36-.15.35-.35.15-.36-.15-.15-.35.14-.36.35-.14zm-2 0l.15.36-.15.35-.35.15-.36-.15-.15-.35.14-.36.35-.14zm-2 0l.14.36-.14.35-.36.15-.35-.15-.16-.35.15-.36.34-.14zm-2 0l.14.36-.14.35-.36.15-.35-.15-.16-.35.15-.36.34-.14zm-2 0l.14.36-.15.35-.36.15-.35-.15-.16-.35.15-.36.34-.14zm-2 0l.14.36-.15.35-.36.15-.36-.15-.14-.35.14-.36.36-.14zm-2 0l.14.36-.15.35-.36.15-.36-.15-.14-.35.14-.36.36-.14zm-2 0l.13.36-.14.35-.37.15-.35-.15-.15-.35.15-.36.35-.14zm-2.02 0l.15.36-.15.35-.35.15-.35-.15-.15-.35.15-.36.35-.14zm-2 0l.15.36-.15.35-.35.15-.35-.15-.15-.35.15-.36.35-.14zm-2 0l.15.36-.15.35-.35.15-.36-.15-.14-.35.14-.36.36-.14zm-2 0l.15.36-.15.35-.35.15-.36-.15-.14-.35.14-.36.36-.14zm-2 0l.14.36-.14.35-.36.15-.35-.15-.15-.35.15-.36.35-.14zm-2 0l.14.36-.14.35-.36.15-.35-.15-.15-.35.15-.36.35-.14zm-2 0l.14.36-.15.35-.35.15-.35-.15-.15-.35.15-.36.35-.14zm-2 0l.14.36-.15.35-.35.15-.36-.15-.14-.35.14-.36.36-.14zm-2 0l.14.36-.15.35-.35.15-.36-.15-.14-.35.14-.36.36-.14zm-2 0l.13.36-.13.35-.36.15-.34-.15-.15-.35.16-.36.35-.14zm-2 0l.13.36-.13.35-.36.15-.34-.15-.15-.35.16-.36.35-.14zm-2.02 0l.15.36-.14.35-.35.15-.34-.15-.15-.35.16-.36.35-.14zm-2 0l.15.36-.14.35-.35.15-.34-.15-.15-.35.16-.36.35-.14zm-2 0l.15.36-.14.35-.35.15-.35-.15-.14-.35.15-.36.36-.14zm-2 0l.14.36-.14.35-.36.15-.35-.15-.15-.35.15-.36.35-.14zm-2 0l.14.36-.14.35-.36.15-.35-.15-.15-.35.15-.36.35-.14zm-2 0l.14.36-.15.35-.35.15-.35-.15-.15-.35.15-.36.35-.14zm-2 0l.14.36-.15.35-.35.15-.35-.15-.15-.35.15-.36.35-.14zm-2 0l.14.36-.15.35-.35.15-.36-.15-.14-.35.14-.36.36-.14zm-2 0l.13.36-.15.35-.36.15-.36-.15-.15-.35.14-.36.35-.14zm-2 0l.13.36-.15.35-.36.15-.36-.15-.15-.35.14-.36.35-.14zm-2.02 0l.15.36-.16.35-.35.15-.36-.15-.15-.35.14-.36.35-.14zm-2 0l.15.36-.16.35-.35.15-.37-.15-.14-.35.13-.36.36-.14zm-2 0l.15.36-.16.35-.35.15-.37-.15-.14-.35.13-.36.36-.14zm-2 0l.14.36-.14.35-.36.15-.35-.15-.14-.35.13-.36.36-.14zm-2 0l.14.36-.14.35-.36.15-.35-.15-.15-.35.15-.36.35-.14zm-2 0l.14.36-.15.35-.35.15-.35-.15-.15-.35.15-.36.35-.14zm-2 0l.14.36-.15.35-.35.15-.36-.15-.14-.35.14-.36.36-.14zm-2 0l.14.36-.15.35-.35.15-.36-.15-.14-.35.14-.36.36-.14zm-2 0l.13.36-.14.35-.36.15-.35-.15-.15-.35.15-.36.35-.14zm-2 0l.13.36-.14.35-.36.15-.35-.15-.15-.35.15-.36.35-.14zm-2 0l.13.36-.14.35-.36.15-.35-.15-.15-.35.15-.36.35-.14zm-2.02 0l.15.36-.15.35-.35.15-.35-.15-.15-.35.15-.36.35-.14zm-2 0l.15.36-.15.35-.35.15-.36-.15-.13-.35.14-.36.37-.14zm-2 0l.14.36-.14.35-.36.15-.35-.15-.13-.35.14-.36.37-.14zm-2 0l.14.36-.14.35-.36.15-.35-.15-.14-.35.15-.36.36-.14zm-2 0l.14.36-.14.35-.36.15-.35-.15-.14-.35.15-.36.36-.14zm-2 0l.14.36-.15.35-.34.15-.35-.15-.14-.35.15-.36.36-.14zm-2 0l.14.36-.15.35-.34.15-.36-.15-.14-.35.14-.36.36-.14zm-2 0l.13.36-.14.35-.35.15-.35-.15-.14-.35.14-.36.36-.14zm-2 0l.13.36-.14.35-.35.15-.35-.15-.15-.35.15-.36.35-.14zm-2 0l.13.36-.14.35-.35.15-.35-.15-.15-.35.15-.36.35-.14zm-2.02 0l.15.36-.15.35-.35.15-.35-.15-.15-.35.15-.36.35-.14zm-2 0l.15.36-.15.35-.35.15-.36-.15-.15-.35.14-.36.35-.14zm-2 0l.15.36-.15.35-.35.15-.36-.15-.15-.35.14-.36.35-.14zm-2 0l.14.36-.14.35-.36.15-.35-.15-.16-.35.15-.36.34-.14zm-2 0l.14.36-.14.35-.36.15-.35-.15-.16-.35.15-.36.34-.14zm-2 0l.14.36-.15.35-.36.15-.35-.15-.16-.35.15-.36.34-.14zm-2 0l.14.36-.15.35-.36.15-.36-.15-.14-.35.14-.36.36-.14zm-2 0l.14.36-.15.35-.36.15-.36-.15-.14-.35.14-.36.36-.14zm-2 0l.13.36-.14.35-.37.15-.35-.15-.15-.35.15-.36.35-.14zm-2 0l.13.36-.14.35-.37.15-.35-.15-.15-.35.15-.36.35-.14zm-2.02 0l.15.36-.15.35-.35.15-.35-.15-.15-.35.15-.36.35-.14zm-2 0l.15.36-.15.35-.35.15-.36-.15-.14-.35.14-.36.36-.14zm-2 0l.15.36-.15.35-.35.15-.36-.15-.14-.35.14-.36.36-.14zm-2 0l.14.36-.14.35-.36.15-.35-.15-.15-.35.15-.36.35-.14zm-2 0l.14.36-.14.35-.36.15-.35-.15-.15-.35.15-.36.35-.14zm-2 0l.14.36-.15.35-.35.15-.35-.15-.15-.35.15-.36.35-.14zm-2 0l.14.36-.15.35-.35.15-.36-.15-.14-.35.14-.36.36-.14zm-2 0l.14.36-.15.35-.35.15-.36-.15-.14-.35.14-.36.36-.14zm-2 0l.13.36-.13.35-.36.15-.34-.15-.15-.35.16-.36.35-.14zm-2 0l.13.36-.13.35-.36.15-.34-.15-.15-.35.16-.36.35-.14zm-2.02 0l.15.36-.14.35-.35.15-.34-.15-.15-.35.16-.36.35-.14zm-2 0l.15.36-.14.35-.35.15-.34-.15-.15-.35.16-.36.35-.14zm-2 0l.15.36-.14.35-.35.15-.35-.15-.14-.35.15-.36.36-.14zm-2 0l.14.36-.14.35-.36.15-.35-.15-.15-.35.15-.36.35-.14zm-2 0l.14.36-.14.35-.36.15-.35-.15-.15-.35.15-.36.35-.14zm-2 0l.14.36-.15.35-.35.15-.35-.15-.15-.35.15-.36.35-.14zm-2 0l.14.36-.15.35-.35.15-.35-.15-.15-.35.15-.36.35-.14zm-2 0l.14.36-.15.35-.35.15-.36-.15-.14-.35.14-.36.36-.14zm-2 0l.13.36-.15.35-.36.15-.36-.15-.14-.35.14-.36.36-.14zm-2 0l.13.36-.15.35-.36.15-.36-.15-.15-.35.14-.36.35-.14zm-2.02 0l.15.36-.16.35-.35.15-.36-.15-.13-.3v-.1l.14-.3.35-.15zm-12 0l.14.36-.15.35-.35.15-.35-.15-.15-.35.15-.36.35-.14zm-2 0l.14.36-.15.35-.35.15-.36-.15-.14-.35.14-.36.36-.14zm-2 0l.13.36-.14.35-.35.15-.36-.15-.14-.35.14-.36.36-.14zm-2 0l.13.36-.14.35-.36.15-.35-.15-.15-.35.15-.36.35-.14zm-2.02 0l.15.36-.15.35-.35.15-.35-.15-.15-.35.15-.36.35-.14zm-2 0l.15.36-.15.35-.35.15-.35-.15-.15-.35.15-.36.35-.14zm-2 0l.15.36-.15.35-.35.15-.36-.15-.13-.35.14-.36.37-.14zm-2 0l.15.36-.15.35-.35.15-.36-.15-.13-.35.14-.36.37-.14zm-2 0l.14.36-.14.35-.36.15-.35-.15-.14-.35.15-.36.36-.14zm-2 0l.14.36-.15.35-.34.15-.35-.15-.14-.35.15-.36.36-.14zm-2 0l.14.36-.15.35-.34.15-.35-.15-.14-.35.15-.36.36-.14zm-2 0l.14.36-.15.35-.34.15-.36-.15-.14-.35.14-.36.36-.14zm-2 0l.14.36-.15.35-.34.15-.36-.15-.14-.35.14-.36.36-.14zm-2 0l.13.36-.14.35-.35.15-.35-.15-.15-.35.15-.36.35-.14zm-2 0l.13.36-.14.35-.35.15-.35-.15-.15-.35.15-.36.35-.14zm-2.02 0l.15.36-.15.35-.35.15-.35-.15-.15-.35.15-.36.35-.14zm31.2.43l-.02-.07.03-.08z" fill="#3a414a"/><path d="M384.16 554.13h-.5v-1h.5z" stroke="#3a414a" stroke-width=".05" fill="#3a414a"/><path d="M1444.07 553.63l-14.26 4.63V549z" fill="#3a414a"/><path d="M1445.7 553.63l-16.4 5.32V548.3zm-15.4 3.95l12.15-3.95-12.14-3.95z" stroke="#3a414a" stroke-width=".05" fill="#3a414a"/><use xlink:href="#t" transform="matrix(1,0,0,1,785.7442872334741,542.8269581049417) translate(0.0049999999999954525 14.4)"/><use xlink:href="#u" transform="matrix(1,0,0,1,785.7442872334741,542.8269581049417) translate(104.955 14.4)"/><use xlink:href="#v" transform="matrix(1,0,0,1,415.71132962889766,542.8264581049417) translate(0.004999999999999893 14.4)"/><path d="M1487.2 570.67h27.5a12 12 0 0 1 12 12v36.78a12 12 0 0 1-12 12h-11.63" stroke="#3a414a" fill="none"/><path d="M1487.2 571.17h-.5v-1h.5z" stroke="#3a414a" stroke-width=".05" fill="#3a414a"/><path d="M1488.3 631.45l14.27-4.64v9.28z" stroke="#3a414a" fill="#3a414a"/><use xlink:href="#q" transform="matrix(1,0,0,1,1534.6887999627716,579.4600046346733) translate(5.2549999999999955 14.4)"/><use xlink:href="#r" transform="matrix(1,0,0,1,1534.6887999627716,579.4600046346733) translate(87.155 14.4)"/><use xlink:href="#w" transform="matrix(1,0,0,1,1534.6887999627716,579.4600046346733) translate(102.655 14.4)"/><use xlink:href="#x" transform="matrix(1,0,0,1,1534.6887999627716,579.4600046346733) translate(0.0049999999999954525 36)"/><use xlink:href="#y" transform="matrix(1,0,0,1,1534.6887999627716,579.4600046346733) translate(56.955 36)"/><use xlink:href="#z" transform="matrix(1,0,0,1,1534.6887999627716,579.4600046346733) translate(99.85499999999999 36)"/><path d="M747.53 633.43h-10.88v-1h10.88zm261.57 0H780.48v-1h228.62zm409.9 0h-262.15v-1H1419zm26.2 0H1429v-1h16.2z" stroke="#3a414a" stroke-width=".05" fill="#3a414a"/><path d="M1445.7 633.43h-.52v-1h.5z" fill="#3a414a"/><path d="M1445.7 633.45h-.55v-1.05h.56zm-.5-1v.95h.46v-.95z" stroke="#3a414a" stroke-width=".05" fill="#3a414a"/><path d="M736.15 637.56l-14.27-4.63 14.27-4.64z" fill="#3a414a"/><path d="M736.65 638.25l-16.4-5.32 16.4-5.32zm-13.15-5.32l12.15 3.95v-7.9z" stroke="#3a414a" stroke-width=".05" fill="#3a414a"/><use xlink:href="#m" transform="matrix(1,0,0,1,1009.0998498666245,622.1288481433122) translate(0.0049999999999954525 14.4)"/><use xlink:href="#A" transform="matrix(1,0,0,1,1009.0998498666245,622.1288481433122) translate(71.855 14.4)"/><use xlink:href="#B" transform="matrix(1,0,0,1,1009.0998498666245,622.1288481433122) translate(108.75500000000001 14.4)"/><use xlink:href="#C" transform="matrix(1,0,0,1,747.526063714228,622.1288786784115) translate(0.004999999999999005 14.4)"/><use xlink:href="#D" transform="matrix(1,0,0,1,1419.0001854607692,622.128847662313) translate(0.004999999999999893 14.4)"/><path d="M971.52 737.93H736.64v-1h234.88zm440.8 0h-217.9v-1h217.9zm32.87 0h-22.87v-1h22.86z" stroke="#3a414a" stroke-width=".05" fill="#3a414a"/><path d="M1445.7 737.93h-.52v-1h.5z" fill="#3a414a"/><path d="M1445.7 737.95h-.55v-1.05h.56zm-.5-1v.95h.46v-.95z" stroke="#3a414a" stroke-width=".05" fill="#3a414a"/><path d="M736.14 742.06l-14.26-4.63 14.26-4.64z" fill="#3a414a"/><path d="M736.64 742.75l-16.38-5.32 16.38-5.32zm-13.14-5.32l12.14 3.95v-7.9z" stroke="#3a414a" stroke-width=".05" fill="#3a414a"/><use xlink:href="#E" transform="matrix(1,0,0,1,971.5248772075543,715.8288143843124) translate(0.0049999999999954525 14.4)"/><use xlink:href="#F" transform="matrix(1,0,0,1,971.5248772075543,715.8288143843124) translate(76.955 14.4)"/><use xlink:href="#G" transform="matrix(1,0,0,1,971.5248772075543,715.8288143843124) translate(139.95499999999998 14.4)"/><use xlink:href="#H" transform="matrix(1,0,0,1,971.5248772075543,715.8288143843124) translate(192.90499999999997 14.4)"/><use xlink:href="#I" transform="matrix(1,0,0,1,971.5248772075543,715.8288143843124) translate(76.00499999999998 36)"/><use xlink:href="#J" transform="matrix(1,0,0,1,971.5248772075543,715.8288143843124) translate(98.95499999999998 36)"/><g><use xlink:href="#K" transform="matrix(1,0,0,1,1412.3335206815627,726.6287752514138) translate(0.004999999999999893 14.4)"/></g><path d="M1080.5 1059.5h-1v-10.2h1zm0-20.4h-1v-20.38h1zm0-30.58h-1v-20.4h1zm0-30.6h-1v-20.38h1zm0-30.58h-1v-20.4h1zm0-30.6h-1v-20.38h1zm0-30.58h-1v-20.4h1zm0-30.6h-1V835.2h1zm0-30.58h-1v-20.4h1zm0-30.6h-1V774h1zm0-30.57h-1v-4.77h1zm0-47.97h-1v-3h1zm0-13.2h-1v-7.76h1zm0-30.6h-1v-20.38h1zm0-49.9h-1v-1.07h1zm0-11.27h-1v-20.4h1zm0-30.6h-1V559.9h1zm0-30.58h-1v-20.4h1zm0-47.15h-1v-3.83h1zm0-14.02h-1v-20.4h1zm0-30.58h-1v-20.4h1zm0-30.6h-1v-20.4h1zm0-30.58h-1v-20.4h1zm0-30.6h-1v-20.38h1zm0-30.58h-1v-10.2h1z" stroke="#333" stroke-width=".05" fill="#333"/><path d="M1080.5 325.38h-1v-.52h1zM1080.5 1060h-1v-.5h1z" stroke="#333" stroke-width=".05" fill="#333"/><path d="M987.4 224.86a8 8 0 0 1 8-8h174.08a8 8 0 0 1 8 8v106a8 8 0 0 1-8 8H995.4a8 8 0 0 1-8-8z" stroke="#000" stroke-opacity="0" fill="#ffaf28"/><g><use xlink:href="#a" transform="matrix(1,0,0,1,995.4004702940763,224.86302210076497) translate(39.179012345679006 56.55555555555555)"/><use xlink:href="#b" transform="matrix(1,0,0,1,995.4004702940763,224.86302210076497) translate(89.40123456790124 56.55555555555555)"/><use xlink:href="#L" transform="matrix(1,0,0,1,995.4004702940763,224.86302210076497) translate(125.94444444444446 56.55555555555555)"/></g><path d="M1060 842.5a8 8 0 0 1 8-8h24a8 8 0 0 1 8 8v124a8 8 0 0 1-8 8h-24a8 8 0 0 1-8-8z" stroke="#f2f2f2" fill="#ced4db"/><path d="M1210.14 868.5H1101v-1h109.14zm219.16 0h-93.26v-1h93.26z" stroke="#3a414a" stroke-width=".05" fill="#3a414a"/><path d="M1101 868.5h-.5v-1h.5z" fill="#3a414a"/><path d="M1101.04 868.52h-.57v-1.04h.57zm-.5-1v.96h.45v-.96z" stroke="#3a414a" stroke-width=".05" fill="#3a414a"/><path d="M1444.07 868l-14.27 4.63v-9.26z" fill="#3a414a"/><path d="M1445.7 868l-16.4 5.32v-10.64zm-15.4 3.95l12.15-3.95-12.15-3.95z" stroke="#3a414a" stroke-width=".05" fill="#3a414a"/><g><use xlink:href="#M" transform="matrix(1,0,0,1,1210.1444332492229,857.2001076796413) translate(0.005000000000002558 14.4)"/><use xlink:href="#N" transform="matrix(1,0,0,1,1210.1444332492229,857.2001076796413) translate(99.95500000000001 14.4)"/></g><path d="M1445.7 946.67c0 .27-.24.5-.5.5-.3 0-.5-.23-.5-.5 0-.28.2-.5.5-.5.26 0 .5.22.5.5zm-2.06 0c0 .27-.23.5-.5.5-.28 0-.5-.23-.5-.5 0-.28.22-.5.5-.5.27 0 .5.22.5.5zm-2.05 0c0 .27-.23.5-.5.5-.3 0-.5-.23-.5-.5 0-.28.2-.5.5-.5.27 0 .5.22.5.5zm-2.06 0c0 .27-.22.5-.5.5s-.5-.23-.5-.5c0-.28.22-.5.5-.5s.5.22.5.5zm-2.05 0c0 .27-.23.5-.5.5-.3 0-.5-.23-.5-.5 0-.28.2-.5.5-.5.27 0 .5.22.5.5zm-2.06 0c0 .27-.23.5-.5.5-.28 0-.5-.23-.5-.5 0-.28.22-.5.5-.5.27 0 .5.22.5.5zm-2.05 0c0 .27-.24.5-.5.5-.3 0-.5-.23-.5-.5 0-.28.2-.5.5-.5.26 0 .5.22.5.5zm-2.06 0c0 .27-.22.5-.5.5s-.5-.23-.5-.5c0-.28.22-.5.5-.5s.5.22.5.5zm-2.05 0c0 .27-.23.5-.5.5-.3 0-.5-.23-.5-.5 0-.28.2-.5.5-.5.27 0 .5.22.5.5zm-2.06 0c0 .27-.22.5-.5.5s-.5-.23-.5-.5c0-.28.22-.5.5-.5s.5.22.5.5zm-2.05 0c0 .27-.24.5-.5.5-.3 0-.5-.23-.5-.5 0-.28.2-.5.5-.5.26 0 .5.22.5.5zm-2 0c0 .27-.23.5-.5.5-.3 0-.5-.23-.5-.5 0-.28.2-.5.5-.5.27 0 .5.22.5.5zm-2 0c0 .27-.23.5-.5.5-.3 0-.5-.23-.5-.5 0-.28.2-.5.5-.5.27 0 .5.22.5.5zm-2 0c0 .27-.23.5-.5.5-.28 0-.5-.23-.5-.5 0-.28.22-.5.5-.5.27 0 .5.22.5.5zm-2 0c0 .27-.23.5-.5.5-.28 0-.5-.23-.5-.5 0-.28.22-.5.5-.5.27 0 .5.22.5.5zm-2 0c0 .27-.23.5-.5.5-.28 0-.5-.23-.5-.5 0-.28.22-.5.5-.5.27 0 .5.22.5.5zm-2 0c0 .27-.23.5-.5.5-.28 0-.5-.23-.5-.5 0-.28.22-.5.5-.5.27 0 .5.22.5.5zm-2 0c0 .27-.23.5-.5.5-.28 0-.5-.23-.5-.5 0-.28.22-.5.5-.5.27 0 .5.22.5.5zm-2 0c0 .27-.23.5-.5.5-.28 0-.5-.23-.5-.5 0-.28.22-.5.5-.5.27 0 .5.22.5.5zm-2 0c0 .27-.22.5-.5.5s-.5-.23-.5-.5c0-.28.22-.5.5-.5s.5.22.5.5zm-2 0c0 .27-.22.5-.5.5s-.5-.23-.5-.5c0-.28.22-.5.5-.5s.5.22.5.5zm-2 0c0 .27-.22.5-.5.5-.27 0-.5-.23-.5-.5 0-.28.23-.5.5-.5.28 0 .5.22.5.5zm-2 0c0 .27-.22.5-.5.5-.27 0-.5-.23-.5-.5 0-.28.23-.5.5-.5.28 0 .5.22.5.5zm-2 0c0 .27-.22.5-.5.5-.27 0-.5-.23-.5-.5 0-.28.23-.5.5-.5.28 0 .5.22.5.5zm-2 0c0 .27-.22.5-.5.5-.27 0-.5-.23-.5-.5 0-.28.23-.5.5-.5.28 0 .5.22.5.5zm-2 0c0 .27-.22.5-.5.5-.27 0-.5-.23-.5-.5 0-.28.23-.5.5-.5.28 0 .5.22.5.5zm-2 0c0 .27-.22.5-.5.5-.27 0-.5-.23-.5-.5 0-.28.23-.5.5-.5.28 0 .5.22.5.5zm-2 0c0 .27-.2.5-.5.5-.27 0-.5-.23-.5-.5 0-.28.23-.5.5-.5.3 0 .5.22.5.5zm-2 0c0 .27-.2.5-.5.5-.26 0-.5-.23-.5-.5 0-.28.24-.5.5-.5.3 0 .5.22.5.5zm-2 0c0 .27-.2.5-.5.5-.26 0-.5-.23-.5-.5 0-.28.24-.5.5-.5.3 0 .5.22.5.5zm-2 0c0 .27-.2.5-.5.5-.26 0-.5-.23-.5-.5 0-.28.24-.5.5-.5.3 0 .5.22.5.5zm-1.98 0c0 .27-.23.5-.5.5-.28 0-.5-.23-.5-.5 0-.28.22-.5.5-.5.27 0 .5.22.5.5zm-2 0c0 .27-.23.5-.5.5-.28 0-.5-.23-.5-.5 0-.28.22-.5.5-.5.27 0 .5.22.5.5zm-2 0c0 .27-.23.5-.5.5-.28 0-.5-.23-.5-.5 0-.28.22-.5.5-.5.27 0 .5.22.5.5zm-2 0c0 .27-.22.5-.5.5s-.5-.23-.5-.5c0-.28.22-.5.5-.5s.5.22.5.5zm-2 0c0 .27-.22.5-.5.5s-.5-.23-.5-.5c0-.28.22-.5.5-.5s.5.22.5.5zm-2 0c0 .27-.22.5-.5.5-.27 0-.5-.23-.5-.5 0-.28.23-.5.5-.5.28 0 .5.22.5.5zm-2 0c0 .27-.22.5-.5.5-.27 0-.5-.23-.5-.5 0-.28.23-.5.5-.5.28 0 .5.22.5.5zm-2 0c0 .27-.22.5-.5.5-.27 0-.5-.23-.5-.5 0-.28.23-.5.5-.5.28 0 .5.22.5.5zm-2 0c0 .27-.22.5-.5.5-.27 0-.5-.23-.5-.5 0-.28.23-.5.5-.5.28 0 .5.22.5.5zm-2 0c0 .27-.22.5-.5.5-.27 0-.5-.23-.5-.5 0-.28.23-.5.5-.5.28 0 .5.22.5.5zm-2 0c0 .27-.22.5-.5.5-.27 0-.5-.23-.5-.5 0-.28.23-.5.5-.5.28 0 .5.22.5.5zm-2 0c0 .27-.2.5-.5.5-.27 0-.5-.23-.5-.5 0-.28.23-.5.5-.5.3 0 .5.22.5.5zm-2 0c0 .27-.2.5-.5.5-.27 0-.5-.23-.5-.5 0-.28.23-.5.5-.5.3 0 .5.22.5.5zm-2 0c0 .27-.2.5-.5.5-.26 0-.5-.23-.5-.5 0-.28.24-.5.5-.5.3 0 .5.22.5.5zm-2 0c0 .27-.2.5-.5.5-.26 0-.5-.23-.5-.5 0-.28.24-.5.5-.5.3 0 .5.22.5.5zm-2 0c0 .27-.2.5-.5.5-.26 0-.5-.23-.5-.5 0-.28.24-.5.5-.5.3 0 .5.22.5.5zm-1.98 0c0 .27-.23.5-.5.5-.28 0-.5-.23-.5-.5 0-.28.22-.5.5-.5.27 0 .5.22.5.5zm-2 0c0 .27-.23.5-.5.5-.28 0-.5-.23-.5-.5 0-.28.22-.5.5-.5.27 0 .5.22.5.5zm-2 0c0 .27-.22.5-.5.5s-.5-.23-.5-.5c0-.28.22-.5.5-.5s.5.22.5.5zm-2 0c0 .27-.22.5-.5.5s-.5-.23-.5-.5c0-.28.22-.5.5-.5s.5.22.5.5zm-2 0c0 .27-.22.5-.5.5s-.5-.23-.5-.5c0-.28.22-.5.5-.5s.5.22.5.5zm-2 0c0 .27-.22.5-.5.5-.27 0-.5-.23-.5-.5 0-.28.23-.5.5-.5.28 0 .5.22.5.5zm-2 0c0 .27-.22.5-.5.5-.27 0-.5-.23-.5-.5 0-.28.23-.5.5-.5.28 0 .5.22.5.5zm-2 0c0 .27-.22.5-.5.5-.27 0-.5-.23-.5-.5 0-.28.23-.5.5-.5.28 0 .5.22.5.5zm-2 0c0 .27-.22.5-.5.5-.27 0-.5-.23-.5-.5 0-.28.23-.5.5-.5.28 0 .5.22.5.5zm-2 0c0 .27-.22.5-.5.5-.27 0-.5-.23-.5-.5 0-.28.23-.5.5-.5.28 0 .5.22.5.5zm-2 0c0 .27-.2.5-.5.5-.27 0-.5-.23-.5-.5 0-.28.23-.5.5-.5.3 0 .5.22.5.5zm-2 0c0 .27-.2.5-.5.5-.27 0-.5-.23-.5-.5 0-.28.23-.5.5-.5.3 0 .5.22.5.5zm-2 0c0 .27-.2.5-.5.5-.27 0-.5-.23-.5-.5 0-.28.23-.5.5-.5.3 0 .5.22.5.5zm-2 0c0 .27-.2.5-.5.5-.26 0-.5-.23-.5-.5 0-.28.24-.5.5-.5.3 0 .5.22.5.5zm-2 0c0 .27-.2.5-.5.5-.26 0-.5-.23-.5-.5 0-.28.24-.5.5-.5.3 0 .5.22.5.5zm-1.98 0c0 .27-.23.5-.5.5-.28 0-.5-.23-.5-.5 0-.28.22-.5.5-.5.27 0 .5.22.5.5zm-2 0c0 .27-.23.5-.5.5-.28 0-.5-.23-.5-.5 0-.28.22-.5.5-.5.27 0 .5.22.5.5zm-2 0c0 .27-.23.5-.5.5-.28 0-.5-.23-.5-.5 0-.28.22-.5.5-.5.27 0 .5.22.5.5zm-2 0c0 .27-.22.5-.5.5s-.5-.23-.5-.5c0-.28.22-.5.5-.5s.5.22.5.5zm-2 0c0 .27-.22.5-.5.5s-.5-.23-.5-.5c0-.28.22-.5.5-.5s.5.22.5.5zm-2 0c0 .27-.22.5-.5.5s-.5-.23-.5-.5c0-.28.22-.5.5-.5s.5.22.5.5zm-2 0c0 .27-.22.5-.5.5-.27 0-.5-.23-.5-.5 0-.28.23-.5.5-.5.28 0 .5.22.5.5zm-2 0c0 .27-.22.5-.5.5-.27 0-.5-.23-.5-.5 0-.28.23-.5.5-.5.28 0 .5.22.5.5zm-2 0c0 .27-.22.5-.5.5-.27 0-.5-.23-.5-.5 0-.28.23-.5.5-.5.28 0 .5.22.5.5zm-2 0c0 .27-.22.5-.5.5-.27 0-.5-.23-.5-.5 0-.28.23-.5.5-.5.28 0 .5.22.5.5zm-2 0c0 .27-.22.5-.5.5-.27 0-.5-.23-.5-.5 0-.28.23-.5.5-.5.28 0 .5.22.5.5zm-2 0c0 .27-.2.5-.5.5-.27 0-.5-.23-.5-.5 0-.28.23-.5.5-.5.3 0 .5.22.5.5zm-2 0c0 .27-.2.5-.5.5-.27 0-.5-.23-.5-.5 0-.28.23-.5.5-.5.3 0 .5.22.5.5zm-2 0c0 .27-.2.5-.5.5-.27 0-.5-.23-.5-.5 0-.28.23-.5.5-.5.3 0 .5.22.5.5zm-2 0c0 .27-.2.5-.5.5-.26 0-.5-.23-.5-.5 0-.28.24-.5.5-.5.3 0 .5.22.5.5zm-2 0c0 .27-.2.5-.5.5-.26 0-.5-.23-.5-.5 0-.28.24-.5.5-.5.3 0 .5.22.5.5zm-1.98 0c0 .27-.23.5-.5.5-.28 0-.5-.23-.5-.5 0-.28.22-.5.5-.5.27 0 .5.22.5.5zm-2 0c0 .27-.23.5-.5.5-.28 0-.5-.23-.5-.5 0-.28.22-.5.5-.5.27 0 .5.22.5.5zm-2 0c0 .27-.23.5-.5.5-.28 0-.5-.23-.5-.5 0-.28.22-.5.5-.5.27 0 .5.22.5.5zm-2 0c0 .27-.22.5-.5.5s-.5-.23-.5-.5c0-.28.22-.5.5-.5s.5.22.5.5zm-2 0c0 .27-.22.5-.5.5s-.5-.23-.5-.5c0-.28.22-.5.5-.5s.5.22.5.5zm-2 0c0 .27-.22.5-.5.5-.27 0-.5-.23-.5-.5 0-.28.23-.5.5-.5.28 0 .5.22.5.5zm-2 0c0 .27-.22.5-.5.5-.27 0-.5-.23-.5-.5 0-.28.23-.5.5-.5.28 0 .5.22.5.5zm-2 0c0 .27-.22.5-.5.5-.27 0-.5-.23-.5-.5 0-.28.23-.5.5-.5.28 0 .5.22.5.5zm-2 0c0 .27-.22.5-.5.5-.27 0-.5-.23-.5-.5 0-.28.23-.5.5-.5.28 0 .5.22.5.5zm-2 0c0 .27-.22.5-.5.5-.27 0-.5-.23-.5-.5 0-.28.23-.5.5-.5.28 0 .5.22.5.5zm-2 0c0 .27-.22.5-.5.5-.27 0-.5-.23-.5-.5 0-.28.23-.5.5-.5.28 0 .5.22.5.5zm-2 0c0 .27-.2.5-.5.5-.27 0-.5-.23-.5-.5 0-.28.23-.5.5-.5.3 0 .5.22.5.5zm-2 0c0 .27-.2.5-.5.5-.27 0-.5-.23-.5-.5 0-.28.23-.5.5-.5.3 0 .5.22.5.5zm-2 0c0 .27-.2.5-.5.5-.26 0-.5-.23-.5-.5 0-.28.24-.5.5-.5.3 0 .5.22.5.5zm-2 0c0 .27-.2.5-.5.5-.26 0-.5-.23-.5-.5 0-.28.24-.5.5-.5.3 0 .5.22.5.5zm-2 0c0 .27-.2.5-.5.5-.26 0-.5-.23-.5-.5 0-.28.24-.5.5-.5.3 0 .5.22.5.5zm-1.98 0c0 .27-.23.5-.5.5-.28 0-.5-.23-.5-.5 0-.28.22-.5.5-.5.27 0 .5.22.5.5zm-2 0c0 .27-.23.5-.5.5-.28 0-.5-.23-.5-.5 0-.28.22-.5.5-.5.27 0 .5.22.5.5zm-2 0c0 .27-.23.5-.5.5-.28 0-.5-.23-.5-.5 0-.28.22-.5.5-.5.27 0 .5.22.5.5zm-2 0c0 .27-.22.5-.5.5s-.5-.23-.5-.5c0-.28.22-.5.5-.5s.5.22.5.5zm-2 0c0 .27-.22.5-.5.5-.27 0-.5-.23-.5-.5 0-.28.23-.5.5-.5.28 0 .5.22.5.5zm-2 0c0 .27-.22.5-.5.5-.27 0-.5-.23-.5-.5 0-.28.23-.5.5-.5.28 0 .5.22.5.5zm-2 0c0 .27-.22.5-.5.5-.27 0-.5-.23-.5-.5 0-.28.23-.5.5-.5.28 0 .5.22.5.5zm-2 0c0 .27-.22.5-.5.5-.27 0-.5-.23-.5-.5 0-.28.23-.5.5-.5.28 0 .5.22.5.5zm-2 0c0 .27-.22.5-.5.5-.27 0-.5-.23-.5-.5 0-.28.23-.5.5-.5.28 0 .5.22.5.5zm-2 0c0 .27-.22.5-.5.5-.27 0-.5-.23-.5-.5 0-.28.23-.5.5-.5.28 0 .5.22.5.5zm-2 0c0 .27-.2.5-.5.5-.27 0-.5-.23-.5-.5 0-.28.23-.5.5-.5.3 0 .5.22.5.5zm-2 0c0 .27-.2.5-.5.5-.27 0-.5-.23-.5-.5 0-.28.23-.5.5-.5.3 0 .5.22.5.5zm-2 0c0 .27-.2.5-.5.5-.26 0-.5-.23-.5-.5 0-.28.24-.5.5-.5.3 0 .5.22.5.5zm-2 0c0 .27-.2.5-.5.5-.26 0-.5-.23-.5-.5 0-.28.24-.5.5-.5.3 0 .5.22.5.5zm-2 0c0 .27-.2.5-.5.5-.26 0-.5-.23-.5-.5 0-.28.24-.5.5-.5.3 0 .5.22.5.5zm-1.98 0c0 .27-.23.5-.5.5-.28 0-.5-.23-.5-.5 0-.28.22-.5.5-.5.27 0 .5.22.5.5zm-2 0c0 .27-.23.5-.5.5-.28 0-.5-.23-.5-.5 0-.28.22-.5.5-.5.27 0 .5.22.5.5zm-2 0c0 .27-.23.5-.5.5-.28 0-.5-.23-.5-.5 0-.28.22-.5.5-.5.27 0 .5.22.5.5zm-2 0c0 .27-.22.5-.5.5s-.5-.23-.5-.5c0-.28.22-.5.5-.5s.5.22.5.5zm-2 0c0 .27-.22.5-.5.5s-.5-.23-.5-.5c0-.28.22-.5.5-.5s.5.22.5.5zm-2 0c0 .27-.22.5-.5.5-.27 0-.5-.23-.5-.5 0-.28.23-.5.5-.5.28 0 .5.22.5.5zm-2 0c0 .27-.22.5-.5.5-.27 0-.5-.23-.5-.5 0-.28.23-.5.5-.5.28 0 .5.22.5.5zm-2 0c0 .27-.22.5-.5.5-.27 0-.5-.23-.5-.5 0-.28.23-.5.5-.5.28 0 .5.22.5.5zm-2 0c0 .27-.22.5-.5.5-.27 0-.5-.23-.5-.5 0-.28.23-.5.5-.5.28 0 .5.22.5.5zm-2 0c0 .27-.22.5-.5.5-.27 0-.5-.23-.5-.5 0-.28.23-.5.5-.5.28 0 .5.22.5.5zm-2 0c0 .27-.22.5-.5.5-.27 0-.5-.23-.5-.5 0-.28.23-.5.5-.5.28 0 .5.22.5.5zm-2 0c0 .27-.2.5-.5.5-.27 0-.5-.23-.5-.5 0-.28.23-.5.5-.5.3 0 .5.22.5.5zm-2 0c0 .27-.2.5-.5.5-.27 0-.5-.23-.5-.5 0-.28.23-.5.5-.5.3 0 .5.22.5.5zm-2 0c0 .27-.2.5-.5.5-.26 0-.5-.23-.5-.5 0-.28.24-.5.5-.5.3 0 .5.22.5.5zm-2 0c0 .27-.2.5-.5.5-.26 0-.5-.23-.5-.5 0-.28.24-.5.5-.5.3 0 .5.22.5.5zm-2 0c0 .27-.2.5-.5.5-.26 0-.5-.23-.5-.5 0-.28.24-.5.5-.5.3 0 .5.22.5.5zm-1.98 0c0 .27-.23.5-.5.5-.28 0-.5-.23-.5-.5 0-.28.22-.5.5-.5.27 0 .5.22.5.5zm-2 0c0 .27-.23.5-.5.5-.28 0-.5-.23-.5-.5 0-.28.22-.5.5-.5.27 0 .5.22.5.5zm-2 0c0 .27-.23.5-.5.5-.28 0-.5-.23-.5-.5 0-.28.22-.5.5-.5.27 0 .5.22.5.5zm-2 0c0 .27-.22.5-.5.5s-.5-.23-.5-.5c0-.28.22-.5.5-.5s.5.22.5.5zm-2 0c0 .27-.22.5-.5.5s-.5-.23-.5-.5c0-.28.22-.5.5-.5s.5.22.5.5zm-2 0c0 .27-.22.5-.5.5-.27 0-.5-.23-.5-.5 0-.28.23-.5.5-.5.28 0 .5.22.5.5zm-2 0c0 .27-.22.5-.5.5-.27 0-.5-.23-.5-.5 0-.28.23-.5.5-.5.28 0 .5.22.5.5zm-2 0c0 .27-.22.5-.5.5-.27 0-.5-.23-.5-.5 0-.28.23-.5.5-.5.28 0 .5.22.5.5zm-2 0c0 .27-.22.5-.5.5-.27 0-.5-.23-.5-.5 0-.28.23-.5.5-.5.28 0 .5.22.5.5zm-2 0c0 .27-.22.5-.5.5-.27 0-.5-.23-.5-.5 0-.28.23-.5.5-.5.28 0 .5.22.5.5zm-2 0c0 .27-.22.5-.5.5-.27 0-.5-.23-.5-.5 0-.28.23-.5.5-.5.28 0 .5.22.5.5zm-2 0c0 .27-.2.5-.5.5-.27 0-.5-.23-.5-.5 0-.28.23-.5.5-.5.3 0 .5.22.5.5zm-2 0c0 .27-.2.5-.5.5-.27 0-.5-.23-.5-.5 0-.28.23-.5.5-.5.3 0 .5.22.5.5zm-2 0c0 .27-.2.5-.5.5-.26 0-.5-.23-.5-.5 0-.28.24-.5.5-.5.3 0 .5.22.5.5zm-2 0c0 .27-.2.5-.5.5-.26 0-.5-.23-.5-.5 0-.28.24-.5.5-.5.3 0 .5.22.5.5zm-2 0c0 .27-.2.5-.5.5-.26 0-.5-.23-.5-.5 0-.28.24-.5.5-.5.3 0 .5.22.5.5zm-1.98 0c0 .27-.23.5-.5.5-.28 0-.5-.23-.5-.5 0-.28.22-.5.5-.5.27 0 .5.22.5.5zm-2 0c0 .27-.23.5-.5.5-.28 0-.5-.23-.5-.5 0-.28.22-.5.5-.5.27 0 .5.22.5.5zm-2 0c0 .27-.23.5-.5.5-.28 0-.5-.23-.5-.5 0-.28.22-.5.5-.5.27 0 .5.22.5.5zm-2 0c0 .27-.22.5-.5.5s-.5-.23-.5-.5c0-.28.22-.5.5-.5s.5.22.5.5zm-2 0c0 .27-.22.5-.5.5s-.5-.23-.5-.5c0-.28.22-.5.5-.5s.5.22.5.5zm-2 0c0 .27-.22.5-.5.5-.27 0-.5-.23-.5-.5 0-.28.23-.5.5-.5.28 0 .5.22.5.5zm-2 0c0 .27-.22.5-.5.5-.27 0-.5-.23-.5-.5 0-.28.23-.5.5-.5.28 0 .5.22.5.5zm-2 0c0 .27-.22.5-.5.5-.27 0-.5-.23-.5-.5 0-.28.23-.5.5-.5.28 0 .5.22.5.5zm-2 0c0 .27-.22.5-.5.5-.27 0-.5-.23-.5-.5 0-.28.23-.5.5-.5.28 0 .5.22.5.5zm-2 0c0 .27-.22.5-.5.5-.27 0-.5-.23-.5-.5 0-.28.23-.5.5-.5.28 0 .5.22.5.5zm-2 0c0 .27-.22.5-.5.5-.27 0-.5-.23-.5-.5 0-.28.23-.5.5-.5.28 0 .5.22.5.5zm-2 0c0 .27-.2.5-.5.5-.27 0-.5-.23-.5-.5 0-.28.23-.5.5-.5.3 0 .5.22.5.5zm-2 0c0 .27-.2.5-.5.5-.26 0-.5-.23-.5-.5 0-.28.24-.5.5-.5.3 0 .5.22.5.5zm-2 0c0 .27-.2.5-.5.5-.26 0-.5-.23-.5-.5 0-.28.24-.5.5-.5.3 0 .5.22.5.5zm-2 0c0 .27-.2.5-.5.5-.26 0-.5-.23-.5-.5 0-.28.24-.5.5-.5.3 0 .5.22.5.5zm-1.98 0c0 .27-.23.5-.5.5-.28 0-.5-.23-.5-.5 0-.28.22-.5.5-.5.27 0 .5.22.5.5zm-2 0c0 .27-.23.5-.5.5-.28 0-.5-.23-.5-.5 0-.28.22-.5.5-.5.27 0 .5.22.5.5zm-2 0c0 .27-.23.5-.5.5-.28 0-.5-.23-.5-.5 0-.28.22-.5.5-.5.27 0 .5.22.5.5zm-2 0c0 .27-.23.5-.5.5-.28 0-.5-.23-.5-.5 0-.28.22-.5.5-.5.27 0 .5.22.5.5zm-2 0c0 .27-.22.5-.5.5s-.5-.23-.5-.5c0-.28.22-.5.5-.5s.5.22.5.5zm-2 0c0 .27-.22.5-.5.5s-.5-.23-.5-.5c0-.28.22-.5.5-.5s.5.22.5.5zm-2 0c0 .27-.22.5-.5.5-.27 0-.5-.23-.5-.5 0-.28.23-.5.5-.5.28 0 .5.22.5.5zm-2 0c0 .27-.22.5-.5.5-.27 0-.5-.23-.5-.5 0-.28.23-.5.5-.5.28 0 .5.22.5.5zm-2 0c0 .27-.22.5-.5.5-.27 0-.5-.23-.5-.5 0-.28.23-.5.5-.5.28 0 .5.22.5.5z" fill="#3a414a"/><path d="M1445.7 947.17h-.52v-1h.5z" stroke="#3a414a" stroke-width=".05" fill="#3a414a"/><path d="M1102.12 946.67l14.27-4.64-.02 9.27z" stroke="#3a414a" fill="#3a414a"/><defs><path fill="#333" d="M125-24c46 0 70-25 89-51l25 16C214-24 183 4 123 4 8 4-5-146 60-208c32-50 158-61 191-5 5 7 9 14 11 22l-32 10c-9-28-33-43-69-43-74 0-108 51-108 125 0 46 24 75 72 75" id="O"/><path fill="#333" d="M6 0l50-261h32L37 0H6" id="P"/><path fill="#333" d="M50-231l6-30h32l-6 30H50zM6 0l37-190h31L37 0H6" id="Q"/><path fill="#333" d="M111-194c62-3 86 47 72 106H45c-7 38 6 69 45 68 27-1 43-14 53-32l24 11C152-15 129 4 87 4 38 3 12-23 12-71c0-70 32-119 99-123zm44 81c14-66-71-72-95-28-4 8-8 17-11 28h106" id="R"/><path fill="#333" d="M67-158c22-48 132-52 116 29L158 0h-32l25-140c3-38-53-32-70-12C52-117 51-52 38 0H6l36-190h30" id="S"/><path fill="#333" d="M51-54c-9 22 5 41 31 30L79-1C43 14 10-4 19-52l22-115H19l5-23h22l19-43h21l-9 43h35l-4 23H73" id="T"/><g id="a"><use transform="matrix(0.04938271604938272,0,0,0.04938271604938272,0,0)" xlink:href="#O"/><use transform="matrix(0.04938271604938272,0,0,0.04938271604938272,12.790123456790125,0)" xlink:href="#P"/><use transform="matrix(0.04938271604938272,0,0,0.04938271604938272,16.69135802469136,0)" xlink:href="#Q"/><use transform="matrix(0.04938271604938272,0,0,0.04938271604938272,20.592592592592595,0)" xlink:href="#R"/><use transform="matrix(0.04938271604938272,0,0,0.04938271604938272,30.46913580246914,0)" xlink:href="#S"/><use transform="matrix(0.04938271604938272,0,0,0.04938271604938272,40.345679012345684,0)" xlink:href="#T"/></g><path fill="#333" d="M187 0l-14-72H61L19 0h-37l149-248h38L221 0h-34zm-19-99l-22-123L76-99h92" id="U"/><path fill="#333" d="M67-162c32-53 139-36 121 50C175-51 163 2 97 4 68 4 52-11 42-31 38 6 28 39 22 75H-9l50-265h29c-1 10 0 20-3 28zm89 36c0-26-10-43-35-43-54 0-67 50-69 103-1 29 14 45 42 46 53 0 62-58 62-106" id="V"/><g id="b"><use transform="matrix(0.04938271604938272,0,0,0.04938271604938272,0,0)" xlink:href="#U"/><use transform="matrix(0.04938271604938272,0,0,0.04938271604938272,11.851851851851853,0)" xlink:href="#V"/><use transform="matrix(0.04938271604938272,0,0,0.04938271604938272,21.7283950617284,0)" xlink:href="#V"/></g><path fill="#333" d="M9 0l6-27h63l36-188-63 39 6-31 66-41h29L110-27h60l-5 27H9" id="W"/><use transform="matrix(0.04938271604938272,0,0,0.04938271604938272,0,0)" xlink:href="#W" id="c"/><path fill="#333" d="M194-120c59 52 2 134-86 124-53-6-90-18-98-63l31-7c8 30 29 43 70 43 46 0 84-17 71-62-32-43-135-20-137-98-3-89 178-90 191-16l-30 9c-8-48-127-53-127 5 0 53 81 35 115 65" id="X"/><path fill="#333" d="M20-101c0-91 52-143 145-150 126-9 127 168 53 223-23 17-55 32-93 32C57 4 20-33 20-101zm216-33c5-57-18-91-73-90-77 1-110 51-110 125 0 49 23 75 73 75 72-1 104-45 110-110" id="Y"/><path fill="#333" d="M18-82l6-28h88l-6 28H18" id="Z"/><path fill="#333" d="M14 0l48-248h34L48 0H14" id="aa"/><path fill="#333" d="M248-139C247-14 144 9 11 0l48-248c105-6 190 8 189 109zm-34 0c1-70-52-87-126-82L50-27c98 7 163-21 164-112" id="ab"/><path fill="#333" d="M238-179c0 84-86 86-175 82L45 0H11l48-248c82 0 179-12 179 69zm-34 1c0-53-64-42-116-43l-19 98c63 0 135 9 135-55" id="ac"/><g id="d"><use transform="matrix(0.04938271604938272,0,0,0.04938271604938272,0,0)" xlink:href="#X"/><use transform="matrix(0.04938271604938272,0,0,0.04938271604938272,11.851851851851853,0)" xlink:href="#X"/><use transform="matrix(0.04938271604938272,0,0,0.04938271604938272,23.703703703703706,0)" xlink:href="#Y"/><use transform="matrix(0.04938271604938272,0,0,0.04938271604938272,37.53086419753087,0)" xlink:href="#Z"/><use transform="matrix(0.04938271604938272,0,0,0.04938271604938272,43.40740740740741,0)" xlink:href="#aa"/><use transform="matrix(0.04938271604938272,0,0,0.04938271604938272,48.345679012345684,0)" xlink:href="#ab"/><use transform="matrix(0.04938271604938272,0,0,0.04938271604938272,61.13580246913581,0)" xlink:href="#ac"/></g><path fill="#333" d="M62-99C39-31 123 0 170-40s38-139 58-208h34C234-144 253 4 115 4 49 4 18-43 31-112l26-136h34" id="ad"/><path fill="#333" d="M55-144c13 50 104 24 104 88C159 21 15 23 1-39l26-10c6 40 102 42 102-4-13-50-104-23-104-87 0-71 143-71 148-8l-29 4c-5-35-85-37-89 0" id="ae"/><path fill="#333" d="M66-151c12-25 30-51 66-40l-6 26C45-176 58-65 38 0H6l36-190h30" id="af"/><g id="e"><use transform="matrix(0.04938271604938272,0,0,0.04938271604938272,0,0)" xlink:href="#ad"/><use transform="matrix(0.04938271604938272,0,0,0.04938271604938272,12.790123456790125,0)" xlink:href="#ae"/><use transform="matrix(0.04938271604938272,0,0,0.04938271604938272,21.679012345679013,0)" xlink:href="#R"/><use transform="matrix(0.04938271604938272,0,0,0.04938271604938272,31.555555555555557,0)" xlink:href="#af"/></g><path fill="#333" d="M44-68c0 29 11 47 38 47 30 0 42-19 51-41l28 9C148-21 126 4 82 4 31 4 10-29 12-85c3-77 74-140 146-93 12 8 15 23 18 40l-31 5c-1-22-13-36-36-36-52 0-65 49-65 101" id="ag"/><g id="f"><use transform="matrix(0.04938271604938272,0,0,0.04938271604938272,0,0)" xlink:href="#U"/><use transform="matrix(0.04938271604938272,0,0,0.04938271604938272,11.851851851851853,0)" xlink:href="#ag"/><use transform="matrix(0.04938271604938272,0,0,0.04938271604938272,20.74074074074074,0)" xlink:href="#ag"/><use transform="matrix(0.04938271604938272,0,0,0.04938271604938272,29.629629629629633,0)" xlink:href="#R"/><use transform="matrix(0.04938271604938272,0,0,0.04938271604938272,39.50617283950618,0)" xlink:href="#ae"/><use transform="matrix(0.04938271604938272,0,0,0.04938271604938272,48.39506172839506,0)" xlink:href="#ae"/></g><g id="g"><use transform="matrix(0.04938271604938272,0,0,0.04938271604938272,0,0)" xlink:href="#O"/><use transform="matrix(0.04938271604938272,0,0,0.04938271604938272,12.790123456790125,0)" xlink:href="#P"/><use transform="matrix(0.04938271604938272,0,0,0.04938271604938272,16.69135802469136,0)" xlink:href="#Q"/><use transform="matrix(0.04938271604938272,0,0,0.04938271604938272,20.592592592592595,0)" xlink:href="#R"/><use transform="matrix(0.04938271604938272,0,0,0.04938271604938272,30.46913580246914,0)" xlink:href="#S"/><use transform="matrix(0.04938271604938272,0,0,0.04938271604938272,40.345679012345684,0)" xlink:href="#T"/></g><g id="h"><use transform="matrix(0.04938271604938272,0,0,0.04938271604938272,0,0)" xlink:href="#U"/><use transform="matrix(0.04938271604938272,0,0,0.04938271604938272,11.851851851851853,0)" xlink:href="#ac"/><use transform="matrix(0.04938271604938272,0,0,0.04938271604938272,23.703703703703706,0)" xlink:href="#ac"/></g><use transform="matrix(0.04938271604938272,0,0,0.04938271604938272,0,0)" xlink:href="#W" id="i"/><path fill="#3a414a" d="M233-177c-1 41-23 64-60 70L243 0h-38l-65-103H63V0H30v-248c88 3 205-21 203 71zM63-129c60-2 137 13 137-47 0-61-80-42-137-45v92" id="ah"/><path fill="#3a414a" d="M100-194c63 0 86 42 84 106H49c0 40 14 67 53 68 26 1 43-12 49-29l28 8c-11 28-37 45-77 45C44 4 14-33 15-96c1-61 26-98 85-98zm52 81c6-60-76-77-97-28-3 7-6 17-6 28h103" id="ai"/><path fill="#3a414a" d="M145-31C134-9 116 4 85 4 32 4 16-35 15-94c0-59 17-99 70-100 32-1 48 14 60 33 0-11-1-24 2-32h30l-1 268h-32zM93-21c41 0 51-33 51-76s-8-73-50-73c-40 0-46 35-46 75s5 74 45 74" id="aj"/><path fill="#3a414a" d="M84 4C-5 8 30-112 23-190h32v120c0 31 7 50 39 49 72-2 45-101 50-169h31l1 190h-30c-1-10 1-25-2-33-11 22-28 36-60 37" id="ak"/><path fill="#3a414a" d="M135-143c-3-34-86-38-87 0 15 53 115 12 119 90S17 21 10-45l28-5c4 36 97 45 98 0-10-56-113-15-118-90-4-57 82-63 122-42 12 7 21 19 24 35" id="al"/><path fill="#3a414a" d="M59-47c-2 24 18 29 38 22v24C64 9 27 4 27-40v-127H5v-23h24l9-43h21v43h35v23H59v120" id="am"/><g id="j"><use transform="matrix(0.05,0,0,0.05,0,0)" xlink:href="#ah"/><use transform="matrix(0.05,0,0,0.05,12.950000000000001,0)" xlink:href="#ai"/><use transform="matrix(0.05,0,0,0.05,22.950000000000003,0)" xlink:href="#aj"/><use transform="matrix(0.05,0,0,0.05,32.95,0)" xlink:href="#ak"/><use transform="matrix(0.05,0,0,0.05,42.95,0)" xlink:href="#ai"/><use transform="matrix(0.05,0,0,0.05,52.95,0)" xlink:href="#al"/><use transform="matrix(0.05,0,0,0.05,61.95,0)" xlink:href="#am"/></g><path fill="#3a414a" d="M100-194c62-1 85 37 85 99 1 63-27 99-86 99S16-35 15-95c0-66 28-99 85-99zM99-20c44 1 53-31 53-75 0-43-8-75-51-75s-53 32-53 75 10 74 51 75" id="an"/><path fill="#3a414a" d="M143 0L79-87 56-68V0H24v-261h32v163l83-92h37l-77 82L181 0h-38" id="ao"/><path fill="#3a414a" d="M117-194c89-4 53 116 60 194h-32v-121c0-31-8-49-39-48C34-167 62-67 57 0H25l-1-190h30c1 10-1 24 2 32 11-22 29-35 61-36" id="ap"/><g id="k"><use transform="matrix(0.05,0,0,0.05,0,0)" xlink:href="#am"/><use transform="matrix(0.05,0,0,0.05,5,0)" xlink:href="#an"/><use transform="matrix(0.05,0,0,0.05,15,0)" xlink:href="#ao"/><use transform="matrix(0.05,0,0,0.05,24,0)" xlink:href="#ai"/><use transform="matrix(0.05,0,0,0.05,34,0)" xlink:href="#ap"/></g><path fill="#3a414a" d="M54-142c48-35 137-8 131 61C196 18 31 33 14-55l32-4c7 23 22 37 52 37 35-1 51-22 54-58 4-55-73-65-99-34H22l8-134h141v27H59" id="aq"/><use transform="matrix(0.05,0,0,0.05,0,0)" xlink:href="#aq" id="l"/><path fill="#3a414a" d="M85-194c31 0 48 13 60 33l-1-100h32l1 261h-30c-2-10 0-23-3-31C134-8 116 4 85 4 32 4 16-35 15-94c0-66 23-100 70-100zm9 24c-40 0-46 34-46 75 0 40 6 74 45 74 42 0 51-32 51-76 0-42-9-74-50-73" id="ar"/><path fill="#3a414a" d="M24-231v-30h32v30H24zM24 0v-190h32V0H24" id="as"/><path fill="#3a414a" d="M114-163C36-179 61-72 57 0H25l-1-190h30c1 12-1 29 2 39 6-27 23-49 58-41v29" id="at"/><path fill="#3a414a" d="M96-169c-40 0-48 33-48 73s9 75 48 75c24 0 41-14 43-38l32 2c-6 37-31 61-74 61-59 0-76-41-82-99-10-93 101-131 147-64 4 7 5 14 7 22l-32 3c-4-21-16-35-41-35" id="au"/><g id="m"><use transform="matrix(0.05,0,0,0.05,0,0)" xlink:href="#ah"/><use transform="matrix(0.05,0,0,0.05,12.950000000000001,0)" xlink:href="#ai"/><use transform="matrix(0.05,0,0,0.05,22.950000000000003,0)" xlink:href="#ar"/><use transform="matrix(0.05,0,0,0.05,32.95,0)" xlink:href="#as"/><use transform="matrix(0.05,0,0,0.05,36.900000000000006,0)" xlink:href="#at"/><use transform="matrix(0.05,0,0,0.05,42.85000000000001,0)" xlink:href="#ai"/><use transform="matrix(0.05,0,0,0.05,52.85,0)" xlink:href="#au"/><use transform="matrix(0.05,0,0,0.05,61.85,0)" xlink:href="#am"/></g><g id="n"><use transform="matrix(0.05,0,0,0.05,0,0)" xlink:href="#am"/><use transform="matrix(0.05,0,0,0.05,5,0)" xlink:href="#an"/></g><path fill="#3a414a" d="M185-189c-5-48-123-54-124 2 14 75 158 14 163 119 3 78-121 87-175 55-17-10-28-26-33-46l33-7c5 56 141 63 141-1 0-78-155-14-162-118-5-82 145-84 179-34 5 7 8 16 11 25" id="av"/><path fill="#3a414a" d="M140-251c81 0 123 46 123 126C263-46 219 4 140 4 59 4 17-45 17-125s42-126 123-126zm0 227c63 0 89-41 89-101s-29-99-89-99c-61 0-89 39-89 99S79-25 140-24" id="aw"/><path fill="#3a414a" d="M16-82v-28h88v28H16" id="ax"/><path fill="#3a414a" d="M33 0v-248h34V0H33" id="ay"/><path fill="#3a414a" d="M30-248c118-7 216 8 213 122C240-48 200 0 122 0H30v-248zM63-27c89 8 146-16 146-99s-60-101-146-95v194" id="az"/><path fill="#3a414a" d="M30-248c87 1 191-15 191 75 0 78-77 80-158 76V0H30v-248zm33 125c57 0 124 11 124-50 0-59-68-47-124-48v98" id="aA"/><g id="o"><use transform="matrix(0.05,0,0,0.05,0,0)" xlink:href="#av"/><use transform="matrix(0.05,0,0,0.05,12,0)" xlink:href="#av"/><use transform="matrix(0.05,0,0,0.05,24,0)" xlink:href="#aw"/><use transform="matrix(0.05,0,0,0.05,38,0)" xlink:href="#ax"/><use transform="matrix(0.05,0,0,0.05,43.95,0)" xlink:href="#ay"/><use transform="matrix(0.05,0,0,0.05,48.95,0)" xlink:href="#az"/><use transform="matrix(0.05,0,0,0.05,61.900000000000006,0)" xlink:href="#aA"/></g><path fill="#3a414a" d="M101-251c82-7 93 87 43 132L82-64C71-53 59-42 53-27h129V0H18c2-99 128-94 128-182 0-28-16-43-45-43s-46 15-49 41l-32-3c6-41 34-60 81-64" id="aB"/><use transform="matrix(0.05,0,0,0.05,0,0)" xlink:href="#aB" id="p"/><path fill="#3a414a" d="M30 0v-248h33v221h125V0H30" id="aC"/><path fill="#3a414a" d="M177-190C167-65 218 103 67 71c-23-6-38-20-44-43l32-5c15 47 100 32 89-28v-30C133-14 115 1 83 1 29 1 15-40 15-95c0-56 16-97 71-98 29-1 48 16 59 35 1-10 0-23 2-32h30zM94-22c36 0 50-32 50-73 0-42-14-75-50-75-39 0-46 34-46 75s6 73 46 73" id="aD"/><g id="q"><use transform="matrix(0.05,0,0,0.05,0,0)" xlink:href="#as"/><use transform="matrix(0.05,0,0,0.05,3.95,0)" xlink:href="#al"/><use transform="matrix(0.05,0,0,0.05,12.949999999999998,0)" xlink:href="#aC"/><use transform="matrix(0.05,0,0,0.05,22.95,0)" xlink:href="#an"/><use transform="matrix(0.05,0,0,0.05,32.95,0)" xlink:href="#aD"/><use transform="matrix(0.05,0,0,0.05,42.95,0)" xlink:href="#as"/><use transform="matrix(0.05,0,0,0.05,46.900000000000006,0)" xlink:href="#ap"/><use transform="matrix(0.05,0,0,0.05,56.900000000000006,0)" xlink:href="#ai"/><use transform="matrix(0.05,0,0,0.05,66.9,0)" xlink:href="#ar"/></g><path fill="#3a414a" d="M18-150v-26h174v26H18zm0 90v-26h174v26H18" id="aE"/><use transform="matrix(0.05,0,0,0.05,0,0)" xlink:href="#aE" id="r"/><path fill="#3a414a" d="M101-234c-31-9-42 10-38 44h38v23H63V0H32v-167H5v-23h27c-7-52 17-82 69-68v24" id="aF"/><path fill="#3a414a" d="M141-36C126-15 110 5 73 4 37 3 15-17 15-53c-1-64 63-63 125-63 3-35-9-54-41-54-24 1-41 7-42 31l-33-3c5-37 33-52 76-52 45 0 72 20 72 64v82c-1 20 7 32 28 27v20c-31 9-61-2-59-35zM48-53c0 20 12 33 32 33 41-3 63-29 60-74-43 2-92-5-92 41" id="aG"/><path fill="#3a414a" d="M24 0v-261h32V0H24" id="aH"/><g id="s"><use transform="matrix(0.05,0,0,0.05,0,0)" xlink:href="#aF"/><use transform="matrix(0.05,0,0,0.05,5,0)" xlink:href="#aG"/><use transform="matrix(0.05,0,0,0.05,15,0)" xlink:href="#aH"/><use transform="matrix(0.05,0,0,0.05,18.95,0)" xlink:href="#al"/><use transform="matrix(0.05,0,0,0.05,27.950000000000003,0)" xlink:href="#ai"/></g><path fill="#3a414a" d="M205 0l-28-72H64L36 0H1l101-248h38L239 0h-34zm-38-99l-47-123c-12 45-31 82-46 123h93" id="aI"/><path fill="#3a414a" d="M106-169C34-169 62-67 57 0H25v-261h32l-1 103c12-21 28-36 61-36 89 0 53 116 60 194h-32v-121c2-32-8-49-39-48" id="aJ"/><g id="t"><use transform="matrix(0.05,0,0,0.05,0,0)" xlink:href="#aI"/><use transform="matrix(0.05,0,0,0.05,12,0)" xlink:href="#ak"/><use transform="matrix(0.05,0,0,0.05,22,0)" xlink:href="#am"/><use transform="matrix(0.05,0,0,0.05,27,0)" xlink:href="#aJ"/><use transform="matrix(0.05,0,0,0.05,37,0)" xlink:href="#ai"/><use transform="matrix(0.05,0,0,0.05,47,0)" xlink:href="#ap"/><use transform="matrix(0.05,0,0,0.05,57,0)" xlink:href="#am"/><use transform="matrix(0.05,0,0,0.05,62,0)" xlink:href="#as"/><use transform="matrix(0.05,0,0,0.05,65.95,0)" xlink:href="#au"/><use transform="matrix(0.05,0,0,0.05,74.95,0)" xlink:href="#aG"/><use transform="matrix(0.05,0,0,0.05,84.95,0)" xlink:href="#am"/><use transform="matrix(0.05,0,0,0.05,89.95,0)" xlink:href="#ai"/></g><path fill="#3a414a" d="M0 4l72-265h28L28 4H0" id="aK"/><path fill="#3a414a" d="M115-194c55 1 70 41 70 98S169 2 115 4C84 4 66-9 55-30l1 105H24l-1-265h31l2 30c10-21 28-34 59-34zm-8 174c40 0 45-34 45-75s-6-73-45-74c-42 0-51 32-51 76 0 43 10 73 51 73" id="aL"/><g id="u"><use transform="matrix(0.05,0,0,0.05,0,0)" xlink:href="#ah"/><use transform="matrix(0.05,0,0,0.05,12.950000000000001,0)" xlink:href="#ai"/><use transform="matrix(0.05,0,0,0.05,22.950000000000003,0)" xlink:href="#aj"/><use transform="matrix(0.05,0,0,0.05,32.95,0)" xlink:href="#ak"/><use transform="matrix(0.05,0,0,0.05,42.95,0)" xlink:href="#ai"/><use transform="matrix(0.05,0,0,0.05,52.95,0)" xlink:href="#al"/><use transform="matrix(0.05,0,0,0.05,61.95,0)" xlink:href="#am"/><use transform="matrix(0.05,0,0,0.05,66.95,0)" xlink:href="#aK"/><use transform="matrix(0.05,0,0,0.05,71.95,0)" xlink:href="#ah"/><use transform="matrix(0.05,0,0,0.05,84.9,0)" xlink:href="#ai"/><use transform="matrix(0.05,0,0,0.05,94.9,0)" xlink:href="#al"/><use transform="matrix(0.05,0,0,0.05,103.9,0)" xlink:href="#aL"/><use transform="matrix(0.05,0,0,0.05,113.9,0)" xlink:href="#an"/><use transform="matrix(0.05,0,0,0.05,123.9,0)" xlink:href="#ap"/><use transform="matrix(0.05,0,0,0.05,133.9,0)" xlink:href="#al"/><use transform="matrix(0.05,0,0,0.05,142.9,0)" xlink:href="#ai"/></g><path fill="#3a414a" d="M126-127c33 6 58 20 58 59 0 88-139 92-164 29-3-8-5-16-6-25l32-3c6 27 21 44 54 44 32 0 52-15 52-46 0-38-36-46-79-43v-28c39 1 72-4 72-42 0-27-17-43-46-43-28 0-47 15-49 41l-32-3c6-42 35-63 81-64 48-1 79 21 79 65 0 36-21 52-52 59" id="aM"/><use transform="matrix(0.05,0,0,0.05,0,0)" xlink:href="#aM" id="v"/><g id="w"><use transform="matrix(0.05,0,0,0.05,0,0)" xlink:href="#am"/><use transform="matrix(0.05,0,0,0.05,5,0)" xlink:href="#at"/><use transform="matrix(0.05,0,0,0.05,10.95,0)" xlink:href="#ak"/><use transform="matrix(0.05,0,0,0.05,20.95,0)" xlink:href="#ai"/></g><path fill="#3a414a" d="M212-179c-10-28-35-45-73-45-59 0-87 40-87 99 0 60 29 101 89 101 43 0 62-24 78-52l27 14C228-24 195 4 139 4 59 4 22-46 18-125c-6-104 99-153 187-111 19 9 31 26 39 46" id="aN"/><g id="x"><use transform="matrix(0.05,0,0,0.05,0,0)" xlink:href="#aN"/><use transform="matrix(0.05,0,0,0.05,12.950000000000001,0)" xlink:href="#aG"/><use transform="matrix(0.05,0,0,0.05,22.950000000000003,0)" xlink:href="#au"/><use transform="matrix(0.05,0,0,0.05,31.950000000000003,0)" xlink:href="#aJ"/><use transform="matrix(0.05,0,0,0.05,41.95,0)" xlink:href="#ai"/></g><g id="y"><use transform="matrix(0.05,0,0,0.05,0,0)" xlink:href="#aH"/><use transform="matrix(0.05,0,0,0.05,3.95,0)" xlink:href="#an"/><use transform="matrix(0.05,0,0,0.05,13.949999999999998,0)" xlink:href="#aD"/><use transform="matrix(0.05,0,0,0.05,23.95,0)" xlink:href="#as"/><use transform="matrix(0.05,0,0,0.05,27.899999999999995,0)" xlink:href="#ap"/></g><g id="z"><use transform="matrix(0.05,0,0,0.05,0,0)" xlink:href="#al"/><use transform="matrix(0.05,0,0,0.05,9,0)" xlink:href="#am"/><use transform="matrix(0.05,0,0,0.05,14,0)" xlink:href="#aG"/><use transform="matrix(0.05,0,0,0.05,24,0)" xlink:href="#am"/><use transform="matrix(0.05,0,0,0.05,29,0)" xlink:href="#ai"/></g><path fill="#3a414a" d="M206 0h-36l-40-164L89 0H53L-1-190h32L70-26l43-164h34l41 164 42-164h31" id="aO"/><g id="A"><use transform="matrix(0.05,0,0,0.05,0,0)" xlink:href="#aO"/><use transform="matrix(0.05,0,0,0.05,12.950000000000001,0)" xlink:href="#as"/><use transform="matrix(0.05,0,0,0.05,16.900000000000002,0)" xlink:href="#am"/><use transform="matrix(0.05,0,0,0.05,21.900000000000002,0)" xlink:href="#aJ"/></g><g id="B"><use transform="matrix(0.05,0,0,0.05,0,0)" xlink:href="#au"/><use transform="matrix(0.05,0,0,0.05,9,0)" xlink:href="#an"/><use transform="matrix(0.05,0,0,0.05,19,0)" xlink:href="#ar"/><use transform="matrix(0.05,0,0,0.05,29,0)" xlink:href="#ai"/></g><path fill="#3a414a" d="M127-220V0H93v-220H8v-28h204v28h-85" id="aP"/><path fill="#3a414a" d="M141 0L90-78 38 0H4l68-98-65-92h35l48 74 47-74h35l-64 92 68 98h-35" id="aQ"/><g id="C"><use transform="matrix(0.05,0,0,0.05,0,0)" xlink:href="#aP"/><use transform="matrix(0.05,0,0,0.05,8.950000000000001,0)" xlink:href="#ai"/><use transform="matrix(0.05,0,0,0.05,18.950000000000003,0)" xlink:href="#aQ"/><use transform="matrix(0.05,0,0,0.05,27.950000000000003,0)" xlink:href="#am"/></g><path fill="#3a414a" d="M155-56V0h-30v-56H8v-25l114-167h33v167h35v25h-35zm-30-156c-27 46-58 90-88 131h88v-131" id="aR"/><use transform="matrix(0.05,0,0,0.05,0,0)" xlink:href="#aR" id="D"/><g id="E"><use transform="matrix(0.05,0,0,0.05,0,0)" xlink:href="#ah"/><use transform="matrix(0.05,0,0,0.05,12.950000000000001,0)" xlink:href="#ai"/><use transform="matrix(0.05,0,0,0.05,22.950000000000003,0)" xlink:href="#al"/><use transform="matrix(0.05,0,0,0.05,31.950000000000003,0)" xlink:href="#aL"/><use transform="matrix(0.05,0,0,0.05,41.95,0)" xlink:href="#an"/><use transform="matrix(0.05,0,0,0.05,51.95,0)" xlink:href="#ap"/><use transform="matrix(0.05,0,0,0.05,61.95,0)" xlink:href="#ar"/></g><g id="F"><use transform="matrix(0.05,0,0,0.05,0,0)" xlink:href="#aI"/><use transform="matrix(0.05,0,0,0.05,12,0)" xlink:href="#au"/><use transform="matrix(0.05,0,0,0.05,21,0)" xlink:href="#au"/><use transform="matrix(0.05,0,0,0.05,30,0)" xlink:href="#ai"/><use transform="matrix(0.05,0,0,0.05,40,0)" xlink:href="#al"/><use transform="matrix(0.05,0,0,0.05,49,0)" xlink:href="#al"/></g><g id="G"><use transform="matrix(0.05,0,0,0.05,0,0)" xlink:href="#aP"/><use transform="matrix(0.05,0,0,0.05,8.950000000000001,0)" xlink:href="#an"/><use transform="matrix(0.05,0,0,0.05,18.950000000000003,0)" xlink:href="#ao"/><use transform="matrix(0.05,0,0,0.05,27.950000000000003,0)" xlink:href="#ai"/><use transform="matrix(0.05,0,0,0.05,37.95,0)" xlink:href="#ap"/></g><g id="H"><use transform="matrix(0.05,0,0,0.05,0,0)" xlink:href="#aG"/><use transform="matrix(0.05,0,0,0.05,10,0)" xlink:href="#ap"/><use transform="matrix(0.05,0,0,0.05,20,0)" xlink:href="#ar"/></g><g id="I"><use transform="matrix(0.05,0,0,0.05,0,0)" xlink:href="#ay"/><use transform="matrix(0.05,0,0,0.05,5,0)" xlink:href="#az"/></g><g id="J"><use transform="matrix(0.05,0,0,0.05,0,0)" xlink:href="#aP"/><use transform="matrix(0.05,0,0,0.05,8.950000000000001,0)" xlink:href="#an"/><use transform="matrix(0.05,0,0,0.05,18.950000000000003,0)" xlink:href="#ao"/><use transform="matrix(0.05,0,0,0.05,27.950000000000003,0)" xlink:href="#ai"/><use transform="matrix(0.05,0,0,0.05,37.95,0)" xlink:href="#ap"/></g><path fill="#3a414a" d="M110-160c48 1 74 30 74 79 0 53-28 85-80 85-65 0-83-55-86-122-5-90 50-162 133-122 14 7 22 21 27 39l-31 6c-5-40-67-38-82-6-9 19-15 44-15 74 11-20 30-34 60-33zm-7 138c34 0 49-23 49-58s-16-56-50-56c-29 0-50 16-49 49 1 36 15 65 50 65" id="aS"/><use transform="matrix(0.05,0,0,0.05,0,0)" xlink:href="#aS" id="K"/><path fill="#333" d="M123-251c66 0 92 69 53 113C138-94 73-75 39-27h128l-5 27H-2c17-92 123-93 159-163 14-28-1-64-36-62-29 2-46 17-54 41l-30-6c13-36 37-61 86-61" id="aT"/><use transform="matrix(0.04938271604938272,0,0,0.04938271604938272,0,0)" xlink:href="#aT" id="L"/><g id="M"><use transform="matrix(0.05,0,0,0.05,0,0)" xlink:href="#ah"/><use transform="matrix(0.05,0,0,0.05,12.950000000000001,0)" xlink:href="#ai"/><use transform="matrix(0.05,0,0,0.05,22.950000000000003,0)" xlink:href="#aL"/><use transform="matrix(0.05,0,0,0.05,32.95,0)" xlink:href="#ai"/><use transform="matrix(0.05,0,0,0.05,42.95,0)" xlink:href="#aG"/><use transform="matrix(0.05,0,0,0.05,52.95,0)" xlink:href="#am"/><use transform="matrix(0.05,0,0,0.05,57.95,0)" xlink:href="#av"/><use transform="matrix(0.05,0,0,0.05,69.95,0)" xlink:href="#am"/><use transform="matrix(0.05,0,0,0.05,74.95,0)" xlink:href="#ai"/><use transform="matrix(0.05,0,0,0.05,84.95,0)" xlink:href="#aL"/></g><path fill="#3a414a" d="M27 0v-27h64v-190l-56 39v-29l58-41h29v221h61V0H27" id="aU"/><g id="N"><use transform="matrix(0.05,0,0,0.05,0,0)" xlink:href="#aU"/><use transform="matrix(0.05,0,0,0.05,10,0)" xlink:href="#ax"/><use transform="matrix(0.05,0,0,0.05,15.949999999999998,0)" xlink:href="#aS"/></g></defs></g></svg>