<?xml version="1.0" encoding="utf-8"?>
<!-- Generator: Adobe Illustrator 23.1.0, SVG Export Plug-In . SVG Version: 6.00 Build 0)  -->
<svg version="1.1" id="Layer_1" xmlns="http://www.w3.org/2000/svg" xmlns:xlink="http://www.w3.org/1999/xlink" x="0px" y="0px"
	 viewBox="0 0 1456.9 391" style="enable-background:new 0 0 1456.9 391;" xml:space="preserve">
<style type="text/css">
	.st0{fill:#E8004A;}
	.st1{fill:#F5EAD0;}
</style>
<polygon class="st0" points="1049.6,212.8 1063.8,191.7 1074.2,184.2 1079.9,184.7 1086.1,187.3 1092.8,194.9 1098.6,201.1 
	1106.1,213.2 1049.6,214.1 "/>
<path class="st0" d="M853.3,211.2l3-7.6l2-5.4l0.9-2.3l1.9-4.9l1-2.6l0.5-1.2l0.5-1.1l0.5-1.2l0.3-0.6l0.4-1l1.4-3.1l1.5-3.3
	l1.2-2.6l0.9-1.8l0.8-1.7l0.6-1.1l0.5-0.9l0.7-1.3l0.8-1.4l0.4-0.8l1.1-1.8l0.8-1.3l0.9-1.4l0.7-1l0.6-0.9l0.6-0.8l0.6-0.7l0.6-0.7
	l0.5-0.5l0.5-0.5l0.7-0.7l0.7-0.7l0.9-0.8l0.7-0.6l0.7-0.5l0.6-0.4l0.7-0.4l0.6-0.3l0.6-0.2l0.6-0.2l0.2-0.1l0.6-0.1l0.7-0.1
	l0.5-0.1l0.3,0h0.1h0.2l0.1,0l0.1,0l0.3,0l0.3,0l0.2,0l0.2,0l0.1,0l0.4,0.1l0.2,0l0.3,0.1l0.3,0.1l0.2,0.1l0.4,0.1l0.5,0.2l0.4,0.2
	l0.3,0.1l0.4,0.2l0.5,0.3l0.7,0.4l0.5,0.3l0.5,0.4l0.3,0.2l0.9,0.8l2.4,1.4l1,1.4c0,0,1.5,1.4,1.5,1.4s2.2,2,2.2,2l1.1,3.5l3.4,2.9
	l2.5,4.4l1.8,3.5l7.8,16.1l6.7,15.8l1.5,4.6l-0.5,1.4l-76.2,0.3L853.3,211.2z"/>
<g transform="translate(0.000000,452.000000) scale(0.100000,-0.100000)">
	<path class="st1" d="M12428.5,4517.2c-28-11-50-36-50-60c0-14-6-23-15-23c-8,0-15-7-15-15s7-15,15-15c12,0,15-17,15-95s3-95,15-95
		s15,17,15,95v95h30c20,0,30,5,30,15s-10,15-30,15c-17,0-30,5-30,13c0,25,19,40,49,40c19,0,31,5,31,14c0,7-4,13-9,13s-15,2-23,4
		C12449.5,4521.2,12436.5,4520.2,12428.5,4517.2z"/>
	<path class="st1" d="M8788.5,4365.2v-149l58-1c31,0,65,2,75,5c47,15,64,139,26,188c-22,28-64,35-100,16c-18-10-19-7-19,40
		c0,43-3,50-20,50C8789.5,4514.2,8788.5,4507.2,8788.5,4365.2z M8919.5,4387.2c8-9,14-37,14-63c0-60-17-80-66-80h-39v70
		c0,55,3,71,18,79C8872.5,4409.2,8904.5,4406.2,8919.5,4387.2z"/>
	<path class="st1" d="M12928.5,4471.2v-42l-43,3c-39,3-47,0-70-28c-22-25-27-42-27-84c0-71,26-106,79-106c20,0,42,5,49,12
		c9,9,12,9,12,0c0-7,9-12,20-12c19,0,20,7,20,150s-1,150-20,150C12931.5,4514.2,12928.5,4507.2,12928.5,4471.2z M12926.5,4336.2
		c3-73-7-92-49-92c-41,0-63,38-56,92c7,49,30,70,72,66C12923.5,4399.2,12923.5,4398.2,12926.5,4336.2z"/>
	<path class="st1" d="M8418.5,4489.2c0-10,10-15,30-15h30v-103c0-67-4-107-12-115c-7-7-29-12-51-12c-56,0-43-24,15-28
		c40-3,49,1,67,24c19,24,21,40,21,145v119h-50C8430.5,4504.2,8418.5,4500.2,8418.5,4489.2z"/>
	<path class="st1" d="M11048.5,4359.2v-145h55c109,0,165,49,165,145c0,97-52,145-156,145h-64V4359.2z M11185.5,4454.2
		c21-13,36-32,44-58c24-81-29-152-113-152h-38v115v115h38C11136.5,4474.2,11167.5,4465.2,11185.5,4454.2z"/>
	<path class="st1" d="M11308.5,4489.2c0-8,9-15,20-15s20,7,20,15s-9,15-20,15S11308.5,4497.2,11308.5,4489.2z"/>
	<path class="st1" d="M12098.5,4489.2c0-8,9-15,20-15s20,7,20,15s-9,15-20,15S12098.5,4497.2,12098.5,4489.2z"/>
	<path class="st1" d="M12498.5,4489.2c0-8,9-15,20-15s20,7,20,15s-9,15-20,15S12498.5,4497.2,12498.5,4489.2z"/>
	<path class="st1" d="M10378.5,4464.2c0-20-5-30-15-30c-8,0-15-7-15-15s7-15,15-15c12,0,15-15,15-76c0-97,9-114,60-114
		c29,0,40,4,40,15c0,10-10,15-29,15c-35,0-41,13-41,96v64h35c24,0,35,5,35,15s-11,15-35,15c-32,0-35,2-35,30c0,20-5,30-15,30
		S10378.5,4484.2,10378.5,4464.2z"/>
	<path class="st1" d="M11978.5,4464.2c0-20-5-30-15-30c-8,0-15-7-15-15s7-15,15-15c12,0,15-15,15-76c0-97,9-114,60-114s57,27,8,32
		l-33,3l-3,78l-3,77h36c24,0,35,4,35,15c0,10-11,15-35,15c-32,0-35,2-35,30c0,20-5,30-15,30S11978.5,4484.2,11978.5,4464.2z"/>
	<path class="st1" d="M8591.5,4410.2c-25-22-28-31-28-84c0-50,4-65,24-86c30-32,96-36,131-8c24,19,38,91,26,136
		C8728.5,4434.2,8645.5,4456.2,8591.5,4410.2z M8698.5,4389.2c7-8,15-35,17-59c5-38,2-48-20-70c-31-31-50-33-77-6
		c-22,22-28,97-10,131C8621.5,4408.2,8680.5,4411.2,8698.5,4389.2z"/>
	<path class="st1" d="M9018.5,4412.2c-39-42-15-89,55-107c35-9,45-16,45-31c0-32-40-45-83-26c-35,14-37,14-37-4c0-23,30-33,85-28
		c28,2,44,11,58,30c30,41,13,71-53,93c-43,14-51,21-48,38c4,26,54,35,88,17c17-9,20-8,20,9
		C9148.5,4441.2,9052.5,4448.2,9018.5,4412.2z"/>
	<path class="st1" d="M9340.5,4414.2c-46-43-47-146-1-182c21-18,82-24,113-12c9,3,16,15,16,25c0,16-3,18-19,9c-59-31-111,2-111,70
		s52,101,111,70c16-9,19-7,19,9C9468.5,4439.2,9376.5,4448.2,9340.5,4414.2z"/>
	<path class="st1" d="M9515.5,4427.2c-20-20-5-30,38-25c46,5,75-8,75-34c0-9-12-14-35-14c-78,0-125-54-94-109c11-20,24-27,53-29
		c21-2,44,3,53,10c13,10,17,10,20,1c3-7,11-13,19-13c11,0,14,20,14,94c0,87-2,96-22,110C9614.5,4434.2,9528.5,4440.2,9515.5,4427.2z
		 M9628.5,4294.2c0-34-27-53-68-48c-20,2-28,9-30,27c-5,29,7,41,50,50C9622.5,4333.2,9628.5,4329.2,9628.5,4294.2z"/>
	<path class="st1" d="M9718.5,4324.2c0-90,3-110,15-110c11,0,15,19,17,87c3,86,4,88,31,97c50,18,62,1,65-98c2-76,5-87,20-84
		c32,6,29,170-4,203c-19,18-75,20-93,3c-11-10-14-10-18,0c-3,6-11,12-19,12C9721.5,4434.2,9718.5,4412.2,9718.5,4324.2z"/>
	<path class="st1" d="M9938.5,4324.2c0-91,3-110,15-110s15,16,15,84c0,83,0,84,29,96c59,24,66,15,69-88c2-84,4-92,22-92s20,7,20,80
		c0,43-5,91-12,105c-14,31-51,42-92,26c-20-7-32-8-34-1c-2,5-10,10-18,10C9941.5,4434.2,9938.5,4412.2,9938.5,4324.2z"/>
	<path class="st1" d="M10179.5,4417.2c-43-35-45-139-5-184c12-14,30-19,65-19c39,0,51,5,68,25c11,14,22,39,26,55c9,40-11,106-38,125
		C10266.5,4439.2,10205.5,4438.2,10179.5,4417.2z M10280.5,4387.2c21-19,25-98,5-124c-39-51-107-14-107,58
		S10234.5,4429.2,10280.5,4387.2z"/>
	<path class="st1" d="M11312.5,4421.2c-3-8-3-56-2-108c3-80,6-94,21-97s17,7,17,107c0,93-2,111-15,111
		C11324.5,4434.2,11315.5,4428.2,11312.5,4421.2z"/>
	<path class="st1" d="M11408.5,4414.2c-43-43-18-89,58-109c31-9,42-17,42-32c0-31-40-44-83-25c-35,14-37,14-37-4c0-41,111-41,142,1
		c30,40,11,74-49,92c-40,12-48,18-48,38c0,22,3,24,53,23c36-1,52,2,52,11C11538.5,4440.2,11438.5,4444.2,11408.5,4414.2z"/>
	<path class="st1" d="M11588.5,4414.2c-43-43-18-89,58-109c31-9,42-17,42-32c0-31-40-44-83-25c-35,14-37,14-37-3c0-23,19-31,74-31
		c54,0,79,24,74,72c-3,30-8,35-53,50c-41,13-50,20-50,40c0,21,4,23,53,22c36-1,52,2,52,11
		C11718.5,4440.2,11618.5,4444.2,11588.5,4414.2z"/>
	<path class="st1" d="M11768.5,4415.2c0-16,6-17,49-13c41,4,51,1,60-16c13-25,6-32-33-32c-17,0-46-9-63-20c-27-16-33-26-33-53
		c0-20,7-41,18-50c22-20,82-22,101-4c11,10,14,10,18,0c3-7,11-13,19-13c11,0,14,19,14,90c0,113-12,130-95,130
		C11776.5,4434.2,11768.5,4431.2,11768.5,4415.2z M11888.5,4299.2c0-34-27-57-63-53c-41,4-57,31-33,57c16,18,69,32,89,23
		C11885.5,4324.2,11888.5,4312.2,11888.5,4299.2z"/>
	<path class="st1" d="M12108.5,4324.2c0-91,3-110,15-110s15,19,15,110s-3,110-15,110S12108.5,4415.2,12108.5,4324.2z"/>
	<path class="st1" d="M12199.5,4408.2c-12-15-21-33-21-40c0-21,36-53,67-60c49-10,53-13,53-34c0-32-39-45-83-26c-35,14-37,14-37-3
		c0-23,19-31,76-31c31,0,50,6,64,20c40,40,20,82-50,105c-43,14-51,21-48,38c4,26,54,35,88,17c17-9,20-8,20,9c0,23-19,31-70,31
		C12228.5,4434.2,12215.5,4428.2,12199.5,4408.2z"/>
	<path class="st1" d="M12498.5,4324.2c0-103,1-110,20-110s20,7,20,110s-1,110-20,110S12498.5,4427.2,12498.5,4324.2z"/>
	<path class="st1" d="M12607.5,4405.2c-24-25-29-38-29-79c0-40,6-57,26-81c22-27,32-31,74-31c61,0,80,7,80,31c0,16-3,18-19,9
		c-27-14-84-13-104,3c-9,6-19,24-23,40l-6,27h76h76v33C12758.5,4432.2,12664.5,4462.2,12607.5,4405.2z M12708.5,4394.2
		c36-36,26-50-34-50c-30,0-58,4-61,10c-8,13,39,60,60,60C12681.5,4414.2,12697.5,4405.2,12708.5,4394.2z"/>
	<path class="st1" d="M8328.5,3886.2v-148l63-2c57-2,66,1,88,24c20,21,24,36,24,89c0,80-21,109-75,102c-19-2-43-7-52-11
		c-16-7-18-2-18,43c0,39-4,51-15,51C8330.5,4034.2,8328.5,4011.2,8328.5,3886.2z M8459.5,3907.2c18-21,17-106-1-128
		c-9-11-26-15-54-13l-41,3l-3,62c-3,54,0,63,20,77C8409.5,3929.2,8442.5,3928.2,8459.5,3907.2z"/>
	<path class="st1" d="M9848.5,3884.2c0-127,2-150,15-150s15,23,15,150s-2,150-15,150S9848.5,4011.2,9848.5,3884.2z"/>
	<path class="st1" d="M10618.5,3991.2c0-43-1-43-30-39c-73,11-110-28-110-116c0-67,27-102,79-102c20,0,42,5,49,12c9,9,12,9,12,0
		c0-7,9-12,20-12c19,0,20,7,20,150s-1,150-20,150C10621.5,4034.2,10618.5,4027.2,10618.5,3991.2z M10616.5,3856.2c3-72-7-92-49-92
		c-35,0-59,32-59,80c0,54,24,82,68,78l37-3L10616.5,3856.2z"/>
	<path class="st1" d="M10148.5,3984.2c0-16-4-30-10-30c-5,0-10-7-10-15s5-15,10-15c6,0,10-31,10-73c0-89,15-117,66-117
		c24,0,34,5,34,15s-10,15-30,15c-25,0-30,5-35,33c-4,18-5,53-3,77c3,43,5,45,36,48c46,5,43,32-3,32c-32,0-35,2-35,30
		c0,20-5,30-15,30S10148.5,4004.2,10148.5,3984.2z"/>
	<path class="st1" d="M11718.5,3984.2c0-20-5-30-15-30c-8,0-15-7-15-15s7-15,15-15c12,0,15-15,15-76c0-97,9-114,60-114s57,27,8,32
		l-33,3l-3,78l-3,77h36c24,0,35,4,35,15c0,10-11,15-35,15c-32,0-35,2-35,30c0,20-5,30-15,30S11718.5,4004.2,11718.5,3984.2z"/>
	<path class="st1" d="M8567.5,3925.2c-25-25-29-37-29-81s4-56,29-81c24-23,38-29,74-29c58,0,77,8,77,31c0,16-3,18-19,9
		c-23-12-81-13-97-2c-13,8-34,46-34,61c0,7,29,11,75,11h75v35C8718.5,3954.2,8625.5,3982.2,8567.5,3925.2z M8666.5,3918.2
		c12-8,22-24,22-35c0-17-7-19-60-19c-66,0-73,8-35,45C8621.5,3938.2,8635.5,3940.2,8666.5,3918.2z"/>
	<path class="st1" d="M8905.5,3928.2c-33-32-43-81-27-128c15-45,44-66,91-66c50,0,69,8,69,31c0,16-3,17-32,5c-58-24-98,8-98,76
		c0,66,53,98,111,68c16-9,19-7,19,9C9038.5,3964.2,8944.5,3967.2,8905.5,3928.2z"/>
	<path class="st1" d="M9084.5,3923.2c-20-23-26-42-26-75c0-78,30-113,97-114c58,0,93,41,93,110c0,70-35,110-95,110
		C9117.5,3954.2,9105.5,3949.2,9084.5,3923.2z M9204.5,3887.2c13-30,14-44,4-75c-30-103-139-45-114,60c10,41,23,52,61,52
		C9185.5,3924.2,9191.5,3919.2,9204.5,3887.2z"/>
	<path class="st1" d="M9288.5,3844.2c0-91,3-110,15-110s15,15,15,78c0,87,17,117,62,110c22-3,23-7,26-95c2-85,4-93,22-93s20,7,20,85
		c0,82,1,86,26,97c46,21,59,3,62-96c2-67,6-86,17-86c22,0,21,182-1,204c-20,20-63,21-91,1c-18-13-22-13-33,0c-15,18-71,20-89,3
		c-11-10-14-10-18,0c-3,6-11,12-19,12C9291.5,3954.2,9288.5,3932.2,9288.5,3844.2z"/>
	<path class="st1" d="M9628.5,3804.2c0-127,2-150,15-150c11,0,15,11,15,43v43l40-4c26-3,49,2,65,12c47,31,56,145,14,187
		c-22,22-78,25-98,7c-11-10-14-10-18,0c-3,6-11,12-19,12C9631.5,3954.2,9628.5,3927.2,9628.5,3804.2z M9752.5,3908.2
		c10-10,16-33,16-63c0-59-22-84-72-79l-33,3l-3,65c-2,52,0,67,14,77C9698.5,3929.2,9733.5,3927.2,9752.5,3908.2z"/>
	<path class="st1" d="M9955.5,3928.2c-47-47-44-144,6-179c41-29,147-14,147,20c0,17-16,20-25,5c-3-5-26-10-50-10c-46,0-75,24-75,62
		c0,16,10,18,76,18h77l-6,38c-8,47-38,72-87,72C9991.5,3954.2,9973.5,3947.2,9955.5,3928.2z M10050.5,3922.2c9-7,18-22,20-33
		c3-18-3-20-54-23c-61-3-72,7-45,40C9993.5,3934.2,10026.5,3940.2,10050.5,3922.2z"/>
	<path class="st1" d="M10307.5,3941.2c-27-21-39-54-39-107c0-69,31-100,101-100c60,0,79,7,79,31c0,16-3,18-19,9c-11-5-38-10-60-10
		c-42,0-71,25-71,62c0,16,10,18,75,18h75v29c0,15-9,40-21,55c-16,21-29,26-62,26C10342.5,3954.2,10316.5,3948.2,10307.5,3941.2z
		 M10398.5,3914.2c37-37,26-50-40-50c-68,0-78,14-34,49C10357.5,3939.2,10373.5,3939.2,10398.5,3914.2z"/>
	<path class="st1" d="M11151.5,3939.2c-32-22-48-89-34-137c14-46,44-68,92-68c50,0,69,8,69,31c0,16-3,18-19,9c-59-31-111,2-111,70
		s52,101,111,70c22-12,27,8,7,28C11249.5,3959.2,11177.5,3957.2,11151.5,3939.2z"/>
	<path class="st1" d="M11308.5,3872.2c0-105,13-132,63-136c22-2,45,3,54,10c13,10,17,10,20,1c3-7,11-13,19-13c11,0,14,22,14,110
		c0,91-3,110-15,110s-15-15-15-78c0-90-16-116-67-110l-28,3l-3,93c-2,84-4,92-22,92S11308.5,3947.2,11308.5,3872.2z"/>
	<path class="st1" d="M11539.5,3928.2c-12-15-21-33-21-40c0-21,36-53,67-60c49-10,53-13,53-34c0-32-39-45-83-26c-35,14-37,14-37-3
		c0-23,19-31,75-31c33,0,50,6,65,22c39,42,20,80-50,103c-43,14-51,21-48,38c4,26,54,35,88,17c17-9,20-8,20,9c0,23-19,31-70,31
		C11568.5,3954.2,11555.5,3948.2,11539.5,3928.2z"/>
	<path class="st1" d="M11871.5,3939.2c-48-33-54-136-10-182c30-33,99-32,132,2c21,20,25,34,25,85s-4,65-25,85
		C11965.5,3958.2,11905.5,3963.2,11871.5,3939.2z M11972.5,3902.2c55-77-34-193-91-120c-19,23-16,107,3,126
		C11907.5,3932.2,11954.5,3928.2,11972.5,3902.2z"/>
	<path class="st1" d="M12058.5,3844.2c0-103,1-110,20-110c18,0,20,7,20,85c0,82,1,86,26,97c46,21,59,3,62-96c2-67,6-86,17-86
		c12,0,15,17,15,85c0,75,2,86,21,95c11,6,30,10,42,8c21-3,22-9,25-96c2-82,5-93,20-90s17,16,17,94c0,62-5,96-14,108
		c-17,21-69,21-93-1c-17-15-19-15-36,0c-21,19-54,22-83,7c-13-7-19-7-19,0c0,5-9,10-20,10
		C12059.5,3954.2,12058.5,3947.2,12058.5,3844.2z"/>
	<path class="st1" d="M12426.5,3940.2c-28-21-50-83-42-121c10-55,48-85,105-85c60,0,79,7,79,31c0,16-3,18-19,9c-11-5-38-10-60-10
		c-42,0-71,25-71,62c0,16,10,18,75,18h75v29c0,15-9,40-21,55c-16,21-29,26-62,26C12462.5,3954.2,12435.5,3947.2,12426.5,3940.2z
		 M12510.5,3922.2c9-7,18-22,20-33c3-18-3-20-54-23c-43-2-58,0-58,10c0,18,11,33,35,46
		C12479.5,3937.2,12491.5,3937.2,12510.5,3922.2z"/>
	<path class="st1" d="M12608.5,3844.2c0-91,3-110,15-110s15,16,15,80c0,85,9,100,59,100c14,0,21,6,21,20c0,24-19,26-46,5
		c-25-19-34-19-34,0c0,8-7,15-15,15C12611.5,3954.2,12608.5,3935.2,12608.5,3844.2z"/>
	<path class="st1" d="M12758.5,3934.2c-43-43-18-89,58-109c31-9,42-17,42-32c0-31-40-44-83-25c-35,14-37,14-37-4c0-23,30-33,85-28
		c28,2,44,11,58,30c30,41,13,71-53,93c-43,14-51,21-48,38c3,20,9,22,56,21c36-1,52,2,52,11
		C12888.5,3960.2,12788.5,3964.2,12758.5,3934.2z"/>
	<path class="st1" d="M7899.5,3629.2c-12-24-26-47-32-50c-14-9-11-35,5-35c7,0,21,10,29,23c15,20,16-94,16-1279
		c1-1178,3-1302,17-1308c9-3,436-6,950-6h934v-50c0-27,5-50,10-50c6,0,10,12,10,28c0,15,3,37,6,50l6,22h909h909l-6-40
		c-5-33-4-40,10-40c12,0,16,10,16,40v40h920h920v-40c0-22,5-40,10-40c6,0,10,18,10,40v40h73l72-1l-24-20c-15-12-21-23-15-29
		c10-10,114,44,114,60c0,18-105,78-117,67c-3-4,4-18,17-32l24-25l-2875,2l-2874,3l-3,688l-2,687h280c320,0,296,9,255-98
		c-14-37-40-103-56-147c-75-197-150-362-209-460c-17-27-33-57-37-65c-10-23-101-129-157-183c-27-26-44-47-38-47c7,0,36,24,65,53
		c158,158,244,314,397,717c28,74,59,155,68,180l18,45h387h388l25-60c14-33,29-72,34-86c4-15,15-42,23-60c8-19,29-70,46-114
		c73-193,177-416,226-488c14-21,25-41,25-44s20-30,45-59c110-128,201-112,331,61c62,84,130,207,244,450c11,22,59,121,107,220l88,180
		l286,3l285,2l88-177c93-191,115-236,170-353c52-112,145-278,171-306c5-7,30-37,54-68c115-147,231-140,382,22c39,43,88,102,108,132
		s38,57,42,60c3,3,31,46,64,95c133,206,174,265,245,359c90,120,176,193,236,202c91,13,164-19,257-113c56-57,161-195,182-240
		c9-18,20-35,25-38c6-4,35-45,66-93s64-98,74-112c11-14,40-55,66-93c55-79,223-257,243-257c8,0-29,44-82,98c-53,53-118,126-144,162
		c-40,56-168,243-198,291c-5,9-22,34-37,55s-36,50-45,64c-106,155-203,249-291,283c-158,62-259-27-577-508c-87-132-164-247-172-255
		c-56-65-174-175-200-186c-42-18-107-18-141,0c-79,41-188,198-307,441c-148,303-255,526-255,530c0,3,552,6,1228,8l1227,2l-1237,3
		l-1237,2l-17,33c-9,17-38,64-65,104s-49,75-49,77c0,3,132,107,293,232c160,125,296,230,301,235c5,4,6,15,2,24c-5,13-29-2-120-72
		c-62-48-202-156-310-240l-197-152l-42,29c-61,41-88,45-139,23c-62-28-106-74-182-191l-67-102l-582,2l-582,3l-22,45
		c-12,25-32,70-45,100c-12,30-53,117-91,193s-66,144-64,151c3,8,96,158,207,335c181,288,209,341,181,341c-5,0-98-143-207-317
		c-108-175-201-322-206-327c-4-5-26,11-49,38c-47,53-85,76-127,76c-31,0-95-38-125-73c-30-37-93-149-122-217c-15-36-36-84-46-107
		c-11-24-19-47-19-52c0-14-61-164-72-178c-8-10-75-13-273-13c-145,0-270,3-279,6c-14,6-16,68-16,602v595l25-23c31-29,43-20,23,17
		c-25,49-53,93-59,93C7924.5,3674.2,7911.5,3654.2,7899.5,3629.2z M8950.5,2984.2c17-10,47-38,65-61c30-38,32-44,20-63
		c-7-12-26-42-43-69c-16-26-33-45-39-43c-44,18-42,20-49-54c-4-40-5-74-2-77c2-3,35,13,71,35c63,37,66,41,46,51c-11,7-21,16-21,21
		c0,17,71,121,79,116c4-3,31-53,60-111c46-93,65-136,128-288c9-20,14-39,11-42s-172-4-376-3l-371,3l24,60c12,33,37,98,55,145
		c17,47,52,126,76,175C8781.5,2977.2,8861.5,3039.2,8950.5,2984.2z M10809.5,2662.2c22-6,39-15,39-20s-14-35-30-68
		c-35-69-36-68,70-45c49,10,66,11,72,2c4-7,15-23,25-36s28-41,41-62l23-39h-270c-149,0-271,2-271,5s8,18,18,33c11,15,32,47,48,72
		c44,69,105,131,149,151C10771.5,2677.2,10762.5,2677.2,10809.5,2662.2z M10468.5,2364.2c0-5-17-44-39-87c-21-43-61-125-89-183
		c-222-466-267-545-373-651c-44-44-73-54-131-46c-67,9-145,106-240,300c-26,53-48,99-48,102s-9,24-19,48c-54,118-81,181-81,190
		c0,5-12,37-26,71c-14,33-35,84-46,111c-11,28-29,69-39,93c-10,23-19,47-19,52c0,6,209,10,575,10S10468.5,2370.2,10468.5,2364.2z"/>
	<path class="st1" d="M369.5,3579.2c-36-63-32-96,6-49l23,29v-1282v-1283l938-2l937-3l-3-46c-2-26,1-50,7-53c9-6,16,18,24,84
		c2,13,109,15,892,15h890l3-42c2-24,7-43,12-43c5,0,10,19,12,43l3,42h900h900l6-45c5-47,16-39,21,15c3,30,4,30,71,33c37,2,67,0,67-3
		c0-4-10-15-22-25c-13-10-20-22-16-26c10-9,83,23,104,47c15,17,13,20-32,49c-69,43-96,40-52-7l22-23l-2830,2l-2829,3l-3,183
		c-1,100,1,182,6,182c15,0,108,93,159,160c77,100,167,271,234,443c11,26,28,71,40,100c30,76,72,189,157,422c97,268,191,433,267,470
		c56,26,90,13,163-64c50-52,76-92,127-196c65-132,105-221,105-230c0-3,9-24,19-48c21-45,54-128,77-192c8-22,19-49,24-60
		c5-11,34-83,64-160c134-343,230-524,317-599c88-75,165-45,262,102c39,60,147,272,147,290c0,4,7,21,16,37c8,17,29,66,45,110
		c17,44,39,100,49,125c20,48,77,195,115,295c129,340,244,543,331,586c38,18,45,19,76,6c54-23,123-113,192-253c35-71,67-140,71-154
		c4-14,13-38,20-55c8-16,25-59,38-95c13-36,38-102,56-147c17-45,31-86,31-90c1-4,9-26,20-48s19-45,20-50c0-9,86-233,118-310
		c27-63,107-219,134-261c42-66,100-120,143-134c31-10,40-9,77,12c24,13,64,52,95,93c50,65,161,271,203,375c10,25,39,97,65,160
		c26,63,54,133,62,155c7,22,20,54,27,70c8,17,26,62,41,100c15,39,38,94,51,123c13,29,24,55,24,58c0,3,29,66,65,140
		c62,127,121,225,166,272c49,54,116,64,172,27c44-28,138-176,195-305c11-25,32-71,46-104c14-32,26-62,26-67s8-28,19-52
		c10-23,31-76,46-117c39-109,74-199,96-248c10-23,19-47,19-54c0-9,14-45,70-173c34-79,114-241,139-280c30-48,99-135,120-152
		c37-31,29-8-12,36c-25,27-63,75-84,108c-43,68-143,267-143,286c0,7-4,17-9,23c-4,5-34,77-66,159c-31,83-68,177-81,210
		c-12,33-34,92-49,130c-14,39-34,90-44,115c-11,25-31,74-46,110c-77,187-152,314-224,377l-36,33h418c271,0,417,3,417,10
		c0,7-619,10-1836,10c-1002,0-1624.1-2-1812.9-6.6c-41.3-1-61.8-2.1-61.1-3.4c1.2-1.8,21.5-3.5,57.2-4.9
		c80.4-3.2,239.2-5.1,435.8-5.1h441l-33-24c-55-41-118-133-186-272c-36-74-71-151-79-171c-16-45-89-229-115-293
		c-11-25-40-101-66-170c-27-69-56-143-66-166c-11-22-19-43-19-47c0-4-27-65-61-135c-91-190-165-292-226-313c-65-21-124,19-197,134
		c-36,56-131,250-175,357c-13,30-29,70-37,88c-8,18-28,70-45,115c-16,45-39,102-49,127s-28,72-40,105c-13,33-36,92-52,130
		c-103,245-195,420-232,442c-7,5-17,16-22,25c-5,10-25,29-44,43l-34,25h422c202.5,1.9,330.6,3.4,408.1,4.7
		c188.3,3.1,78.5,4.5,13.9,5.3c-0.1,0-12.4,0.2-34.2,0.5c-132.9,2-620.1,9.2-865.8,9.5h-900v265c0,239,6,297,24,250c9-25,29-17,22,9
		c-7,28-47,95-58,96C403.5,3634.2,386.5,3609.2,369.5,3579.2z M1245.5,2963.2c-46-38-138-177-158-239c-4-14-22-59-39-100
		c-18-41-40-97-50-125c-59-170-93-264-105-290c-7-16-20-50-28-75c-9-25-22-61-30-80c-8-19-27-64-42-100s-35-83-45-105
		c-11-22-21-47-25-55c-3-8-19-37-35-65c-16-27-35-61-41-75c-23-55-170-229-211-251c-17-9-18,27-18,791v800h432h433L1245.5,2963.2z
		 M4929.5,2943.2c-28-29-51-57-51-64s-7-18-15-25s-21-24-28-39c-8-14-28-53-46-86s-46-91-63-130c-17-38-39-90-50-113
		c-11-24-33-78-49-120c-17-43-34-86-39-97s-28-67-51-125c-82-211-73-188-138-335c-68-151-135-276-171-316c-8-9-27-32-42-51
		c-15-20-44-40-66-47c-34-12-43-11-78,7c-37,19-56,40-113,122c-29,42-114,209-134,265c-8,22-25,65-37,95s-31,78-41,105
		c-62,168-156,421-189,505c-98,251-193,421-267,473l-38,27h878h878L4929.5,2943.2z"/>
	<path class="st1" d="M11568.5,3409.2c0-148,1-155,20-155s20,7,20,155s-1,155-20,155S11568.5,3557.2,11568.5,3409.2z"/>
	<path class="st1" d="M11674.5,3443.2c-20-24-26-41-26-79s6-55,26-79c22-27,32-31,74-31c61,0,80,7,80,31c0,16-3,18-19,9
		c-27-14-84-13-104,3c-9,6-19,24-23,40l-6,27h76h76v33c0,47-34,77-87,77C11707.5,3474.2,11695.5,3468.2,11674.5,3443.2z
		 M11776.5,3438.2c12-8,22-24,22-35c0-16-7-19-54-19c-30,0-58,4-61,10c-7,12,39,60,57,60
		C11748.5,3454.2,11764.5,3447.2,11776.5,3438.2z"/>
	<path class="st1" d="M11875.5,3467.2c-21-20-4-30,51-29c51,1,57-1,60-20c3-18-3-22-43-26c-25-3-55-14-65-23c-24-22-26-77-4-99
		c18-19,85-21,102-4c9,9,12,9,12,0c0-7,9-12,20-12c19,0,20,7,20,90c0,113-12,130-93,130
		C11905.5,3474.2,11878.5,3471.2,11875.5,3467.2z M11988.5,3341.2c0-42-15-57-56-57c-63,0-50,73,15,83c14,2,29,5,34,6
		C11985.5,3373.2,11988.5,3359.2,11988.5,3341.2z"/>
	<path class="st1" d="M12060.5,3462.2c65-184,85-224,104-205c9,9,84,211,79,215c-15,15-36-17-60-87c-15-45-28-81-30-81s-16,38-31,85
		c-22,67-32,85-47,85C12064.5,3474.2,12058.5,3469.2,12060.5,3462.2z"/>
	<path class="st1" d="M12300.5,3454.2c-11-11-26-36-31-56c-23-82,20-144,100-144c60,0,79,7,79,31c0,16-3,18-19,9c-11-5-38-10-60-10
		c-42,0-71,25-71,62c0,16,10,18,75,18h75v29c0,15-9,40-21,55C12401.5,3481.2,12333.5,3485.2,12300.5,3454.2z M12398.5,3434.2
		c37-37,26-50-40-50c-68,0-78,14-34,49C12357.5,3459.2,12373.5,3459.2,12398.5,3434.2z"/>
	<path class="st1" d="M6091.5,3050.2c-39-83,46-166,105-103c12,13,19,26,15,30c-3,4-12-2-20-13c-17-24-56-26-77-4
		c-36,35-9,114,39,114c10,0,27-7,37-17c10-9,18-12,18-7c0,20-25,34-62,34C6112.5,3084.2,6106.5,3080.2,6091.5,3050.2z"/>
	<path class="st1" d="M6798.5,3059.2c0-8-5-15-11-15c-8,0-8-4-1-13c6-7,12-32,14-56c5-70,23-60,21,11c-1,35-2,69-3,76
		C6818.5,3079.2,6798.5,3077.2,6798.5,3059.2z"/>
	<path class="st1" d="M12315.5,3067.2c-3-5,55-125,129-268c133-259,134-260,113-276s-21-17,36-58c32-22,61-41,64-41s5,34,3,75
		c-3,71-4,74-24,64c-11-6-22-8-26-5c-3,4-65,120-136,258C12352.5,3050.2,12328.5,3088.2,12315.5,3067.2z"/>
	<path class="st1" d="M6258.5,3035.2c-22-15-5-24,18-10c16,10,23,10,36,0c21-18,11-31-23-31c-36,0-59-25-44-48c7-12,24-17,52-17h42
		l-3,55c-3,53-4,55-33,58C6287.5,3043.2,6266.5,3040.2,6258.5,3035.2z M6328.5,2980.2c0-19-16-36-34-36c-29,0-39,10-25,27
		C6279.5,2983.2,6328.5,2990.2,6328.5,2980.2z"/>
	<path class="st1" d="M6396.5,3037.2c-15-4-18-16-17-81c1-42,4-64,6-49c3,21,9,27,22,22c30-9,50,5,57,40
		C6474.5,3027.2,6450.5,3051.2,6396.5,3037.2z M6450.5,3008.2c15-33,0-59-33-59c-19,0-25,6-27,28
		C6384.5,3031.2,6429.5,3054.2,6450.5,3008.2z"/>
	<path class="st1" d="M6508.5,3029.2c-14-17,0-21,17-4c15,15,43,4,43-15c0-9-12-16-32-18c-28-2-34-8-36-31c-4-33,18-45,54-29
		c15,7,24,8,24,2s5-10,10-10c14,0,12,94-2,108C6569.5,3049.2,6523.5,3047.2,6508.5,3029.2z M6578.5,2976.2c0-15-24-32-47-32
		c-27,0-30,15-5,29C6547.5,2985.2,6578.5,2987.2,6578.5,2976.2z"/>
	<path class="st1" d="M6634.5,3022.2c-20-28-20-43,0-73c18-28,41-32,70-11c24,18,13,31-14,15c-31-19-54-5-50,32c4,42,34,61,53,35
		c8-11,18-17,21-13c12,11-17,37-42,37C6660.5,3044.2,6642.5,3034.2,6634.5,3022.2z"/>
	<path class="st1" d="M6738.5,2984.2c0-33,4-60,10-60s10,27,10,60s-4,60-10,60S6738.5,3017.2,6738.5,2984.2z"/>
	<path class="st1" d="M6848.5,3042.2c0-3,9-31,20-63c19-54,19-60,3-77c-9-10-11-18-6-18c17,0,35,28,54,83c21,59,23,81,9,72
		c-5-3-10-12-10-20s-5-26-11-42l-11-28l-16,42C6865.5,3028.2,6848.5,3055.2,6848.5,3042.2z"/>
	<path class="st1" d="M7568.5,2794.2c-16-31-5-70,21-70c13,0,25,11,35,35c8,19,19,35,24,35c16,0,24-30,11-43c-14-14-14-27-1-27
		c20,0,31,38,18,64c-16,37-45,33-62-9c-8-19-19-35-25-35c-17,0-22,19-11,41c7,11,9,23,7,26
		C7582.5,2813.2,7574.5,2806.2,7568.5,2794.2z"/>
	<path class="st1" d="M105.5,2787.2c-2-5-7-20-11-35c-3-16-13-28-21-28c-18,0-20,31-3,48c9,9,8,12-6,12s-17-7-14-37c2-30,8-39,25-41
		c16-2,24,4,33,32c6,20,18,36,26,36c16,0,19-36,4-45c-13-8-13-25,0-25c19,0,33,46,21,69C148.5,2793.2,114.5,2802.2,105.5,2787.2z"/>
	<path class="st1" d="M7586.5,2697.2c-21-5-33-43-23-72c13-41,113-36,116,7c2,27-2,46-12,56c-15,16-21-1-8-22c10-17,10-23,0-36
		c-21-25-30-19-33,26C7623.5,2698.2,7616.5,2705.2,7586.5,2697.2z M7608.5,2649.2c0-39-14-46-30-16c-7,15-6,23,6,35
		C7606.5,2690.2,7608.5,2689.2,7608.5,2649.2z"/>
	<path class="st1" d="M64.5,2671.2c-12-9-17-23-14-47c2-27,8-35,31-41c37-10,73,4,82,30c7,22-10,61-25,61c-6,0-5-9,2-20
		c9-15,10-25,2-37c-20-32-33-25-36,18C103.5,2682.2,92.5,2691.2,64.5,2671.2z M98.5,2628.2c0-37-14-42-34-12c-7,12-6,21,3,32
		C88.5,2673.2,98.5,2667.2,98.5,2628.2z"/>
	<path class="st1" d="M7570.5,2562.2c-7-7-12-22-12-34c0-55,83-76,115-28c15,23,15,27,0,50c-8,13-21,24-27,24s-4-8,5-18
		c23-25,21-41-6-53c-15-7-31-7-50,0c-31,12-34,23-12,45c8,8,15,17,15,20C7598.5,2578.2,7583.5,2575.2,7570.5,2562.2z"/>
	<path class="st1" d="M55.5,2547.2c-4-3-7-21-7-40c0-27,5-35,26-43c55-21,109,23,85,69c-7,11-16,21-21,21c-6,0-5-8,1-19
		c24-38-14-65-65-45c-19,7-21,35-4,52c7,7,8,12,2,12S58.5,2551.2,55.5,2547.2z"/>
	<path class="st1" d="M7562.5,2442.2c3-13,6-26,6-30c0-12,110-9,110,2c0,6-21,10-46,10c-37,0-47,4-51,20c-3,11-10,20-15,20
		C7560.5,2464.2,7558.5,2454.2,7562.5,2442.2z"/>
	<path class="st1" d="M13720.5,2441.2c-27-28-29-87-6-122c22-34,72-34,104,0c18,19,20,25,8,25c-9,0-18-7-22-15c-6-16-53-20-75-6
		s-19,90,4,107c25,18,50,18,70-2c23-23,32-8,10,16C13789.5,2471.2,13747.5,2469.2,13720.5,2441.2z"/>
	<path class="st1" d="M14363.5,2455.2c-3-5-1-12,5-16c5-3,10,1,10,9C14378.5,2466.2,14372.5,2469.2,14363.5,2455.2z"/>
	<path class="st1" d="M49.5,2427.2l-1-33h55c30,0,55,5,55,10c0,6-20,10-43,10c-36,0-46,4-55,23C50.5,2458.2,49.5,2457.2,49.5,2427.2
		z"/>
	<path class="st1" d="M14421.5,2434.2c-15-39-2-134,20-138c9-2,17,1,17,7s-4,11-10,11c-14,0-12,74,2,88c9,9,9,12,1,12
		c-7,0-13,10-16,23C14432.5,2459.2,14432.5,2459.2,14421.5,2434.2z"/>
	<path class="st1" d="M13873.5,2403.2c-4-6-4-13,0-17c3-3,10,0,14,7c11,17,46,10,46-9c0-8-12-17-29-20c-33-6-52-30-43-54
		c5-13,17-16,52-14c44,3,45,4,45,38c0,65-9,80-46,80C13894.5,2414.2,13876.5,2409.2,13873.5,2403.2z M13938.5,2339.2
		c0-21-39-40-54-25c-8,8-6,15,8,26C13917.5,2358.2,13938.5,2358.2,13938.5,2339.2z"/>
	<path class="st1" d="M13988.5,2332.2c0-46,4-78,10-78s10,10,10,23c0,20,4,23,30,19c25-4,31,0,40,23c6,16,9,33,6,39c-2,6-5,4-5-5
		c-1-9-10-24-21-34c-16-15-22-15-35-5c-8,7-15,25-15,40c0,39,25,58,48,36c25-22,35-20,22,4c-9,16-19,20-50,18l-40-3V2332.2z"/>
	<path class="st1" d="M14128.5,2399.2c-15-18-7-19,20-3c16,10,23,10,37-5c16-16,15-17-15-23c-37-7-55-26-50-51c3-14,13-18,51-19
		l47-1v47c0,25-5,51-12,58C14189.5,2419.2,14143.5,2417.2,14128.5,2399.2z M14198.5,2346.2c0-17-37-42-54-36c-23,9-20,23,7,34
		C14180.5,2355.2,14198.5,2356.2,14198.5,2346.2z"/>
	<path class="st1" d="M14258.5,2395.2c-23-44-4-101,33-101c24,0,47,17,47,34c0,5-9,1-19-8c-27-25-61-6-61,33s25,59,52,42
		c11-7,23-10,26-6c9,9-19,25-45,25C14279.5,2414.2,14264.5,2405.2,14258.5,2395.2z"/>
	<path class="st1" d="M14358.5,2354.2c0-33,4-60,10-60s10,27,10,60s-4,60-10,60S14358.5,2387.2,14358.5,2354.2z"/>
	<path class="st1" d="M14481.5,2387.2c27-51,32-104,13-119c-10-6-13-15-8-18c15-9,39,25,61,89c12,32,21,64,21,69c0,20-18-9-27-42
		c-11-43-26-42-39,4c-6,21-16,40-23,42C14470.5,2415.2,14470.5,2409.2,14481.5,2387.2z"/>
	<path class="st1" d="M7563.5,2364.2c3-5,26-10,50-10c30,0,45-5,49-16c10-27-13-44-61-44c-27,0-42-4-38-10c3-5,24-10,46-10
		c50,0,85,30,69,60c-6,11-8,25-5,30c4,6-18,10-55,10C7580.5,2374.2,7559.5,2370.2,7563.5,2364.2z"/>
	<path class="st1" d="M48.5,2354.2c0-5,20-10,44-10c37,0,46-4,51-21c9-27-8-39-57-39c-21,0-38-4-38-10c0-5,20-10,44-10
		c50,0,82,22,70,49c-4,9-6,24-6,34c1,14-8,17-54,17C72.5,2364.2,48.5,2360.2,48.5,2354.2z"/>
	<path class="st1" d="M7574.5,2228.2c-19-18-20-38-6-65c17-30,85-26,106,6c15,23,15,27,0,50
		C7655.5,2248.2,7599.5,2254.2,7574.5,2228.2z M7652.5,2218.2c18-17,19-24,8-40c-20-30-82-19-82,15
		C7578.5,2229.2,7626.5,2245.2,7652.5,2218.2z"/>
	<path class="st1" d="M61.5,2227.2c-7-2-13-22-13-43c0-42,11-50,64-50c25,0,35,6,44,25c16,34,15,40-4,59
		C137.5,2233.2,87.5,2238.2,61.5,2227.2z M138.5,2209.2c28-33-12-71-57-54c-42,16-20,68,28,69
		C118.5,2224.2,131.5,2217.2,138.5,2209.2z"/>
	<path class="st1" d="M7617.5,2097.2c-5-16-12-34-15-42c-4-12-8-12-21,2c-13,13-14,20-5,29c14,14,16,28,3,28c-14,0-23-37-16-60
		c4-13,15-20,30-20c19,0,26,7,33,32c4,17,13,33,20,36c18,6,27-28,13-50c-18-29-5-34,14-5c13,20,14,29,4,51
		C7661.5,2132.2,7630.5,2132.2,7617.5,2097.2z"/>
	<path class="st1" d="M105.5,2107.2c-2-5-7-20-11-35c-3-16-13-28-21-28c-18,0-20,31-3,48c9,9,8,12-6,12s-17-7-14-37c2-30,8-39,25-41
		c16-2,24,4,33,32c13,42,40,49,40,11c0-14-4-25-10-25c-5,0-10-4-10-10c0-19,20-10,31,14c8,17,8,29,0,45
		C148.5,2113.2,114.5,2122.2,105.5,2107.2z"/>
	<path class="st1" d="M7580.5,1995.2c-8-4-14-23-15-41c-2-27,3-37,24-48c57-33,119,22,83,75c-20,31-32,21-14-12c11-20,11-27,0-40
		c-20-25-29-18-32,27C7623.5,2000.2,7607.5,2013.2,7580.5,1995.2z M7608.5,1949.2c0-39-14-46-30-16c-7,15-6,23,6,35
		C7606.5,1990.2,7608.5,1989.2,7608.5,1949.2z"/>
	<path class="st1" d="M61.5,1987.2c-16-6-17-65-1-81c7-7,27-12,45-12c43,0,71,39,55,75c-7,14-16,25-22,25c-13,0-13-6,2-29
		c14-22,4-51-17-51c-11,0-15,11-15,40C108.5,1994.2,97.5,2002.2,61.5,1987.2z M98.5,1943.2c0-24-4-30-17-27c-22,4-30,38-11,49
		C92.5,1980.2,98.5,1975.2,98.5,1943.2z"/>
	<path class="st1" d="M126.5,1858.2c-16-8-28-20-28-27c0-6-7-1-16,11c-19,28-60,29-74,2c-6-12-10-40-8-63l3-42l78-3c64-2,77,0,77,13
		c0,10-10,15-30,15c-41,0-40,31,2,69C168.5,1867.2,165.5,1879.2,126.5,1858.2z M66.5,1801.2c3-34,1-37-22-37s-26,4-26,33
		c0,38,7,49,30,45C57.5,1840.2,64.5,1826.2,66.5,1801.2z"/>
	<path class="st1" d="M7635.5,1854.2c-22-18-26-18-38-4c-7,9-24,14-43,12c-31-3-31-4-34-65l-3-63h81c64,0,80,3,80,15
		c0,10-11,15-35,15c-28,0-35,4-35,19c0,11,16,32,35,47c34,25,45,44,26,44C7665.5,1874.2,7649.5,1865.2,7635.5,1854.2z
		 M7586.5,1802.2c3-35,1-38-23-38c-29,0-40,19-31,56c5,19,12,25,29,22C7579.5,1840.2,7584.5,1831.2,7586.5,1802.2z"/>
	<path class="st1" d="M6078.5,1424.2c0-78,1-80,24-80c75,0,106,25,106,88c0,50-25,72-81,72h-49V1424.2z M6170.5,1477.2
		c22-20,24-76,2-97c-8-9-29-16-45-16h-29v65c0,64,1,65,27,65C6139.5,1494.2,6160.5,1487.2,6170.5,1477.2z"/>
	<path class="st1" d="M6888.5,1484.2c0-16-7-20-30-20c-32,0-50-22-50-62c0-38,16-52,59-53l41-1v78c0,45-4,78-10,78
		C6893.5,1504.2,6888.5,1495.2,6888.5,1484.2z M6877.5,1440.2c20-24,10-70-16-74c-29-4-46,28-33,62
		C6839.5,1457.2,6859.5,1462.2,6877.5,1440.2z"/>
	<path class="st1" d="M13688.5,1424.2v-80h38c62,0,80,9,93,47c23,70-8,113-82,113h-49V1424.2z M13765.5,1488.2c51-14,48-117-4-127
		c-15-3-32-3-37-1c-9,4-12,54-7,122C13718.5,1495.2,13731.5,1497.2,13765.5,1488.2z"/>
	<path class="st1" d="M14516.5,1482.2c-2-16-9-22-23-21c-47,4-74-41-55-91c8-23,15-26,55-24l45,1v79c0,43-4,78-9,78
		S14518.5,1494.2,14516.5,1482.2z M14509.5,1423.2c8-16,8-28,0-46c-21-45-70-11-57,40C14460.5,1450.2,14492.5,1453.2,14509.5,1423.2
		z"/>
	<path class="st1" d="M6250.5,1455.2c-8-5-14-25-15-46c-1-39,20-65,53-65c22,0,57,27,47,36c-4,5-12,3-16-5c-11-18-55-10-59,12
		c-3,14,4,17,37,17s41,4,41,18C6338.5,1458.2,6286.5,1478.2,6250.5,1455.2z M6316.5,1432.2c3-14-3-18-27-18c-29,0-41,17-24,34
		C6278.5,1461.2,6313.5,1449.2,6316.5,1432.2z"/>
	<path class="st1" d="M6368.5,1407.2c0-29,5-53,10-53c6,0,10,17,10,39c0,44,25,75,41,50c5-8,9-33,9-56c0-61,18-53,22,10
		c3,44,6,52,23,52s20-8,23-53c2-30,7-50,13-47c13,9,11,91-3,103c-7,5-43,9-80,9l-68-1V1407.2z"/>
	<path class="st1" d="M6565.5,1453.2c-9-5-15-15-11-20c4-6,13-4,25,7c21,19,49,13,49-11c0-8-9-15-21-15c-28,0-59-18-59-34
		c0-25,27-37,65-30l36,6l-3,52c-3,49-4,51-33,53C6597.5,1463.2,6575.5,1459.2,6565.5,1453.2z M6626.5,1387.2c-2-11-14-19-31-21
		c-30-4-36,12-9,27C6612.5,1409.2,6630.5,1406.2,6626.5,1387.2z"/>
	<path class="st1" d="M6689.5,1399.2l1-60l11,55c10,44,16,55,32,55c17,0,21-8,23-45c5-71,24-76,20-5l-3,60h-42l-43,1L6689.5,1399.2z
		"/>
	<path class="st1" d="M13878.5,1457.2c-22-9-30-24-30-60c0-22,6-36,20-43c26-14,72-9,78,8c3,10-2,10-22,1s-29-9-41,1
		c-25,20-18,29,28,32c36,3,42,6,39,23C13944.5,1454.2,13913.5,1470.2,13878.5,1457.2z M13936.5,1427.2c2-9-8-13-32-13
		c-28,0-34,3-29,16C13882.5,1448.2,13929.5,1446.2,13936.5,1427.2z"/>
	<path class="st1" d="M14011.5,1456.2c-21-3-23-9-22-60l1-57l9,44c10,51,21,66,43,58c11-5,16-20,16-52c0-60,18-58,22,3
		c3,39,6,47,23,47s20-8,23-47c2-27,7-48,13-48c13,0,11,97-2,106C14124.5,1457.2,14047.5,1461.2,14011.5,1456.2z"/>
	<path class="st1" d="M14201.5,1457.2c-22-4-33-33-13-33c6,0,10,5,10,11c0,14,52,7,57-8c3-7-13-15-39-20c-37-7-43-12-43-33
		c0-23,4-25,50-26l50-1l-4,51c-3,48-14,67-36,64C14228.5,1462.2,14213.5,1459.2,14201.5,1457.2z M14256.5,1382.2c-6-18-34-32-51-25
		c-10,4-14,13-11,22C14201.5,1397.2,14262.5,1400.2,14256.5,1382.2z"/>
	<path class="st1" d="M14336.5,1457.2c-27-4-28-7-28-59c0-66,18-72,22-6c3,43,5,47,28,47s25-4,28-47c4-60,22-63,22-4
		c0,41-19,79-38,75C14366.5,1462.2,14351.5,1459.2,14336.5,1457.2z"/>
	<path class="st1" d="M4096.5,867.2c-17-4-32-32-23-41c3-3,14,4,26,16c16,18,24,20,39,12c29-15,25-26-25-78c-25-25-45-50-45-54
		s24-7,53-6c35,1,42,2,20,5c-41,5-42,23-3,51c23,17,30,30,30,56C4168.5,870.2,4148.5,881.2,4096.5,867.2z"/>
	<path class="st1" d="M5884.5,858.2c-9-8-14-20-11-24c3-5,15,0,26,11c20,20,22,20,38,5c15-16,14-18-7-35l-24-17l26-18
		c22-14,25-20,16-36c-13-25-46-26-59-3c-5,10-13,15-17,11c-11-12,17-38,41-38c40,0,55,11,55,40c0,16-5,32-10,35c-7,4-7,12,0,25
		c13,25,4,47-23,54C5904.5,876.2,5901.5,876.2,5884.5,858.2z"/>
	<path class="st1" d="M11658.5,839.2c-19-23-3-31,21-10c15,14,24,17,36,9c28-18,25-29-22-75c-59-58-58-69,5-69c28,0,50,5,50,10
		c0,6-17,10-37,10h-38l38,35c32,29,38,41,35,68c-3,29-6,32-39,35C11684.5,854.2,11667.5,850.2,11658.5,839.2z"/>
	<path class="st1" d="M13489.5,840.2c-8-10-9-16-1-21c5-3,13,1,16,9c8,21,40,21,48,0c4-10-3-23-16-35c-13-10-18-18-11-19
		c19,0,43-29,37-45c-9-22-36-27-56-9c-21,20-37,11-18-11c15-18,61-20,78-3c14,14,16,64,2,73c-6,4-5,13,2,25
		C13594.5,842.2,13519.5,876.2,13489.5,840.2z"/>
	<path class="st1" d="M2240.5,808.2c-27-19-29-38-2-29c18,6,20,2,20-49c0-31,5-56,10-56c6,0,10,32,10,75c0,41-3,75-8,75
		C2266.5,824.2,2252.5,817.2,2240.5,808.2z"/>
	<path class="st1" d="M9791.5,797.2c-30-20-32-49-3-33c19,10,20,8,20-50c0-33,4-60,10-60c12,0,14,146,3,153
		C9816.5,810.2,9803.5,805.2,9791.5,797.2z"/>
	<path class="st1" d="M3103.6,765.5c0-5,12-11,28-13c26-3,27-5,30-70c4-90,22-88,22,2c0,68,1,70,25,70c14,0,25,5,25,10
		c0,6-28,10-65,10C3132.6,774.5,3103.6,770.5,3103.6,765.5z"/>
	<path class="st1" d="M3253.6,764.5c0-5,5-10,10-10c6,0,10,5,10,10c0,6-4,10-10,10C3258.6,774.5,3253.6,770.5,3253.6,764.5z"/>
	<path class="st1" d="M10528.8,770.2c0-5,14-10,30-10h30v-75c0-43,4-75,10-75s10,32,10,75c0,73,1,75,25,75c14,0,25,5,25,10
		c0,6-28,10-65,10S10528.8,776.2,10528.8,770.2z"/>
	<path class="st1" d="M3253.6,674.5c0-33,4-60,10-60s10,27,10,60s-4,60-10,60S3253.6,707.5,3253.6,674.5z"/>
	<path class="st1" d="M3307.6,725.5c-9-9-3-111,6-111c6,0,10,17,10,39c0,39,20,68,40,56c5-3,10-26,10-51c0-24,5-44,10-44
		c6,0,10,15,10,33c0,38,22,73,38,63c7-4,12-25,12-46s5-42,10-45c6-4,10,13,10,43c0,59-20,83-52,63c-13-8-24-9-31-2
		C3368.6,732.5,3316.6,733.5,3307.6,725.5z"/>
	<path class="st1" d="M3508.6,718.5c-11-11-15-30-13-58l3-41h45c35,0,45,4,48,18c4,18,3,18-22,2c-21-14-29-15-41-5
		c-25,21-17,30,25,30c33,0,40,3,40,19C3593.6,727.5,3539.6,749.5,3508.6,718.5z M3557.6,708.5c26-10,18-24-14-24c-30,0-41,14-17,23
		c6,3,13,6,14,6C3541.6,714.5,3548.6,711.5,3557.6,708.5z"/>
	<path class="st1" d="M10850.8,731.2c-7-4-35-6-63-3l-49,5v-64c0-69,16-72,22-4c2,32,7,40,23,40c17,0,20-8,23-47c2-27,7-48,12-48
		s10,21,12,48c3,40,6,47,26,50s22,0,22-48c0-32,4-49,10-45c16,10,12,92-6,109C10864.8,743.2,10867.8,742.2,10850.8,731.2z"/>
	<path class="st1" d="M10949.8,724.2c-24-17-30-81-9-102c17-17,63-15,78,3c17,21,7,29-18,14c-21-13-52-7-52,11c0,5,18,10,40,10
		c35,0,40,3,40,24C11028.8,724.2,10982.8,747.2,10949.8,724.2z M11001.8,695.2c-3-9-10-10-44-6c-5,0-7,6-4,12
		C10961.8,714.2,11004.8,709.2,11001.8,695.2z"/>
	<path class="st1" d="M10691.8,670.2c0-36,2-50,4-32c2,17,2,47,0,65C10693.8,720.2,10691.8,706.2,10691.8,670.2z"/>
</g>
<path d="M210.8,152.4"/>
<path d="M221.5,149.3"/>
<path d="M963.6,184.9"/>
<path class="st1" d="M192.7,151.2c0.9,0,1.9,0,2.8,0c37.3,0,37.3,0,37.3,0v1.3h-40.1"/>
<circle class="st1" cx="1069.5" cy="379" r="0.5"/>
<polygon class="st1" points="44.1,151.2 70.8,275.6 71.1,276.6 71.7,275.1 45.2,151.2 "/>
<polyline class="st1" points="68.8,151.2 88.9,235.2 89.9,232.2 70.4,151.2 "/>
<polygon class="st1" points="158.7,152.4 195.5,272.6 197,271.9 160.3,151.8 "/>
<polygon class="st1" points="197,151.8 243.3,299.2 244.6,297.1 198.9,151.8 "/>
<polygon class="st1" points="246.3,151.8 271.9,235.7 272.7,233.9 247.5,151.8 "/>
<polygon class="st1" points="350.2,151.8 400.7,310.1 402,310.4 352.1,151.8 "/>
<polygon class="st1" points="390.1,151.8 431.9,288.9 432.8,287.2 392.2,151.8 "/>
<polygon class="st1" points="437.4,151.4 462.2,218.6 463.2,216.4 439.3,151.4 "/>
<polygon class="st1" points="542.3,151.5 588.9,310.6 590.7,311.5 544.2,151.9 "/>
</svg>
